NimbusSanL-ReguCondItal.ufo
<glyph name="exclam" format="1">
  <advance width="228"/>
  <unicode hex="0021"/>
  <outline>
    <contour>
      <point x="171" y="102" type="line"/>
      <point x="92" y="102" type="line"/>
      <point x="74" y="0" type="line"/>
      <point x="153" y="0" type="line"/>
    </contour>
    <contour>
      <point x="163" y="171" type="line"/>
      <point x="237" y="481" type="line"/>
      <point x="278" y="718" type="line"/>
      <point x="199" y="718" type="line"/>
      <point x="158" y="481" type="line"/>
      <point x="123" y="171" type="line"/>
    </contour>
  </outline>
</glyph>
<glyph name="quotedbl" format="1">
  <advance width="291"/>
  <unicode hex="0022"/>
  <outline>
    <contour>
      <point x="138" y="463" type="line"/>
      <point x="198" y="463" type="line"/>
      <point x="242" y="718" type="line"/>
      <point x="182" y="718" type="line"/>
    </contour>
    <contour>
      <point x="255" y="463" type="line"/>
      <point x="315" y="463" type="line"/>
      <point x="359" y="718" type="line"/>
      <point x="299" y="718" type="line"/>
    </contour>
  </outline>
</glyph>
<glyph name="numbersign" format="1">
  <advance width="456"/>
  <unicode hex="0023"/>
  <outline>
    <contour>
      <point x="355" y="210" type="line"/>
      <point x="439" y="210" type="line"/>
      <point x="458" y="273" type="line"/>
      <point x="373" y="273" type="line"/>
      <point x="414" y="415" type="line"/>
      <point x="499" y="415" type="line"/>
      <point x="517" y="478" type="line"/>
      <point x="433" y="478" type="line"/>
      <point x="493" y="688" type="line"/>
      <point x="438" y="688" type="line"/>
      <point x="378" y="478" type="line"/>
      <point x="276" y="478" type="line"/>
      <point x="337" y="688" type="line"/>
      <point x="282" y="688" type="line"/>
      <point x="221" y="478" type="line"/>
      <point x="137" y="478" type="line"/>
      <point x="119" y="415" type="line"/>
      <point x="203" y="415" type="line"/>
      <point x="163" y="273" type="line"/>
      <point x="78" y="273" type="line"/>
      <point x="60" y="210" type="line"/>
      <point x="144" y="210" type="line"/>
      <point x="84" y="0" type="line"/>
      <point x="138" y="0" type="line"/>
      <point x="198" y="210" type="line"/>
      <point x="301" y="210" type="line"/>
      <point x="240" y="0" type="line"/>
      <point x="295" y="0" type="line"/>
    </contour>
    <contour>
      <point x="359" y="415" type="line"/>
      <point x="319" y="273" type="line"/>
      <point x="217" y="273" type="line"/>
      <point x="258" y="415" type="line"/>
    </contour>
  </outline>
</glyph>
<glyph name="dollar" format="1">
  <advance width="456"/>
  <unicode hex="0024"/>
  <outline>
    <contour>
      <point x="504" y="521" type="line"/>
      <point x="505" y="539"/>
      <point x="506" y="556"/>
      <point x="506" y="570" type="curve" smooth="yes"/>
      <point x="506" y="622"/>
      <point x="487" y="662"/>
      <point x="449" y="686" type="curve" smooth="yes"/>
      <point x="428" y="700"/>
      <point x="411" y="705"/>
      <point x="371" y="711" type="curve"/>
      <point x="382" y="775" type="line"/>
      <point x="343" y="775" type="line"/>
      <point x="332" y="711" type="line"/>
      <point x="273" y="707"/>
      <point x="237" y="691"/>
      <point x="197" y="651" type="curve" smooth="yes"/>
      <point x="152" y="605"/>
      <point x="124" y="537"/>
      <point x="124" y="471" type="curve" smooth="yes"/>
      <point x="124" y="422"/>
      <point x="142" y="382"/>
      <point x="176" y="358" type="curve" smooth="yes"/>
      <point x="196" y="343"/>
      <point x="218" y="333"/>
      <point x="264" y="319" type="curve"/>
      <point x="218" y="54" type="line"/>
      <point x="154" y="69"/>
      <point x="132" y="93"/>
      <point x="132" y="149" type="curve" smooth="yes"/>
      <point x="132" y="165"/>
      <point x="134" y="189"/>
      <point x="136" y="213" type="curve"/>
      <point x="64" y="213" type="line"/>
      <point x="60" y="181"/>
      <point x="57" y="154"/>
      <point x="57" y="133" type="curve" smooth="yes"/>
      <point x="57" y="93"/>
      <point x="71" y="50"/>
      <point x="92" y="27" type="curve" smooth="yes"/>
      <point x="117" y="-1"/>
      <point x="145" y="-12"/>
      <point x="205" y="-19" type="curve"/>
      <point x="188" y="-115" type="line"/>
      <point x="227" y="-115" type="line"/>
      <point x="243" y="-19" type="line"/>
      <point x="307" y="-14"/>
      <point x="348" y="3"/>
      <point x="389" y="44" type="curve" smooth="yes"/>
      <point x="435" y="91"/>
      <point x="466" y="172"/>
      <point x="466" y="248" type="curve" smooth="yes"/>
      <point x="466" y="295"/>
      <point x="450" y="329"/>
      <point x="419" y="351" type="curve" smooth="yes"/>
      <point x="396" y="367"/>
      <point x="374" y="377"/>
      <point x="316" y="399" type="curve"/>
      <point x="358" y="638" type="line"/>
      <point x="414" y="622"/>
      <point x="435" y="597"/>
      <point x="435" y="544" type="curve" smooth="yes"/>
      <point x="435" y="539"/>
      <point x="435" y="530"/>
      <point x="434" y="521" type="curve"/>
    </contour>
    <contour>
      <point x="280" y="409" type="line"/>
      <point x="224" y="423"/>
      <point x="199" y="451"/>
      <point x="199" y="498" type="curve" smooth="yes"/>
      <point x="199" y="536"/>
      <point x="216" y="578"/>
      <point x="242" y="605" type="curve" smooth="yes"/>
      <point x="265" y="627"/>
      <point x="285" y="636"/>
      <point x="319" y="638" type="curve"/>
    </contour>
    <contour>
      <point x="300" y="308" type="line"/>
      <point x="342" y="291" type="line" smooth="yes"/>
      <point x="370" y="279"/>
      <point x="388" y="246"/>
      <point x="388" y="206" type="curve" smooth="yes"/>
      <point x="388" y="164"/>
      <point x="370" y="118"/>
      <point x="341" y="90" type="curve" smooth="yes"/>
      <point x="317" y="66"/>
      <point x="295" y="56"/>
      <point x="256" y="54" type="curve"/>
    </contour>
  </outline>
</glyph>
<glyph name="percent" format="1">
  <advance width="729"/>
  <unicode hex="0025"/>
  <outline>
    <contour>
      <point x="282" y="695" type="curve" smooth="yes"/>
      <point x="234" y="695"/>
      <point x="192" y="668"/>
      <point x="164" y="620" type="curve" smooth="yes"/>
      <point x="137" y="572"/>
      <point x="120" y="505"/>
      <point x="120" y="444" type="curve" smooth="yes"/>
      <point x="120" y="364"/>
      <point x="154" y="321"/>
      <point x="217" y="321" type="curve" smooth="yes"/>
      <point x="266" y="321"/>
      <point x="307" y="347"/>
      <point x="336" y="396" type="curve" smooth="yes"/>
      <point x="363" y="443"/>
      <point x="380" y="511"/>
      <point x="380" y="572" type="curve" smooth="yes"/>
      <point x="380" y="652"/>
      <point x="346" y="695"/>
    </contour>
    <contour>
      <point x="274" y="642" type="curve" smooth="yes"/>
      <point x="305" y="642"/>
      <point x="323" y="616"/>
      <point x="323" y="571" type="curve" smooth="yes"/>
      <point x="323" y="516"/>
      <point x="308" y="453"/>
      <point x="287" y="415" type="curve" smooth="yes"/>
      <point x="272" y="388"/>
      <point x="251" y="374"/>
      <point x="226" y="374" type="curve" smooth="yes"/>
      <point x="195" y="374"/>
      <point x="177" y="399"/>
      <point x="177" y="445" type="curve" smooth="yes"/>
      <point x="177" y="500"/>
      <point x="192" y="565"/>
      <point x="213" y="601" type="curve" smooth="yes"/>
      <point x="229" y="628"/>
      <point x="250" y="642"/>
    </contour>
    <contour>
      <point x="671" y="703" type="line"/>
      <point x="626" y="703" type="line"/>
      <point x="176" y="-19" type="line"/>
      <point x="221" y="-19" type="line"/>
    </contour>
    <contour>
      <point x="631" y="367" type="curve" smooth="yes"/>
      <point x="583" y="367"/>
      <point x="541" y="340"/>
      <point x="513" y="292" type="curve" smooth="yes"/>
      <point x="486" y="244"/>
      <point x="469" y="177"/>
      <point x="469" y="116" type="curve" smooth="yes"/>
      <point x="469" y="36"/>
      <point x="503" y="-7"/>
      <point x="567" y="-7" type="curve" smooth="yes"/>
      <point x="615" y="-7"/>
      <point x="656" y="19"/>
      <point x="685" y="68" type="curve" smooth="yes"/>
      <point x="712" y="115"/>
      <point x="729" y="184"/>
      <point x="729" y="244" type="curve" smooth="yes"/>
      <point x="729" y="324"/>
      <point x="695" y="367"/>
    </contour>
    <contour>
      <point x="623" y="314" type="curve" smooth="yes"/>
      <point x="654" y="314"/>
      <point x="672" y="289"/>
      <point x="672" y="243" type="curve" smooth="yes"/>
      <point x="672" y="188"/>
      <point x="657" y="125"/>
      <point x="636" y="87" type="curve" smooth="yes"/>
      <point x="621" y="60"/>
      <point x="600" y="46"/>
      <point x="576" y="46" type="curve" smooth="yes"/>
      <point x="544" y="46"/>
      <point x="526" y="71"/>
      <point x="526" y="117" type="curve" smooth="yes"/>
      <point x="526" y="171"/>
      <point x="541" y="237"/>
      <point x="562" y="273" type="curve" smooth="yes"/>
      <point x="578" y="300"/>
      <point x="598" y="314"/>
    </contour>
  </outline>
</glyph>
<glyph name="ampersand" format="1">
  <advance width="547"/>
  <unicode hex="0026"/>
  <outline>
    <contour>
      <point x="451" y="155" type="line"/>
      <point x="489" y="217"/>
      <point x="515" y="277"/>
      <point x="530" y="338" type="curve"/>
      <point x="462" y="338" type="line"/>
      <point x="445" y="283"/>
      <point x="440" y="270"/>
      <point x="419" y="226" type="curve"/>
      <point x="338" y="382" type="line"/>
      <point x="389" y="419"/>
      <point x="410" y="437"/>
      <point x="431" y="465" type="curve" smooth="yes"/>
      <point x="462" y="506"/>
      <point x="480" y="556"/>
      <point x="480" y="603" type="curve" smooth="yes"/>
      <point x="480" y="674"/>
      <point x="439" y="718"/>
      <point x="372" y="718" type="curve" smooth="yes"/>
      <point x="278" y="718"/>
      <point x="200" y="628"/>
      <point x="200" y="521" type="curve" smooth="yes"/>
      <point x="200" y="485"/>
      <point x="207" y="462"/>
      <point x="238" y="399" type="curve"/>
      <point x="165" y="352"/>
      <point x="136" y="328"/>
      <point x="110" y="291" type="curve" smooth="yes"/>
      <point x="80" y="249"/>
      <point x="63" y="191"/>
      <point x="63" y="133" type="curve" smooth="yes"/>
      <point x="63" y="38"/>
      <point x="115" y="-15"/>
      <point x="207" y="-15" type="curve" smooth="yes"/>
      <point x="279" y="-15"/>
      <point x="328" y="10"/>
      <point x="394" y="82" type="curve"/>
      <point x="435" y="0" type="line"/>
      <point x="528" y="0" type="line"/>
    </contour>
    <contour>
      <point x="366" y="141" type="line"/>
      <point x="320" y="86"/>
      <point x="277" y="61"/>
      <point x="227" y="61" type="curve" smooth="yes"/>
      <point x="175" y="61"/>
      <point x="137" y="101"/>
      <point x="137" y="155" type="curve" smooth="yes"/>
      <point x="137" y="184"/>
      <point x="146" y="217"/>
      <point x="162" y="243" type="curve" smooth="yes"/>
      <point x="179" y="273"/>
      <point x="202" y="293"/>
      <point x="268" y="339" type="curve"/>
    </contour>
    <contour>
      <point x="311" y="439" type="curve"/>
      <point x="285" y="481"/>
      <point x="273" y="514"/>
      <point x="273" y="546" type="curve" smooth="yes"/>
      <point x="273" y="600"/>
      <point x="309" y="642"/>
      <point x="355" y="642" type="curve" smooth="yes"/>
      <point x="388" y="642"/>
      <point x="408" y="621"/>
      <point x="408" y="585" type="curve" smooth="yes"/>
      <point x="408" y="546"/>
      <point x="390" y="508"/>
      <point x="356" y="476" type="curve" smooth="yes"/>
      <point x="343" y="464"/>
      <point x="338" y="459"/>
    </contour>
  </outline>
</glyph>
<glyph name="quotesingle" format="1">
  <advance width="157"/>
  <unicode hex="0027"/>
  <outline>
    <contour>
      <point x="129" y="463" type="line"/>
      <point x="189" y="463" type="line"/>
      <point x="233" y="718" type="line"/>
      <point x="173" y="718" type="line"/>
    </contour>
  </outline>
</glyph>
<glyph name="parenleft" format="1">
  <advance width="273"/>
  <unicode hex="0028"/>
  <outline>
    <contour>
      <point x="322" y="733" type="line"/>
      <point x="227" y="602"/>
      <point x="186" y="530"/>
      <point x="148" y="429" type="curve" smooth="yes"/>
      <point x="110" y="330"/>
      <point x="89" y="220"/>
      <point x="89" y="123" type="curve" smooth="yes"/>
      <point x="89" y="21"/>
      <point x="105" y="-54"/>
      <point x="161" y="-207" type="curve"/>
      <point x="209" y="-207" type="line"/>
      <point x="173" y="-56"/>
      <point x="162" y="14"/>
      <point x="162" y="96" type="curve" smooth="yes"/>
      <point x="162" y="188"/>
      <point x="182" y="307"/>
      <point x="217" y="418" type="curve" smooth="yes"/>
      <point x="247" y="516"/>
      <point x="279" y="581"/>
      <point x="372" y="733" type="curve"/>
    </contour>
  </outline>
</glyph>
<glyph name="parenright" format="1">
  <advance width="273"/>
  <unicode hex="0029"/>
  <outline>
    <contour>
      <point x="43" y="-207" type="line"/>
      <point x="138" y="-76"/>
      <point x="179" y="-4"/>
      <point x="217" y="97" type="curve" smooth="yes"/>
      <point x="255" y="196"/>
      <point x="276" y="306"/>
      <point x="276" y="403" type="curve" smooth="yes"/>
      <point x="276" y="505"/>
      <point x="260" y="580"/>
      <point x="204" y="733" type="curve"/>
      <point x="156" y="733" type="line"/>
      <point x="192" y="581"/>
      <point x="203" y="513"/>
      <point x="203" y="430" type="curve" smooth="yes"/>
      <point x="203" y="338"/>
      <point x="183" y="220"/>
      <point x="148" y="108" type="curve" smooth="yes"/>
      <point x="118" y="10"/>
      <point x="86" y="-55"/>
      <point x="-7" y="-207" type="curve"/>
    </contour>
  </outline>
</glyph>
<glyph name="asterisk" format="1">
  <advance width="319"/>
  <unicode hex="002A"/>
  <outline>
    <contour>
      <point x="135" y="591" type="line"/>
      <point x="218" y="557" type="line"/>
      <point x="147" y="465" type="line"/>
      <point x="181" y="431" type="line"/>
      <point x="251" y="525" type="line"/>
      <point x="287" y="431" type="line"/>
      <point x="333" y="465" type="line"/>
      <point x="295" y="557" type="line"/>
      <point x="389" y="591" type="line"/>
      <point x="382" y="646" type="line"/>
      <point x="290" y="608" type="line"/>
      <point x="309" y="718" type="line"/>
      <point x="260" y="718" type="line"/>
      <point x="240" y="608" type="line"/>
      <point x="161" y="646" type="line"/>
    </contour>
  </outline>
</glyph>
<glyph name="plus" format="1">
  <advance width="479"/>
  <unicode hex="002B"/>
  <outline>
    <contour>
      <point x="260" y="289" type="line"/>
      <point x="83" y="289" type="line"/>
      <point x="70" y="216" type="line"/>
      <point x="248" y="216" type="line"/>
      <point x="210" y="0" type="line"/>
      <point x="270" y="0" type="line"/>
      <point x="307" y="216" type="line"/>
      <point x="484" y="216" type="line"/>
      <point x="497" y="289" type="line"/>
      <point x="320" y="289" type="line"/>
      <point x="358" y="505" type="line"/>
      <point x="298" y="505" type="line"/>
    </contour>
  </outline>
</glyph>
<glyph name="comma" format="1">
  <advance width="228"/>
  <unicode hex="002C"/>
  <outline>
    <contour>
      <point x="72" y="0" type="line"/>
      <point x="115" y="0" type="line"/>
      <point x="103" y="-64"/>
      <point x="83" y="-97"/>
      <point x="54" y="-101" type="curve"/>
      <point x="46" y="-147" type="line"/>
      <point x="103" y="-136"/>
      <point x="142" y="-82"/>
      <point x="158" y="8" type="curve" smooth="yes"/>
      <point x="175" y="106" type="line"/>
      <point x="90" y="106" type="line"/>
    </contour>
  </outline>
</glyph>
<glyph name="hyphen" format="1">
  <advance width="273"/>
  <unicode hex="002D"/>
  <outline>
    <contour>
      <point x="293" y="322" type="line"/>
      <point x="93" y="322" type="line"/>
      <point x="77" y="232" type="line"/>
      <point x="277" y="232" type="line"/>
    </contour>
  </outline>
</glyph>
<glyph name="zero" format="1">
  <advance width="456"/>
  <unicode hex="0030"/>
  <outline>
    <contour>
      <point x="351" y="703" type="curve" smooth="yes"/>
      <point x="273" y="703"/>
      <point x="206" y="653"/>
      <point x="159" y="560" type="curve" smooth="yes"/>
      <point x="109" y="462"/>
      <point x="77" y="319"/>
      <point x="77" y="198" type="curve" smooth="yes"/>
      <point x="77" y="57"/>
      <point x="129" y="-19"/>
      <point x="225" y="-19" type="curve" smooth="yes"/>
      <point x="303" y="-19"/>
      <point x="370" y="30"/>
      <point x="417" y="124" type="curve" smooth="yes"/>
      <point x="466" y="220"/>
      <point x="499" y="365"/>
      <point x="499" y="483" type="curve" smooth="yes"/>
      <point x="499" y="628"/>
      <point x="448" y="703"/>
    </contour>
    <contour>
      <point x="337" y="624" type="curve" smooth="yes"/>
      <point x="391" y="624"/>
      <point x="422" y="574"/>
      <point x="422" y="484" type="curve" smooth="yes"/>
      <point x="422" y="375"/>
      <point x="392" y="233"/>
      <point x="351" y="149" type="curve" smooth="yes"/>
      <point x="323" y="92"/>
      <point x="283" y="60"/>
      <point x="239" y="60" type="curve" smooth="yes"/>
      <point x="185" y="60"/>
      <point x="154" y="110"/>
      <point x="154" y="199" type="curve" smooth="yes"/>
      <point x="154" y="308"/>
      <point x="185" y="455"/>
      <point x="225" y="535" type="curve" smooth="yes"/>
      <point x="255" y="593"/>
      <point x="293" y="624"/>
    </contour>
  </outline>
</glyph>
<glyph name="one" format="1">
  <advance width="456"/>
  <unicode hex="0031"/>
  <outline>
    <contour>
      <point x="417" y="703" type="line"/>
      <point x="360" y="703" type="line"/>
      <point x="320" y="599"/>
      <point x="291" y="577"/>
      <point x="182" y="569" type="curve"/>
      <point x="170" y="499" type="line"/>
      <point x="304" y="499" type="line"/>
      <point x="217" y="0" type="line"/>
      <point x="295" y="0" type="line"/>
    </contour>
  </outline>
</glyph>
<glyph name="two" format="1">
  <advance width="456"/>
  <unicode hex="0032"/>
  <outline>
    <contour>
      <point x="187" y="451" type="line"/>
      <point x="214" y="572"/>
      <point x="258" y="624"/>
      <point x="333" y="624" type="curve" smooth="yes"/>
      <point x="392" y="624"/>
      <point x="427" y="587"/>
      <point x="427" y="525" type="curve" smooth="yes"/>
      <point x="427" y="491"/>
      <point x="417" y="453"/>
      <point x="399" y="424" type="curve" smooth="yes"/>
      <point x="380" y="394"/>
      <point x="359" y="376"/>
      <point x="291" y="333" type="curve" smooth="yes"/>
      <point x="205" y="279" type="line" smooth="yes"/>
      <point x="103" y="214"/>
      <point x="48" y="131"/>
      <point x="21" y="0" type="curve"/>
      <point x="416" y="0" type="line"/>
      <point x="430" y="83" type="line"/>
      <point x="117" y="83" type="line"/>
      <point x="131" y="131"/>
      <point x="175" y="180"/>
      <point x="240" y="218" type="curve" smooth="yes"/>
      <point x="306" y="258" type="line" smooth="yes"/>
      <point x="391" y="308"/>
      <point x="425" y="336"/>
      <point x="455" y="377" type="curve" smooth="yes"/>
      <point x="487" y="422"/>
      <point x="506" y="483"/>
      <point x="506" y="543" type="curve" smooth="yes"/>
      <point x="506" y="641"/>
      <point x="447" y="703"/>
      <point x="354" y="703" type="curve" smooth="yes"/>
      <point x="285" y="703"/>
      <point x="221" y="670"/>
      <point x="179" y="615" type="curve" smooth="yes"/>
      <point x="147" y="572"/>
      <point x="131" y="533"/>
      <point x="114" y="451" type="curve"/>
    </contour>
  </outline>
</glyph>
<glyph name="three" format="1">
  <advance width="456"/>
  <unicode hex="0033"/>
  <outline>
    <contour>
      <point x="240" y="324" type="line"/>
      <point x="254" y="324"/>
      <point x="258" y="324"/>
      <point x="272" y="325" type="curve"/>
      <point x="283" y="325" type="line" smooth="yes"/>
      <point x="304" y="325"/>
      <point x="329" y="319"/>
      <point x="347" y="310" type="curve" smooth="yes"/>
      <point x="375" y="296"/>
      <point x="389" y="268"/>
      <point x="389" y="229" type="curve" smooth="yes"/>
      <point x="389" y="134"/>
      <point x="322" y="60"/>
      <point x="235" y="60" type="curve" smooth="yes"/>
      <point x="172" y="60"/>
      <point x="136" y="96"/>
      <point x="136" y="160" type="curve" smooth="yes"/>
      <point x="136" y="175"/>
      <point x="137" y="193"/>
      <point x="140" y="215" type="curve"/>
      <point x="65" y="215" type="line"/>
      <point x="62" y="187"/>
      <point x="61" y="163"/>
      <point x="61" y="145" type="curve" smooth="yes"/>
      <point x="61" y="41"/>
      <point x="120" y="-19"/>
      <point x="220" y="-19" type="curve" smooth="yes"/>
      <point x="296" y="-19"/>
      <point x="363" y="14"/>
      <point x="408" y="73" type="curve" smooth="yes"/>
      <point x="445" y="122"/>
      <point x="469" y="192"/>
      <point x="469" y="253" type="curve" smooth="yes"/>
      <point x="469" y="288"/>
      <point x="457" y="323"/>
      <point x="438" y="344" type="curve" smooth="yes"/>
      <point x="429" y="353"/>
      <point x="417" y="361"/>
      <point x="395" y="372" type="curve"/>
      <point x="460" y="400"/>
      <point x="500" y="472"/>
      <point x="500" y="558" type="curve" smooth="yes"/>
      <point x="500" y="649"/>
      <point x="443" y="703"/>
      <point x="348" y="703" type="curve" smooth="yes"/>
      <point x="281" y="703"/>
      <point x="223" y="674"/>
      <point x="184" y="622" type="curve" smooth="yes"/>
      <point x="154" y="582"/>
      <point x="139" y="545"/>
      <point x="124" y="473" type="curve"/>
      <point x="195" y="473" type="line"/>
      <point x="221" y="580"/>
      <point x="261" y="624"/>
      <point x="333" y="624" type="curve" smooth="yes"/>
      <point x="390" y="624"/>
      <point x="423" y="592"/>
      <point x="423" y="537" type="curve" smooth="yes"/>
      <point x="423" y="455"/>
      <point x="369" y="398"/>
      <point x="291" y="398" type="curve" smooth="yes"/>
      <point x="283" y="398"/>
      <point x="275" y="398"/>
      <point x="253" y="400" type="curve"/>
    </contour>
  </outline>
</glyph>
<glyph name="four" format="1">
  <advance width="456"/>
  <unicode hex="0034"/>
  <outline>
    <contour>
      <point x="459" y="171" type="line"/>
      <point x="472" y="247" type="line"/>
      <point x="387" y="247" type="line"/>
      <point x="467" y="703" type="line"/>
      <point x="407" y="703" type="line"/>
      <point x="65" y="257" type="line"/>
      <point x="50" y="171" type="line"/>
      <point x="302" y="171" type="line"/>
      <point x="272" y="0" type="line"/>
      <point x="344" y="0" type="line"/>
      <point x="374" y="171" type="line"/>
    </contour>
    <contour>
      <point x="371" y="569" type="line"/>
      <point x="315" y="247" type="line"/>
      <point x="130" y="247" type="line"/>
    </contour>
  </outline>
</glyph>
<glyph name="five" format="1">
  <advance width="456"/>
  <unicode hex="0035"/>
  <outline>
    <contour>
      <point x="249" y="602" type="line"/>
      <point x="494" y="602" type="line"/>
      <point x="509" y="688" type="line"/>
      <point x="210" y="688" type="line"/>
      <point x="101" y="311" type="line"/>
      <point x="163" y="307" type="line"/>
      <point x="204" y="354"/>
      <point x="239" y="374"/>
      <point x="282" y="374" type="curve" smooth="yes"/>
      <point x="345" y="374"/>
      <point x="385" y="329"/>
      <point x="385" y="258" type="curve" smooth="yes"/>
      <point x="385" y="148"/>
      <point x="314" y="57"/>
      <point x="228" y="57" type="curve" smooth="yes"/>
      <point x="168" y="57"/>
      <point x="130" y="95"/>
      <point x="130" y="155" type="curve" smooth="yes"/>
      <point x="130" y="160"/>
      <point x="130" y="168"/>
      <point x="131" y="175" type="curve"/>
      <point x="56" y="175" type="line"/>
      <point x="55" y="161"/>
      <point x="55" y="148"/>
      <point x="55" y="139" type="curve" smooth="yes"/>
      <point x="55" y="39"/>
      <point x="112" y="-19"/>
      <point x="211" y="-19" type="curve" smooth="yes"/>
      <point x="286" y="-19"/>
      <point x="350" y="13"/>
      <point x="396" y="74" type="curve" smooth="yes"/>
      <point x="438" y="130"/>
      <point x="465" y="209"/>
      <point x="465" y="280" type="curve" smooth="yes"/>
      <point x="465" y="382"/>
      <point x="401" y="453"/>
      <point x="310" y="453" type="curve" smooth="yes"/>
      <point x="267" y="453"/>
      <point x="232" y="440"/>
      <point x="191" y="409" type="curve"/>
    </contour>
  </outline>
</glyph>
<glyph name="six" format="1">
  <advance width="456"/>
  <unicode hex="0036"/>
  <outline>
    <contour>
      <point x="502" y="516" type="line"/>
      <point x="503" y="533"/>
      <point x="504" y="547"/>
      <point x="504" y="559" type="curve" smooth="yes"/>
      <point x="504" y="644"/>
      <point x="447" y="703"/>
      <point x="365" y="703" type="curve" smooth="yes"/>
      <point x="273" y="703"/>
      <point x="195" y="635"/>
      <point x="140" y="509" type="curve" smooth="yes"/>
      <point x="101" y="418"/>
      <point x="74" y="287"/>
      <point x="74" y="190" type="curve" smooth="yes"/>
      <point x="74" y="57"/>
      <point x="130" y="-19"/>
      <point x="228" y="-19" type="curve" smooth="yes"/>
      <point x="294" y="-19"/>
      <point x="342" y="6"/>
      <point x="391" y="65" type="curve" smooth="yes"/>
      <point x="441" y="125"/>
      <point x="468" y="200"/>
      <point x="468" y="282" type="curve" smooth="yes"/>
      <point x="468" y="381"/>
      <point x="408" y="448"/>
      <point x="319" y="448" type="curve" smooth="yes"/>
      <point x="258" y="448"/>
      <point x="210" y="420"/>
      <point x="168" y="358" type="curve"/>
      <point x="204" y="531"/>
      <point x="269" y="624"/>
      <point x="353" y="624" type="curve" smooth="yes"/>
      <point x="407" y="624"/>
      <point x="431" y="591"/>
      <point x="431" y="516" type="curve"/>
    </contour>
    <contour>
      <point x="297" y="369" type="curve" smooth="yes"/>
      <point x="357" y="369"/>
      <point x="391" y="329"/>
      <point x="391" y="259" type="curve" smooth="yes"/>
      <point x="391" y="151"/>
      <point x="324" y="60"/>
      <point x="245" y="60" type="curve" smooth="yes"/>
      <point x="186" y="60"/>
      <point x="149" y="105"/>
      <point x="149" y="176" type="curve" smooth="yes"/>
      <point x="149" y="283"/>
      <point x="215" y="369"/>
    </contour>
  </outline>
</glyph>
<glyph name="seven" format="1">
  <advance width="456"/>
  <unicode hex="0037"/>
  <outline>
    <contour>
      <point x="135" y="602" type="line"/>
      <point x="453" y="602" type="line"/>
      <point x="294" y="415"/>
      <point x="172" y="200"/>
      <point x="112" y="0" type="curve"/>
      <point x="192" y="0" type="line"/>
      <point x="271" y="243"/>
      <point x="385" y="446"/>
      <point x="536" y="611" type="curve"/>
      <point x="549" y="688" type="line"/>
      <point x="150" y="688" type="line"/>
    </contour>
  </outline>
</glyph>
<glyph name="eight" format="1">
  <advance width="456"/>
  <unicode hex="0038"/>
  <outline>
    <contour>
      <point x="193" y="373" type="curve"/>
      <point x="152" y="352"/>
      <point x="133" y="337"/>
      <point x="111" y="309" type="curve" smooth="yes"/>
      <point x="80" y="270"/>
      <point x="60" y="204"/>
      <point x="60" y="141" type="curve" smooth="yes"/>
      <point x="60" y="45"/>
      <point x="127" y="-19"/>
      <point x="228" y="-19" type="curve" smooth="yes"/>
      <point x="297" y="-19"/>
      <point x="360" y="13"/>
      <point x="403" y="69" type="curve" smooth="yes"/>
      <point x="439" y="118"/>
      <point x="463" y="187"/>
      <point x="463" y="246" type="curve" smooth="yes"/>
      <point x="463" y="305"/>
      <point x="443" y="342"/>
      <point x="394" y="374" type="curve"/>
      <point x="426" y="392"/>
      <point x="442" y="406"/>
      <point x="458" y="428" type="curve" smooth="yes"/>
      <point x="482" y="463"/>
      <point x="497" y="513"/>
      <point x="497" y="558" type="curve" smooth="yes"/>
      <point x="497" y="648"/>
      <point x="440" y="703"/>
      <point x="347" y="703" type="curve" smooth="yes"/>
      <point x="283" y="703"/>
      <point x="228" y="675"/>
      <point x="189" y="624" type="curve" smooth="yes"/>
      <point x="156" y="582"/>
      <point x="136" y="524"/>
      <point x="136" y="475" type="curve" smooth="yes"/>
      <point x="136" y="446"/>
      <point x="146" y="417"/>
      <point x="161" y="398" type="curve"/>
      <point x="168" y="390"/>
      <point x="177" y="383"/>
    </contour>
    <contour>
      <point x="286" y="330" type="curve" smooth="yes"/>
      <point x="347" y="330"/>
      <point x="384" y="292"/>
      <point x="384" y="229" type="curve" smooth="yes"/>
      <point x="384" y="128"/>
      <point x="327" y="60"/>
      <point x="242" y="60" type="curve" smooth="yes"/>
      <point x="176" y="60"/>
      <point x="140" y="97"/>
      <point x="140" y="165" type="curve" smooth="yes"/>
      <point x="140" y="259"/>
      <point x="203" y="330"/>
    </contour>
    <contour>
      <point x="332" y="624" type="curve" smooth="yes"/>
      <point x="387" y="624"/>
      <point x="421" y="593"/>
      <point x="421" y="541" type="curve" smooth="yes"/>
      <point x="421" y="468"/>
      <point x="364" y="406"/>
      <point x="296" y="406" type="curve" smooth="yes"/>
      <point x="247" y="406"/>
      <point x="212" y="441"/>
      <point x="212" y="491" type="curve" smooth="yes"/>
      <point x="212" y="567"/>
      <point x="263" y="624"/>
    </contour>
  </outline>
</glyph>
<glyph name="nine" format="1">
  <advance width="456"/>
  <unicode hex="0039"/>
  <outline>
    <contour>
      <point x="70" y="169" type="line"/>
      <point x="68" y="151"/>
      <point x="67" y="136"/>
      <point x="67" y="126" type="curve" smooth="yes"/>
      <point x="67" y="38"/>
      <point x="122" y="-19"/>
      <point x="207" y="-19" type="curve" smooth="yes"/>
      <point x="289" y="-19"/>
      <point x="359" y="35"/>
      <point x="411" y="138" type="curve" smooth="yes"/>
      <point x="463" y="241"/>
      <point x="499" y="392"/>
      <point x="499" y="504" type="curve" smooth="yes"/>
      <point x="499" y="633"/>
      <point x="444" y="703"/>
      <point x="344" y="703" type="curve" smooth="yes"/>
      <point x="279" y="703"/>
      <point x="223" y="673"/>
      <point x="179" y="615" type="curve" smooth="yes"/>
      <point x="136" y="558"/>
      <point x="110" y="478"/>
      <point x="110" y="402" type="curve" smooth="yes"/>
      <point x="110" y="300"/>
      <point x="166" y="235"/>
      <point x="255" y="235" type="curve" smooth="yes"/>
      <point x="318" y="235"/>
      <point x="370" y="266"/>
      <point x="406" y="325" type="curve"/>
      <point x="373" y="208"/>
      <point x="351" y="154"/>
      <point x="319" y="112" type="curve" smooth="yes"/>
      <point x="289" y="72"/>
      <point x="258" y="54"/>
      <point x="220" y="54" type="curve" smooth="yes"/>
      <point x="171" y="54"/>
      <point x="141" y="87"/>
      <point x="141" y="140" type="curve" smooth="yes"/>
      <point x="141" y="148"/>
      <point x="141" y="157"/>
      <point x="142" y="169" type="curve"/>
    </contour>
    <contour>
      <point x="331" y="624" type="curve" smooth="yes"/>
      <point x="389" y="624"/>
      <point x="423" y="585"/>
      <point x="423" y="518" type="curve" smooth="yes"/>
      <point x="423" y="468"/>
      <point x="407" y="410"/>
      <point x="383" y="374" type="curve" smooth="yes"/>
      <point x="357" y="334"/>
      <point x="321" y="314"/>
      <point x="277" y="314" type="curve" smooth="yes"/>
      <point x="218" y="314"/>
      <point x="186" y="349"/>
      <point x="186" y="415" type="curve" smooth="yes"/>
      <point x="186" y="532"/>
      <point x="250" y="624"/>
    </contour>
  </outline>
</glyph>
<glyph name="colon" format="1">
  <advance width="228"/>
  <unicode hex="003A"/>
  <outline>
    <contour>
      <point x="175" y="106" type="line"/>
      <point x="90" y="106" type="line"/>
      <point x="71" y="0" type="line"/>
      <point x="157" y="0" type="line"/>
    </contour>
    <contour>
      <point x="247" y="516" type="line"/>
      <point x="161" y="516" type="line"/>
      <point x="143" y="410" type="line"/>
      <point x="228" y="410" type="line"/>
    </contour>
  </outline>
</glyph>
<glyph name="semicolon" format="1">
  <advance width="228"/>
  <unicode hex="003B"/>
  <outline>
    <contour>
      <point x="72" y="0" type="line"/>
      <point x="115" y="0" type="line"/>
      <point x="103" y="-64"/>
      <point x="84" y="-97"/>
      <point x="54" y="-101" type="curve"/>
      <point x="46" y="-147" type="line"/>
      <point x="103" y="-136"/>
      <point x="142" y="-82"/>
      <point x="158" y="8" type="curve" smooth="yes"/>
      <point x="176" y="106" type="line"/>
      <point x="90" y="106" type="line"/>
    </contour>
    <contour>
      <point x="229" y="410" type="line"/>
      <point x="247" y="516" type="line"/>
      <point x="162" y="516" type="line"/>
      <point x="143" y="410" type="line"/>
    </contour>
  </outline>
</glyph>
<glyph name="less" format="1">
  <advance width="479"/>
  <unicode hex="003C"/>
  <outline>
    <contour>
      <point x="441" y="10" type="line"/>
      <point x="455" y="92" type="line"/>
      <point x="165" y="253" type="line"/>
      <point x="512" y="414" type="line"/>
      <point x="526" y="496" type="line"/>
      <point x="89" y="289" type="line"/>
      <point x="77" y="217" type="line"/>
    </contour>
  </outline>
</glyph>
<glyph name="equal" format="1">
  <advance width="479"/>
  <unicode hex="003D"/>
  <outline>
    <contour>
      <point x="515" y="390" type="line"/>
      <point x="100" y="390" type="line"/>
      <point x="87" y="317" type="line"/>
      <point x="502" y="317" type="line"/>
    </contour>
    <contour>
      <point x="480" y="188" type="line"/>
      <point x="65" y="188" type="line"/>
      <point x="52" y="115" type="line"/>
      <point x="467" y="115" type="line"/>
    </contour>
  </outline>
</glyph>
<glyph name="greater" format="1">
  <advance width="479"/>
  <unicode hex="003E"/>
  <outline>
    <contour>
      <point x="41" y="10" type="line"/>
      <point x="478" y="217" type="line"/>
      <point x="490" y="289" type="line"/>
      <point x="126" y="496" type="line"/>
      <point x="111" y="414" type="line"/>
      <point x="402" y="253" type="line"/>
      <point x="55" y="92" type="line"/>
    </contour>
  </outline>
</glyph>
<glyph name="question" format="1">
  <advance width="456"/>
  <unicode hex="003F"/>
  <outline>
    <contour>
      <point x="204" y="493" type="line"/>
      <point x="225" y="601"/>
      <point x="268" y="651"/>
      <point x="340" y="651" type="curve" smooth="yes"/>
      <point x="392" y="651"/>
      <point x="422" y="619"/>
      <point x="422" y="563" type="curve" smooth="yes"/>
      <point x="422" y="534"/>
      <point x="414" y="502"/>
      <point x="401" y="480" type="curve" smooth="yes"/>
      <point x="391" y="463"/>
      <point x="377" y="446"/>
      <point x="330" y="398" type="curve" smooth="yes"/>
      <point x="249" y="316"/>
      <point x="234" y="287"/>
      <point x="215" y="183" type="curve"/>
      <point x="287" y="183" type="line"/>
      <point x="302" y="271"/>
      <point x="315" y="294"/>
      <point x="390" y="366" type="curve" smooth="yes"/>
      <point x="431" y="406"/>
      <point x="452" y="429"/>
      <point x="467" y="452" type="curve" smooth="yes"/>
      <point x="488" y="486"/>
      <point x="500" y="531"/>
      <point x="500" y="576" type="curve" smooth="yes"/>
      <point x="500" y="668"/>
      <point x="444" y="727"/>
      <point x="356" y="727" type="curve" smooth="yes"/>
      <point x="301" y="727"/>
      <point x="247" y="702"/>
      <point x="204" y="658" type="curve" smooth="yes"/>
      <point x="167" y="618"/>
      <point x="151" y="582"/>
      <point x="132" y="493" type="curve"/>
    </contour>
    <contour>
      <point x="279" y="102" type="line"/>
      <point x="199" y="102" type="line"/>
      <point x="181" y="0" type="line"/>
      <point x="261" y="0" type="line"/>
    </contour>
  </outline>
</glyph>
<glyph name="at" format="1">
  <advance width="832"/>
  <unicode hex="0040"/>
  <outline>
    <contour>
      <point x="612" y="494" type="line"/>
      <point x="598" y="550"/>
      <point x="575" y="572"/>
      <point x="532" y="572" type="curve" smooth="yes"/>
      <point x="476" y="572"/>
      <point x="419" y="538"/>
      <point x="372" y="475" type="curve" smooth="yes"/>
      <point x="323" y="411"/>
      <point x="291" y="324"/>
      <point x="291" y="257" type="curve" smooth="yes"/>
      <point x="291" y="187"/>
      <point x="330" y="136"/>
      <point x="384" y="136" type="curve" smooth="yes"/>
      <point x="420" y="136"/>
      <point x="454" y="155"/>
      <point x="498" y="200" type="curve"/>
      <point x="497" y="193"/>
      <point x="497" y="188"/>
      <point x="497" y="183" type="curve" smooth="yes"/>
      <point x="497" y="155"/>
      <point x="514" y="136"/>
      <point x="538" y="136" type="curve" smooth="yes"/>
      <point x="588" y="136"/>
      <point x="657" y="181"/>
      <point x="707" y="246" type="curve" smooth="yes"/>
      <point x="760" y="315"/>
      <point x="791" y="404"/>
      <point x="791" y="487" type="curve" smooth="yes"/>
      <point x="791" y="632"/>
      <point x="694" y="737"/>
      <point x="560" y="737" type="curve" smooth="yes"/>
      <point x="361" y="737"/>
      <point x="176" y="517"/>
      <point x="176" y="280" type="curve" smooth="yes"/>
      <point x="176" y="105"/>
      <point x="281" y="-19"/>
      <point x="429" y="-19" type="curve" smooth="yes"/>
      <point x="499" y="-19"/>
      <point x="571" y="10"/>
      <point x="635" y="64" type="curve" smooth="yes"/>
      <point x="665" y="89"/>
      <point x="682" y="109"/>
      <point x="717" y="157" type="curve"/>
      <point x="662" y="157" type="line"/>
      <point x="590" y="80"/>
      <point x="520" y="43"/>
      <point x="442" y="43" type="curve" smooth="yes"/>
      <point x="320" y="43"/>
      <point x="236" y="143"/>
      <point x="236" y="286" type="curve" smooth="yes"/>
      <point x="236" y="490"/>
      <point x="384" y="675"/>
      <point x="549" y="675" type="curve" smooth="yes"/>
      <point x="660" y="675"/>
      <point x="736" y="593"/>
      <point x="736" y="474" type="curve" smooth="yes"/>
      <point x="736" y="352"/>
      <point x="647" y="201"/>
      <point x="576" y="201" type="curve" smooth="yes"/>
      <point x="567" y="201"/>
      <point x="563" y="206"/>
      <point x="563" y="217" type="curve" smooth="yes"/>
      <point x="563" y="234"/>
      <point x="571" y="257"/>
      <point x="628" y="392" type="curve" smooth="yes"/>
      <point x="695" y="556" type="line"/>
      <point x="639" y="556" type="line"/>
    </contour>
    <contour>
      <point x="520" y="500" type="curve" smooth="yes"/>
      <point x="552" y="498"/>
      <point x="573" y="470"/>
      <point x="573" y="429" type="curve" smooth="yes"/>
      <point x="573" y="400"/>
      <point x="562" y="363"/>
      <point x="541" y="322" type="curve" smooth="yes"/>
      <point x="505" y="252"/>
      <point x="456" y="208"/>
      <point x="413" y="208" type="curve" smooth="yes"/>
      <point x="381" y="208"/>
      <point x="360" y="236"/>
      <point x="360" y="278" type="curve" smooth="yes"/>
      <point x="360" y="375"/>
      <point x="453" y="504"/>
    </contour>
  </outline>
</glyph>
<glyph name="A" format="1">
  <advance width="547"/>
  <unicode hex="0041"/>
  <outline>
    <contour>
      <point x="427" y="209" type="line"/>
      <point x="449" y="0" type="line"/>
      <point x="536" y="0" type="line"/>
      <point x="448" y="718" type="line"/>
      <point x="358" y="718" type="line"/>
      <point x="11" y="0" type="line"/>
      <point x="93" y="0" type="line"/>
      <point x="191" y="209" type="line"/>
    </contour>
    <contour>
      <point x="231" y="295" type="line"/>
      <point x="381" y="614" type="line"/>
      <point x="414" y="295" type="line"/>
    </contour>
  </outline>
</glyph>
<glyph name="B" format="1">
  <advance width="547"/>
  <unicode hex="0042"/>
  <outline>
    <contour>
      <point x="61" y="0" type="line"/>
      <point x="314" y="0" type="line" smooth="yes"/>
      <point x="449" y="0"/>
      <point x="555" y="114"/>
      <point x="555" y="258" type="curve" smooth="yes"/>
      <point x="555" y="321"/>
      <point x="534" y="355"/>
      <point x="475" y="387" type="curve"/>
      <point x="517" y="412"/>
      <point x="539" y="434"/>
      <point x="558" y="472" type="curve" smooth="yes"/>
      <point x="574" y="503"/>
      <point x="583" y="542"/>
      <point x="583" y="577" type="curve" smooth="yes"/>
      <point x="583" y="665"/>
      <point x="531" y="718"/>
      <point x="445" y="718" type="curve" smooth="yes"/>
      <point x="186" y="718" type="line"/>
    </contour>
    <contour>
      <point x="251" y="635" type="line"/>
      <point x="395" y="635" type="line" smooth="yes"/>
      <point x="466" y="635"/>
      <point x="501" y="610"/>
      <point x="501" y="558" type="curve" smooth="yes"/>
      <point x="501" y="526"/>
      <point x="490" y="488"/>
      <point x="475" y="465" type="curve" smooth="yes"/>
      <point x="451" y="431"/>
      <point x="413" y="414"/>
      <point x="356" y="414" type="curve" smooth="yes"/>
      <point x="212" y="414" type="line"/>
    </contour>
    <contour>
      <point x="199" y="335" type="line"/>
      <point x="355" y="335" type="line" smooth="yes"/>
      <point x="434" y="335"/>
      <point x="474" y="305"/>
      <point x="474" y="244" type="curve" smooth="yes"/>
      <point x="474" y="149"/>
      <point x="413" y="83"/>
      <point x="324" y="83" type="curve" smooth="yes"/>
      <point x="155" y="83" type="line"/>
    </contour>
  </outline>
</glyph>
<glyph name="C" format="1">
  <advance width="592"/>
  <unicode hex="0043"/>
  <outline>
    <contour>
      <point x="639" y="502" type="line"/>
      <point x="640" y="513"/>
      <point x="640" y="521"/>
      <point x="640" y="528" type="curve" smooth="yes"/>
      <point x="640" y="656"/>
      <point x="562" y="737"/>
      <point x="439" y="737" type="curve" smooth="yes"/>
      <point x="346" y="737"/>
      <point x="262" y="692"/>
      <point x="198" y="607" type="curve" smooth="yes"/>
      <point x="130" y="518"/>
      <point x="88" y="377"/>
      <point x="88" y="242" type="curve" smooth="yes"/>
      <point x="88" y="79"/>
      <point x="166" y="-19"/>
      <point x="297" y="-19" type="curve" smooth="yes"/>
      <point x="362" y="-19"/>
      <point x="427" y="6"/>
      <point x="480" y="53" type="curve" smooth="yes"/>
      <point x="533" y="99"/>
      <point x="563" y="149"/>
      <point x="604" y="264" type="curve"/>
      <point x="527" y="264" type="line"/>
      <point x="504" y="202"/>
      <point x="488" y="172"/>
      <point x="462" y="140" type="curve" smooth="yes"/>
      <point x="421" y="91"/>
      <point x="375" y="67"/>
      <point x="319" y="67" type="curve" smooth="yes"/>
      <point x="223" y="67"/>
      <point x="171" y="134"/>
      <point x="171" y="255" type="curve" smooth="yes"/>
      <point x="171" y="360"/>
      <point x="201" y="475"/>
      <point x="247" y="543" type="curve" smooth="yes"/>
      <point x="293" y="613"/>
      <point x="356" y="651"/>
      <point x="425" y="651" type="curve" smooth="yes"/>
      <point x="467" y="651"/>
      <point x="503" y="637"/>
      <point x="526" y="612" type="curve" smooth="yes"/>
      <point x="551" y="586"/>
      <point x="560" y="559"/>
      <point x="562" y="502" type="curve"/>
    </contour>
  </outline>
</glyph>
<glyph name="F" format="1">
  <advance width="501"/>
  <unicode hex="0046"/>
  <outline>
    <contour>
      <point x="207" y="326" type="line"/>
      <point x="495" y="326" type="line"/>
      <point x="510" y="412" type="line"/>
      <point x="222" y="412" type="line"/>
      <point x="260" y="632" type="line"/>
      <point x="588" y="632" type="line"/>
      <point x="603" y="718" type="line"/>
      <point x="196" y="718" type="line"/>
      <point x="71" y="0" type="line"/>
      <point x="150" y="0" type="line"/>
    </contour>
  </outline>
</glyph>
<glyph name="G" format="1">
  <advance width="638"/>
  <unicode hex="0047"/>
  <outline>
    <contour>
      <point x="372" y="301" type="line"/>
      <point x="555" y="301" type="line"/>
      <point x="539" y="215"/>
      <point x="519" y="171"/>
      <point x="478" y="129" type="curve" smooth="yes"/>
      <point x="436" y="85"/>
      <point x="387" y="64"/>
      <point x="331" y="64" type="curve" smooth="yes"/>
      <point x="228" y="64"/>
      <point x="175" y="128"/>
      <point x="175" y="252" type="curve" smooth="yes"/>
      <point x="175" y="476"/>
      <point x="288" y="651"/>
      <point x="432" y="651" type="curve" smooth="yes"/>
      <point x="474" y="651"/>
      <point x="513" y="636"/>
      <point x="538" y="612" type="curve" smooth="yes"/>
      <point x="564" y="585"/>
      <point x="574" y="557"/>
      <point x="578" y="500" type="curve"/>
      <point x="655" y="500" type="line"/>
      <point x="655" y="524" type="line" smooth="yes"/>
      <point x="655" y="651"/>
      <point x="570" y="737"/>
      <point x="445" y="737" type="curve" smooth="yes"/>
      <point x="354" y="737"/>
      <point x="270" y="690"/>
      <point x="203" y="602" type="curve" smooth="yes"/>
      <point x="136" y="513"/>
      <point x="91" y="370"/>
      <point x="91" y="246" type="curve" smooth="yes"/>
      <point x="91" y="168"/>
      <point x="113" y="100"/>
      <point x="155" y="47" type="curve" smooth="yes"/>
      <point x="190" y="3"/>
      <point x="240" y="-19"/>
      <point x="305" y="-19" type="curve" smooth="yes"/>
      <point x="390" y="-19"/>
      <point x="458" y="16"/>
      <point x="523" y="93" type="curve"/>
      <point x="526" y="0" type="line"/>
      <point x="578" y="0" type="line"/>
      <point x="644" y="384" type="line"/>
      <point x="386" y="384" type="line"/>
    </contour>
  </outline>
</glyph>
<glyph name="H" format="1">
  <advance width="592"/>
  <unicode hex="0048"/>
  <outline>
    <contour>
      <point x="524" y="421" type="line"/>
      <point x="216" y="421" type="line"/>
      <point x="268" y="718" type="line"/>
      <point x="188" y="718" type="line"/>
      <point x="63" y="0" type="line"/>
      <point x="143" y="0" type="line"/>
      <point x="201" y="335" type="line"/>
      <point x="509" y="335" type="line"/>
      <point x="450" y="0" type="line"/>
      <point x="530" y="0" type="line"/>
      <point x="655" y="718" type="line"/>
      <point x="575" y="718" type="line"/>
    </contour>
  </outline>
</glyph>
<glyph name="I" format="1">
  <advance width="228"/>
  <unicode hex="0049"/>
  <outline>
    <contour>
      <point x="279" y="718" type="line"/>
      <point x="200" y="718" type="line"/>
      <point x="75" y="0" type="line"/>
      <point x="154" y="0" type="line"/>
    </contour>
  </outline>
</glyph>
<glyph name="J" format="1">
  <advance width="410"/>
  <unicode hex="004A"/>
  <outline>
    <contour>
      <point x="55" y="231" type="line"/>
      <point x="42" y="160" type="line" smooth="yes"/>
      <point x="40" y="147"/>
      <point x="39" y="133"/>
      <point x="39" y="120" type="curve" smooth="yes"/>
      <point x="39" y="31"/>
      <point x="89" y="-19"/>
      <point x="178" y="-19" type="curve" smooth="yes"/>
      <point x="286" y="-19"/>
      <point x="361" y="58"/>
      <point x="385" y="194" type="curve" smooth="yes"/>
      <point x="476" y="718" type="line"/>
      <point x="397" y="718" type="line"/>
      <point x="304" y="188" type="line" smooth="yes"/>
      <point x="290" y="104"/>
      <point x="252" y="64"/>
      <point x="189" y="64" type="curve" smooth="yes"/>
      <point x="141" y="64"/>
      <point x="117" y="89"/>
      <point x="117" y="139" type="curve" smooth="yes"/>
      <point x="117" y="154"/>
      <point x="118" y="167"/>
      <point x="121" y="181" type="curve"/>
      <point x="129" y="231" type="line"/>
    </contour>
  </outline>
</glyph>
<glyph name="K" format="1">
  <advance width="547"/>
  <unicode hex="004B"/>
  <outline>
    <contour>
      <point x="185" y="252" type="line"/>
      <point x="297" y="360" type="line"/>
      <point x="440" y="0" type="line"/>
      <point x="543" y="0" type="line"/>
      <point x="366" y="428" type="line"/>
      <point x="662" y="718" type="line"/>
      <point x="552" y="718" type="line"/>
      <point x="206" y="370" type="line"/>
      <point x="267" y="718" type="line"/>
      <point x="187" y="718" type="line"/>
      <point x="62" y="0" type="line"/>
      <point x="142" y="0" type="line"/>
    </contour>
  </outline>
</glyph>
<glyph name="L" format="1">
  <advance width="456"/>
  <unicode hex="004C"/>
  <outline>
    <contour>
      <point x="267" y="718" type="line"/>
      <point x="187" y="718" type="line"/>
      <point x="62" y="0" type="line"/>
      <point x="440" y="0" type="line"/>
      <point x="455" y="86" type="line"/>
      <point x="157" y="86" type="line"/>
    </contour>
  </outline>
</glyph>
<glyph name="M" format="1">
  <advance width="683"/>
  <unicode hex="004D"/>
  <outline>
    <contour>
      <point x="624" y="0" type="line"/>
      <point x="749" y="718" type="line"/>
      <point x="636" y="718" type="line"/>
      <point x="362" y="108" type="line"/>
      <point x="299" y="718" type="line"/>
      <point x="185" y="718" type="line"/>
      <point x="60" y="0" type="line"/>
      <point x="137" y="0" type="line"/>
      <point x="211" y="424" type="line" smooth="yes"/>
      <point x="212" y="432"/>
      <point x="215" y="448"/>
      <point x="218" y="470" type="curve"/>
      <point x="222" y="490"/>
      <point x="230" y="544"/>
      <point x="241" y="608" type="curve"/>
      <point x="303" y="0" type="line"/>
      <point x="381" y="0" type="line"/>
      <point x="655" y="609" type="line"/>
      <point x="643" y="547"/>
      <point x="633" y="487"/>
      <point x="629" y="469" type="curve" smooth="yes"/>
      <point x="625" y="448"/>
      <point x="621" y="424"/>
      <point x="621" y="424" type="curve"/>
      <point x="547" y="0" type="line"/>
    </contour>
  </outline>
</glyph>
<glyph name="P" format="1">
  <advance width="547"/>
  <unicode hex="0050"/>
  <outline>
    <contour>
      <point x="203" y="303" type="line"/>
      <point x="388" y="303" type="line" smooth="yes"/>
      <point x="451" y="303"/>
      <point x="504" y="330"/>
      <point x="544" y="383" type="curve" smooth="yes"/>
      <point x="581" y="432"/>
      <point x="604" y="501"/>
      <point x="604" y="565" type="curve" smooth="yes"/>
      <point x="604" y="659"/>
      <point x="549" y="718"/>
      <point x="461" y="718" type="curve" smooth="yes"/>
      <point x="196" y="718" type="line"/>
      <point x="71" y="0" type="line"/>
      <point x="150" y="0" type="line"/>
    </contour>
    <contour>
      <point x="261" y="635" type="line"/>
      <point x="422" y="635" type="line" smooth="yes"/>
      <point x="487" y="635"/>
      <point x="521" y="606"/>
      <point x="521" y="549" type="curve" smooth="yes"/>
      <point x="521" y="512"/>
      <point x="509" y="467"/>
      <point x="491" y="440" type="curve" smooth="yes"/>
      <point x="466" y="404"/>
      <point x="429" y="386"/>
      <point x="376" y="386" type="curve" smooth="yes"/>
      <point x="218" y="386" type="line"/>
    </contour>
  </outline>
</glyph>
<glyph name="Q" format="1">
  <advance width="638"/>
  <unicode hex="0051"/>
  <outline>
    <contour>
      <point x="601" y="2" type="line"/>
      <point x="534" y="78" type="line"/>
      <point x="582" y="132"/>
      <point x="602" y="162"/>
      <point x="627" y="220" type="curve" smooth="yes"/>
      <point x="660" y="296"/>
      <point x="677" y="377"/>
      <point x="677" y="456" type="curve" smooth="yes"/>
      <point x="677" y="545"/>
      <point x="650" y="631"/>
      <point x="607" y="676" type="curve" smooth="yes"/>
      <point x="570" y="715"/>
      <point x="512" y="737"/>
      <point x="447" y="737" type="curve" smooth="yes"/>
      <point x="348" y="737"/>
      <point x="264" y="692"/>
      <point x="197" y="603" type="curve" smooth="yes"/>
      <point x="127" y="511"/>
      <point x="86" y="384"/>
      <point x="86" y="261" type="curve" smooth="yes"/>
      <point x="86" y="173"/>
      <point x="113" y="87"/>
      <point x="156" y="42" type="curve" smooth="yes"/>
      <point x="193" y="3"/>
      <point x="251" y="-19"/>
      <point x="316" y="-19" type="curve" smooth="yes"/>
      <point x="375" y="-19"/>
      <point x="422" y="-5"/>
      <point x="476" y="29" type="curve"/>
      <point x="551" y="-56" type="line"/>
    </contour>
    <contour>
      <point x="370" y="148" type="line"/>
      <point x="422" y="90" type="line"/>
      <point x="390" y="74"/>
      <point x="363" y="67"/>
      <point x="331" y="67" type="curve" smooth="yes"/>
      <point x="230" y="67"/>
      <point x="169" y="145"/>
      <point x="169" y="274" type="curve" smooth="yes"/>
      <point x="169" y="482"/>
      <point x="287" y="651"/>
      <point x="433" y="651" type="curve" smooth="yes"/>
      <point x="533" y="651"/>
      <point x="594" y="573"/>
      <point x="594" y="443" type="curve" smooth="yes"/>
      <point x="594" y="381"/>
      <point x="581" y="314"/>
      <point x="558" y="255" type="curve" smooth="yes"/>
      <point x="538" y="206"/>
      <point x="521" y="179"/>
      <point x="483" y="137" type="curve"/>
      <point x="421" y="208" type="line"/>
    </contour>
  </outline>
</glyph>
<glyph name="R" format="1">
  <advance width="592"/>
  <unicode hex="0052"/>
  <outline>
    <contour>
      <point x="205" y="308" type="line"/>
      <point x="398" y="308" type="line" smooth="yes"/>
      <point x="455" y="308"/>
      <point x="486" y="281"/>
      <point x="486" y="230" type="curve" smooth="yes"/>
      <point x="486" y="217"/>
      <point x="484" y="200"/>
      <point x="481" y="180" type="curve" smooth="yes"/>
      <point x="470" y="115"/>
      <point x="463" y="48"/>
      <point x="463" y="17" type="curve" smooth="yes"/>
      <point x="463" y="0" type="line"/>
      <point x="561" y="0" type="line"/>
      <point x="564" y="16" type="line"/>
      <point x="549" y="29"/>
      <point x="544" y="38"/>
      <point x="544" y="54" type="curve" smooth="yes"/>
      <point x="544" y="63"/>
      <point x="545" y="74"/>
      <point x="547" y="88" type="curve" smooth="yes"/>
      <point x="565" y="218" type="line" smooth="yes"/>
      <point x="567" y="233"/>
      <point x="568" y="251"/>
      <point x="568" y="263" type="curve" smooth="yes"/>
      <point x="568" y="312"/>
      <point x="557" y="331"/>
      <point x="518" y="353" type="curve"/>
      <point x="555" y="378"/>
      <point x="572" y="393"/>
      <point x="590" y="420" type="curve" smooth="yes"/>
      <point x="617" y="459"/>
      <point x="634" y="520"/>
      <point x="634" y="575" type="curve" smooth="yes"/>
      <point x="634" y="668"/>
      <point x="577" y="718"/>
      <point x="470" y="718" type="curve" smooth="yes"/>
      <point x="197" y="718" type="line"/>
      <point x="72" y="0" type="line"/>
      <point x="152" y="0" type="line"/>
    </contour>
    <contour>
      <point x="262" y="635" type="line"/>
      <point x="461" y="635" type="line" smooth="yes"/>
      <point x="521" y="635"/>
      <point x="549" y="608"/>
      <point x="549" y="552" type="curve" smooth="yes"/>
      <point x="549" y="514"/>
      <point x="537" y="470"/>
      <point x="520" y="444" type="curve" smooth="yes"/>
      <point x="496" y="408"/>
      <point x="459" y="391"/>
      <point x="404" y="391" type="curve" smooth="yes"/>
      <point x="220" y="391" type="line"/>
    </contour>
  </outline>
</glyph>
<glyph name="S" format="1">
  <advance width="547"/>
  <unicode hex="0053"/>
  <outline>
    <contour>
      <point x="580" y="508" type="line"/>
      <point x="583" y="532"/>
      <point x="584" y="554"/>
      <point x="584" y="569" type="curve" smooth="yes"/>
      <point x="584" y="674"/>
      <point x="515" y="737"/>
      <point x="398" y="737" type="curve" smooth="yes"/>
      <point x="315" y="737"/>
      <point x="251" y="706"/>
      <point x="205" y="645" type="curve" smooth="yes"/>
      <point x="169" y="598"/>
      <point x="146" y="532"/>
      <point x="146" y="475" type="curve" smooth="yes"/>
      <point x="146" y="410"/>
      <point x="180" y="366"/>
      <point x="246" y="346" type="curve" smooth="yes"/>
      <point x="360" y="312" type="line" smooth="yes"/>
      <point x="441" y="288"/>
      <point x="467" y="265"/>
      <point x="467" y="217" type="curve" smooth="yes"/>
      <point x="467" y="123"/>
      <point x="399" y="64"/>
      <point x="291" y="64" type="curve" smooth="yes"/>
      <point x="205" y="64"/>
      <point x="152" y="110"/>
      <point x="152" y="186" type="curve" smooth="yes"/>
      <point x="152" y="197"/>
      <point x="153" y="214"/>
      <point x="156" y="232" type="curve"/>
      <point x="81" y="232" type="line"/>
      <point x="76" y="202"/>
      <point x="74" y="176"/>
      <point x="74" y="157" type="curve" smooth="yes"/>
      <point x="74" y="120"/>
      <point x="87" y="82"/>
      <point x="109" y="50" type="curve" smooth="yes"/>
      <point x="144" y="2"/>
      <point x="193" y="-19"/>
      <point x="272" y="-19" type="curve" smooth="yes"/>
      <point x="435" y="-19"/>
      <point x="547" y="89"/>
      <point x="547" y="246" type="curve" smooth="yes"/>
      <point x="547" y="320"/>
      <point x="511" y="370"/>
      <point x="442" y="390" type="curve" smooth="yes"/>
      <point x="283" y="437" type="line" smooth="yes"/>
      <point x="245" y="448"/>
      <point x="227" y="470"/>
      <point x="227" y="506" type="curve" smooth="yes"/>
      <point x="227" y="593"/>
      <point x="292" y="654"/>
      <point x="384" y="654" type="curve" smooth="yes"/>
      <point x="460" y="654"/>
      <point x="507" y="611"/>
      <point x="507" y="541" type="curve" smooth="yes"/>
      <point x="507" y="532"/>
      <point x="506" y="521"/>
      <point x="505" y="508" type="curve"/>
    </contour>
  </outline>
</glyph>
<glyph name="V" format="1">
  <advance width="547"/>
  <unicode hex="0056"/>
  <outline>
    <contour>
      <point x="292" y="103" type="line"/>
      <point x="231" y="718" type="line"/>
      <point x="142" y="718" type="line"/>
      <point x="232" y="0" type="line"/>
      <point x="316" y="0" type="line"/>
      <point x="656" y="718" type="line"/>
      <point x="567" y="718" type="line"/>
    </contour>
  </outline>
</glyph>
<glyph name="W" format="1">
  <advance width="774"/>
  <unicode hex="0057"/>
  <outline>
    <contour>
      <point x="491" y="599" type="line"/>
      <point x="522" y="0" type="line"/>
      <point x="606" y="0" type="line"/>
      <point x="886" y="718" type="line"/>
      <point x="798" y="718" type="line"/>
      <point x="585" y="130" type="line"/>
      <point x="555" y="718" type="line"/>
      <point x="468" y="718" type="line"/>
      <point x="232" y="130" type="line"/>
      <point x="224" y="718" type="line"/>
      <point x="138" y="718" type="line"/>
      <point x="166" y="0" type="line"/>
      <point x="250" y="0" type="line"/>
    </contour>
  </outline>
</glyph>
<glyph name="Y" format="1">
  <advance width="547"/>
  <unicode hex="0059"/>
  <outline>
    <contour>
      <point x="364" y="289" type="line"/>
      <point x="661" y="718" type="line"/>
      <point x="568" y="718" type="line"/>
      <point x="338" y="373" type="line"/>
      <point x="230" y="718" type="line"/>
      <point x="137" y="718" type="line"/>
      <point x="284" y="289" type="line"/>
      <point x="234" y="0" type="line"/>
      <point x="314" y="0" type="line"/>
    </contour>
  </outline>
</glyph>
<glyph name="bracketleft" format="1">
  <advance width="228"/>
  <unicode hex="005B"/>
  <outline>
    <contour>
      <point x="230" y="651" type="line"/>
      <point x="319" y="651" type="line"/>
      <point x="331" y="722" type="line"/>
      <point x="177" y="722" type="line"/>
      <point x="17" y="-196" type="line"/>
      <point x="171" y="-196" type="line"/>
      <point x="183" y="-125" type="line"/>
      <point x="94" y="-125" type="line"/>
    </contour>
  </outline>
</glyph>
<glyph name="backslash" format="1">
  <advance width="228"/>
  <unicode hex="005C"/>
  <outline>
    <contour>
      <point x="184" y="-19" type="line"/>
      <point x="239" y="-19" type="line"/>
      <point x="169" y="737" type="line"/>
      <point x="115" y="737" type="line"/>
    </contour>
  </outline>
</glyph>
<glyph name="bracketright" format="1">
  <advance width="228"/>
  <unicode hex="005D"/>
  <outline>
    <contour>
      <point x="90" y="-125" type="line"/>
      <point x="1" y="-125" type="line"/>
      <point x="-11" y="-196" type="line"/>
      <point x="142" y="-196" type="line"/>
      <point x="302" y="722" type="line"/>
      <point x="149" y="722" type="line"/>
      <point x="136" y="651" type="line"/>
      <point x="225" y="651" type="line"/>
    </contour>
  </outline>
</glyph>
<glyph name="asciicircum" format="1">
  <advance width="385"/>
  <unicode hex="005E"/>
  <outline>
    <contour>
      <point x="442" y="264" type="line"/>
      <point x="342" y="688" type="line"/>
      <point x="283" y="688" type="line"/>
      <point x="35" y="264" type="line"/>
      <point x="99" y="264" type="line"/>
      <point x="299" y="608" type="line"/>
      <point x="379" y="264" type="line"/>
    </contour>
  </outline>
</glyph>
<glyph name="grave" format="1">
  <advance width="273"/>
  <unicode hex="0060"/>
  <outline>
    <contour>
      <point x="221" y="593" type="line"/>
      <point x="276" y="593" type="line"/>
      <point x="228" y="734" type="line"/>
      <point x="139" y="734" type="line"/>
    </contour>
  </outline>
</glyph>
<glyph name="a" format="1">
  <advance width="456"/>
  <unicode hex="0061"/>
  <outline>
    <contour>
      <point x="180" y="364" type="line"/>
      <point x="203" y="438"/>
      <point x="235" y="465"/>
      <point x="298" y="465" type="curve" smooth="yes"/>
      <point x="354" y="465"/>
      <point x="384" y="442"/>
      <point x="384" y="400" type="curve" smooth="yes"/>
      <point x="384" y="353"/>
      <point x="366" y="323"/>
      <point x="334" y="318" type="curve" smooth="yes"/>
      <point x="212" y="300" type="line" smooth="yes"/>
      <point x="115" y="286"/>
      <point x="50" y="206"/>
      <point x="50" y="101" type="curve" smooth="yes"/>
      <point x="50" y="29"/>
      <point x="93" y="-15"/>
      <point x="164" y="-15" type="curve" smooth="yes"/>
      <point x="225" y="-15"/>
      <point x="274" y="10"/>
      <point x="331" y="70" type="curve"/>
      <point x="330" y="61"/>
      <point x="329" y="51"/>
      <point x="329" y="46" type="curve" smooth="yes"/>
      <point x="329" y="10"/>
      <point x="351" y="-10"/>
      <point x="391" y="-10" type="curve" smooth="yes"/>
      <point x="402" y="-10"/>
      <point x="409" y="-9"/>
      <point x="425" y="-3" type="curve" smooth="yes"/>
      <point x="434" y="0" type="line"/>
      <point x="446" y="64" type="line"/>
      <point x="433" y="61"/>
      <point x="426" y="60"/>
      <point x="420" y="60" type="curve" smooth="yes"/>
      <point x="408" y="60"/>
      <point x="400" y="69"/>
      <point x="401" y="80" type="curve"/>
      <point x="401" y="81"/>
      <point x="402" y="85"/>
      <point x="403" y="91" type="curve" smooth="yes"/>
      <point x="455" y="392" type="line" smooth="yes"/>
      <point x="457" y="402"/>
      <point x="458" y="413"/>
      <point x="458" y="423" type="curve" smooth="yes"/>
      <point x="458" y="495"/>
      <point x="405" y="538"/>
      <point x="316" y="538" type="curve" smooth="yes"/>
      <point x="250" y="538"/>
      <point x="193" y="513"/>
      <point x="159" y="469" type="curve" smooth="yes"/>
      <point x="137" y="441"/>
      <point x="126" y="416"/>
      <point x="114" y="364" type="curve"/>
    </contour>
    <contour>
      <point x="346" y="181" type="line" smooth="yes"/>
      <point x="335" y="114"/>
      <point x="263" y="58"/>
      <point x="190" y="58" type="curve" smooth="yes"/>
      <point x="149" y="58"/>
      <point x="127" y="80"/>
      <point x="127" y="121" type="curve" smooth="yes"/>
      <point x="127" y="187"/>
      <point x="160" y="221"/>
      <point x="236" y="234" type="curve" smooth="yes"/>
      <point x="322" y="248"/>
      <point x="344" y="253"/>
      <point x="361" y="267" type="curve"/>
    </contour>
  </outline>
</glyph>
<glyph name="b" format="1">
  <advance width="456"/>
  <unicode hex="0062"/>
  <outline>
    <contour>
      <point x="116" y="0" type="line"/>
      <point x="128" y="68" type="line"/>
      <point x="149" y="8"/>
      <point x="179" y="-15"/>
      <point x="234" y="-15" type="curve" smooth="yes"/>
      <point x="295" y="-15"/>
      <point x="348" y="15"/>
      <point x="391" y="73" type="curve" smooth="yes"/>
      <point x="445" y="145"/>
      <point x="479" y="256"/>
      <point x="479" y="355" type="curve" smooth="yes"/>
      <point x="479" y="468"/>
      <point x="426" y="538"/>
      <point x="341" y="538" type="curve" smooth="yes"/>
      <point x="288" y="538"/>
      <point x="247" y="514"/>
      <point x="199" y="455" type="curve"/>
      <point x="245" y="718" type="line"/>
      <point x="173" y="718" type="line"/>
      <point x="48" y="0" type="line"/>
    </contour>
    <contour>
      <point x="313" y="459" type="curve" smooth="yes"/>
      <point x="371" y="459"/>
      <point x="404" y="419"/>
      <point x="404" y="348" type="curve" smooth="yes"/>
      <point x="404" y="281"/>
      <point x="386" y="199"/>
      <point x="359" y="147" type="curve" smooth="yes"/>
      <point x="331" y="92"/>
      <point x="290" y="61"/>
      <point x="245" y="61" type="curve" smooth="yes"/>
      <point x="189" y="61"/>
      <point x="153" y="107"/>
      <point x="153" y="179" type="curve" smooth="yes"/>
      <point x="153" y="240"/>
      <point x="173" y="323"/>
      <point x="200" y="378" type="curve" smooth="yes"/>
      <point x="227" y="431"/>
      <point x="266" y="459"/>
    </contour>
  </outline>
</glyph>
<glyph name="e" format="1">
  <advance width="456"/>
  <unicode hex="0065"/>
  <outline>
    <contour>
      <point x="373" y="164" type="line"/>
      <point x="355" y="104"/>
      <point x="300" y="61"/>
      <point x="242" y="61" type="curve" smooth="yes"/>
      <point x="181" y="61"/>
      <point x="144" y="103"/>
      <point x="144" y="171" type="curve" smooth="yes"/>
      <point x="144" y="187"/>
      <point x="146" y="208"/>
      <point x="150" y="233" type="curve"/>
      <point x="463" y="233" type="line"/>
      <point x="470" y="282"/>
      <point x="474" y="323"/>
      <point x="474" y="354" type="curve" smooth="yes"/>
      <point x="474" y="399"/>
      <point x="461" y="449"/>
      <point x="442" y="482" type="curve" smooth="yes"/>
      <point x="421" y="518"/>
      <point x="380" y="538"/>
      <point x="329" y="538" type="curve" smooth="yes"/>
      <point x="261" y="538"/>
      <point x="199" y="505"/>
      <point x="153" y="443" type="curve" smooth="yes"/>
      <point x="102" y="375"/>
      <point x="69" y="269"/>
      <point x="69" y="172" type="curve" smooth="yes"/>
      <point x="69" y="53"/>
      <point x="126" y="-15"/>
      <point x="226" y="-15" type="curve" smooth="yes"/>
      <point x="326" y="-15"/>
      <point x="407" y="51"/>
      <point x="445" y="164" type="curve"/>
    </contour>
    <contour>
      <point x="162" y="303" type="line"/>
      <point x="183" y="396"/>
      <point x="243" y="459"/>
      <point x="312" y="459" type="curve" smooth="yes"/>
      <point x="368" y="459"/>
      <point x="403" y="417"/>
      <point x="403" y="350" type="curve" smooth="yes"/>
      <point x="403" y="337"/>
      <point x="402" y="321"/>
      <point x="401" y="303" type="curve"/>
    </contour>
  </outline>
</glyph>
<glyph name="g" format="1">
  <advance width="456"/>
  <unicode hex="0067"/>
  <outline>
    <contour>
      <point x="500" y="523" type="line"/>
      <point x="432" y="523" type="line"/>
      <point x="418" y="446" type="line"/>
      <point x="391" y="514"/>
      <point x="361" y="538"/>
      <point x="303" y="538" type="curve" smooth="yes"/>
      <point x="175" y="538"/>
      <point x="72" y="381"/>
      <point x="72" y="184" type="curve" smooth="yes"/>
      <point x="72" y="58"/>
      <point x="125" y="-15"/>
      <point x="216" y="-15" type="curve" smooth="yes"/>
      <point x="270" y="-15"/>
      <point x="309" y="7"/>
      <point x="347" y="58" type="curve"/>
      <point x="343" y="37" type="line" smooth="yes"/>
      <point x="332" y="-27"/>
      <point x="321" y="-60"/>
      <point x="302" y="-88" type="curve" smooth="yes"/>
      <point x="276" y="-128"/>
      <point x="238" y="-147"/>
      <point x="188" y="-147" type="curve" smooth="yes"/>
      <point x="133" y="-147"/>
      <point x="109" y="-122"/>
      <point x="106" y="-64" type="curve"/>
      <point x="34" y="-64" type="line"/>
      <point x="34" y="-74" type="line" smooth="yes"/>
      <point x="34" y="-133"/>
      <point x="44" y="-162"/>
      <point x="72" y="-188" type="curve" smooth="yes"/>
      <point x="96" y="-209"/>
      <point x="130" y="-220"/>
      <point x="173" y="-220" type="curve" smooth="yes"/>
      <point x="247" y="-220"/>
      <point x="309" y="-191"/>
      <point x="350" y="-136" type="curve" smooth="yes"/>
      <point x="382" y="-93"/>
      <point x="402" y="-41"/>
      <point x="416" y="43" type="curve" smooth="yes"/>
    </contour>
    <contour>
      <point x="302" y="459" type="curve" smooth="yes"/>
      <point x="361" y="459"/>
      <point x="391" y="417"/>
      <point x="391" y="334" type="curve" smooth="yes"/>
      <point x="391" y="257"/>
      <point x="370" y="170"/>
      <point x="341" y="128" type="curve" smooth="yes"/>
      <point x="313" y="85"/>
      <point x="272" y="61"/>
      <point x="232" y="61" type="curve" smooth="yes"/>
      <point x="178" y="61"/>
      <point x="146" y="107"/>
      <point x="146" y="185" type="curve" smooth="yes"/>
      <point x="146" y="253"/>
      <point x="162" y="329"/>
      <point x="188" y="380" type="curve" smooth="yes"/>
      <point x="212" y="430"/>
      <point x="254" y="459"/>
    </contour>
  </outline>
</glyph>
<glyph name="h" format="1">
  <advance width="456"/>
  <unicode hex="0068"/>
  <outline>
    <contour>
      <point x="251" y="718" type="line"/>
      <point x="178" y="718" type="line"/>
      <point x="53" y="0" type="line"/>
      <point x="125" y="0" type="line"/>
      <point x="175" y="285" type="line" smooth="yes"/>
      <point x="194" y="396"/>
      <point x="250" y="459"/>
      <point x="327" y="459" type="curve" smooth="yes"/>
      <point x="373" y="459"/>
      <point x="395" y="437"/>
      <point x="395" y="390" type="curve" smooth="yes"/>
      <point x="395" y="378"/>
      <point x="393" y="358"/>
      <point x="390" y="342" type="curve" smooth="yes"/>
      <point x="331" y="0" type="line"/>
      <point x="403" y="0" type="line"/>
      <point x="465" y="356" type="line" smooth="yes"/>
      <point x="468" y="375"/>
      <point x="470" y="393"/>
      <point x="470" y="410" type="curve" smooth="yes"/>
      <point x="470" y="491"/>
      <point x="426" y="538"/>
      <point x="351" y="538" type="curve" smooth="yes"/>
      <point x="294" y="538"/>
      <point x="257" y="516"/>
      <point x="204" y="451" type="curve"/>
    </contour>
  </outline>
</glyph>
<glyph name="i" format="1">
  <advance width="182"/>
  <unicode hex="0069"/>
  <outline>
    <contour>
      <point x="218" y="523" type="line"/>
      <point x="146" y="523" type="line"/>
      <point x="55" y="0" type="line"/>
      <point x="127" y="0" type="line"/>
    </contour>
    <contour>
      <point x="235" y="618" type="line"/>
      <point x="252" y="718" type="line"/>
      <point x="180" y="718" type="line"/>
      <point x="163" y="618" type="line"/>
    </contour>
  </outline>
</glyph>
<glyph name="j" format="1">
  <advance width="182"/>
  <unicode hex="006A"/>
  <outline>
    <contour>
      <point x="218" y="523" type="line"/>
      <point x="146" y="523" type="line"/>
      <point x="43" y="-67" type="line" smooth="yes"/>
      <point x="34" y="-122"/>
      <point x="25" y="-131"/>
      <point x="-21" y="-131" type="curve" smooth="yes"/>
      <point x="-36" y="-131" type="line"/>
      <point x="-49" y="-207" type="line"/>
      <point x="-38" y="-209"/>
      <point x="-28" y="-210"/>
      <point x="-17" y="-210" type="curve" smooth="yes"/>
      <point x="57" y="-210"/>
      <point x="98" y="-168"/>
      <point x="114" y="-77" type="curve" smooth="yes"/>
    </contour>
    <contour>
      <point x="252" y="718" type="line"/>
      <point x="180" y="718" type="line"/>
      <point x="163" y="618" type="line"/>
      <point x="235" y="618" type="line"/>
    </contour>
  </outline>
</glyph>
<glyph name="k" format="1">
  <advance width="410"/>
  <unicode hex="006B"/>
  <outline>
    <contour>
      <point x="294" y="328" type="line"/>
      <point x="492" y="523" type="line"/>
      <point x="400" y="523" type="line"/>
      <point x="177" y="302" type="line"/>
      <point x="250" y="718" type="line"/>
      <point x="180" y="718" type="line"/>
      <point x="55" y="0" type="line"/>
      <point x="125" y="0" type="line"/>
      <point x="159" y="198" type="line"/>
      <point x="231" y="264" type="line"/>
      <point x="318" y="0" type="line"/>
      <point x="411" y="0" type="line"/>
    </contour>
  </outline>
</glyph>
<glyph name="m" format="1">
  <advance width="683"/>
  <unicode hex="006D"/>
  <outline>
    <contour>
      <point x="53" y="0" type="line"/>
      <point x="125" y="0" type="line"/>
      <point x="175" y="285" type="line" smooth="yes"/>
      <point x="193" y="391"/>
      <point x="250" y="459"/>
      <point x="320" y="459" type="curve" smooth="yes"/>
      <point x="353" y="459"/>
      <point x="372" y="436"/>
      <point x="372" y="393" type="curve" smooth="yes"/>
      <point x="372" y="384"/>
      <point x="371" y="372"/>
      <point x="369" y="362" type="curve" smooth="yes"/>
      <point x="306" y="0" type="line"/>
      <point x="378" y="0" type="line"/>
      <point x="434" y="319" type="line" smooth="yes"/>
      <point x="448" y="398"/>
      <point x="503" y="459"/>
      <point x="561" y="459" type="curve" smooth="yes"/>
      <point x="601" y="459"/>
      <point x="622" y="434"/>
      <point x="622" y="387" type="curve" smooth="yes"/>
      <point x="622" y="369"/>
      <point x="621" y="354"/>
      <point x="618" y="338" type="curve" smooth="yes"/>
      <point x="559" y="0" type="line"/>
      <point x="631" y="0" type="line"/>
      <point x="694" y="362" type="line" smooth="yes"/>
      <point x="697" y="379"/>
      <point x="699" y="397"/>
      <point x="699" y="414" type="curve" smooth="yes"/>
      <point x="699" y="491"/>
      <point x="658" y="538"/>
      <point x="590" y="538" type="curve" smooth="yes"/>
      <point x="538" y="538"/>
      <point x="508" y="520"/>
      <point x="446" y="453" type="curve"/>
      <point x="430" y="513"/>
      <point x="401" y="538"/>
      <point x="348" y="538" type="curve" smooth="yes"/>
      <point x="291" y="538"/>
      <point x="248" y="511"/>
      <point x="199" y="446" type="curve"/>
      <point x="213" y="523" type="line"/>
      <point x="144" y="523" type="line"/>
    </contour>
  </outline>
</glyph>
<glyph name="q" format="1">
  <advance width="456"/>
  <unicode hex="0071"/>
  <outline>
    <contour>
      <point x="496" y="523" type="line"/>
      <point x="428" y="523" type="line"/>
      <point x="415" y="446" type="line"/>
      <point x="387" y="514"/>
      <point x="357" y="538"/>
      <point x="300" y="538" type="curve" smooth="yes"/>
      <point x="171" y="538"/>
      <point x="69" y="381"/>
      <point x="69" y="185" type="curve" smooth="yes"/>
      <point x="69" y="58"/>
      <point x="121" y="-15"/>
      <point x="213" y="-15" type="curve" smooth="yes"/>
      <point x="266" y="-15"/>
      <point x="305" y="7"/>
      <point x="343" y="58" type="curve"/>
      <point x="297" y="-207" type="line"/>
      <point x="369" y="-207" type="line"/>
    </contour>
    <contour>
      <point x="299" y="459" type="curve" smooth="yes"/>
      <point x="357" y="459"/>
      <point x="387" y="417"/>
      <point x="387" y="335" type="curve" smooth="yes"/>
      <point x="387" y="174"/>
      <point x="321" y="61"/>
      <point x="228" y="61" type="curve" smooth="yes"/>
      <point x="174" y="61"/>
      <point x="143" y="107"/>
      <point x="143" y="186" type="curve" smooth="yes"/>
      <point x="143" y="254"/>
      <point x="159" y="331"/>
      <point x="184" y="380" type="curve" smooth="yes"/>
      <point x="210" y="431"/>
      <point x="251" y="459"/>
    </contour>
  </outline>
</glyph>
<glyph name="r" format="1">
  <advance width="273"/>
  <unicode hex="0072"/>
  <outline>
    <contour>
      <point x="349" y="444" type="line"/>
      <point x="365" y="535" type="line"/>
      <point x="359" y="537"/>
      <point x="354" y="538"/>
      <point x="347" y="538" type="curve" smooth="yes"/>
      <point x="296" y="538"/>
      <point x="258" y="509"/>
      <point x="206" y="433" type="curve"/>
      <point x="222" y="523" type="line"/>
      <point x="154" y="523" type="line"/>
      <point x="63" y="0" type="line"/>
      <point x="135" y="0" type="line"/>
      <point x="188" y="304" type="line" smooth="yes"/>
      <point x="202" y="385"/>
      <point x="259" y="444"/>
      <point x="322" y="444" type="curve" smooth="yes"/>
    </contour>
  </outline>
</glyph>
<glyph name="s" format="1">
  <advance width="410"/>
  <unicode hex="0073"/>
  <outline>
    <contour>
      <point x="432" y="374" type="line"/>
      <point x="433" y="388"/>
      <point x="434" y="400"/>
      <point x="434" y="408" type="curve" smooth="yes"/>
      <point x="434" y="489"/>
      <point x="382" y="538"/>
      <point x="298" y="538" type="curve" smooth="yes"/>
      <point x="189" y="538"/>
      <point x="103" y="452"/>
      <point x="103" y="342" type="curve" smooth="yes"/>
      <point x="103" y="293"/>
      <point x="129" y="261"/>
      <point x="182" y="244" type="curve" smooth="yes"/>
      <point x="261" y="219" type="line" smooth="yes"/>
      <point x="316" y="202"/>
      <point x="335" y="186"/>
      <point x="335" y="158" type="curve" smooth="yes"/>
      <point x="335" y="101"/>
      <point x="286" y="61"/>
      <point x="218" y="61" type="curve" smooth="yes"/>
      <point x="158" y="61"/>
      <point x="124" y="89"/>
      <point x="124" y="139" type="curve" smooth="yes"/>
      <point x="124" y="147"/>
      <point x="125" y="157"/>
      <point x="126" y="168" type="curve"/>
      <point x="56" y="168" type="line"/>
      <point x="53" y="147"/>
      <point x="52" y="128"/>
      <point x="52" y="116" type="curve" smooth="yes"/>
      <point x="52" y="33"/>
      <point x="107" y="-15"/>
      <point x="204" y="-15" type="curve" smooth="yes"/>
      <point x="271" y="-15"/>
      <point x="328" y="12"/>
      <point x="367" y="62" type="curve" smooth="yes"/>
      <point x="394" y="97"/>
      <point x="411" y="147"/>
      <point x="411" y="189" type="curve" smooth="yes"/>
      <point x="411" y="242"/>
      <point x="382" y="273"/>
      <point x="312" y="296" type="curve" smooth="yes"/>
      <point x="243" y="318" type="line" smooth="yes"/>
      <point x="191" y="335"/>
      <point x="177" y="346"/>
      <point x="177" y="372" type="curve" smooth="yes"/>
      <point x="177" y="425"/>
      <point x="219" y="462"/>
      <point x="281" y="462" type="curve" smooth="yes"/>
      <point x="333" y="462"/>
      <point x="364" y="438"/>
      <point x="364" y="396" type="curve" smooth="yes"/>
      <point x="364" y="391"/>
      <point x="363" y="383"/>
      <point x="362" y="374" type="curve"/>
    </contour>
  </outline>
</glyph>
<glyph name="v" format="1">
  <advance width="410"/>
  <unicode hex="0076"/>
  <outline>
    <contour>
      <point x="219" y="94" type="line"/>
      <point x="182" y="523" type="line"/>
      <point x="98" y="523" type="line"/>
      <point x="163" y="0" type="line"/>
      <point x="241" y="0" type="line"/>
      <point x="495" y="523" type="line"/>
      <point x="416" y="523" type="line"/>
    </contour>
  </outline>
</glyph>
<glyph name="w" format="1">
  <advance width="592"/>
  <unicode hex="0077"/>
  <outline>
    <contour>
      <point x="366" y="409" type="line"/>
      <point x="383" y="0" type="line"/>
      <point x="457" y="0" type="line"/>
      <point x="673" y="523" type="line"/>
      <point x="601" y="523" type="line"/>
      <point x="441" y="108" type="line"/>
      <point x="429" y="523" type="line"/>
      <point x="348" y="523" type="line"/>
      <point x="192" y="108" type="line"/>
      <point x="182" y="523" type="line"/>
      <point x="103" y="523" type="line"/>
      <point x="136" y="0" type="line"/>
      <point x="210" y="0" type="line"/>
    </contour>
  </outline>
</glyph>
<glyph name="x" format="1">
  <advance width="410"/>
  <unicode hex="0078"/>
  <outline>
    <contour>
      <point x="298" y="269" type="line"/>
      <point x="487" y="523" type="line"/>
      <point x="399" y="523" type="line"/>
      <point x="267" y="339" type="line"/>
      <point x="200" y="523" type="line"/>
      <point x="107" y="523" type="line"/>
      <point x="207" y="269" type="line"/>
      <point x="9" y="0" type="line"/>
      <point x="100" y="0" type="line"/>
      <point x="238" y="197" type="line"/>
      <point x="310" y="0" type="line"/>
      <point x="402" y="0" type="line"/>
    </contour>
  </outline>
</glyph>
<glyph name="z" format="1">
  <advance width="410"/>
  <unicode hex="007A"/>
  <outline>
    <contour>
      <point x="455" y="451" type="line"/>
      <point x="468" y="523" type="line"/>
      <point x="136" y="523" type="line"/>
      <point x="123" y="450" type="line"/>
      <point x="362" y="450" type="line"/>
      <point x="37" y="69" type="line"/>
      <point x="25" y="0" type="line"/>
      <point x="384" y="0" type="line"/>
      <point x="397" y="73" type="line"/>
      <point x="134" y="73" type="line"/>
    </contour>
  </outline>
</glyph>
<glyph name="braceleft" format="1">
  <advance width="274"/>
  <unicode hex="007B"/>
  <outline>
    <contour>
      <point x="75" y="234" type="line"/>
      <point x="87" y="232"/>
      <point x="94" y="230"/>
      <point x="99" y="225" type="curve"/>
      <point x="112" y="214"/>
      <point x="122" y="180"/>
      <point x="122" y="149" type="curve" smooth="yes"/>
      <point x="122" y="129"/>
      <point x="121" y="118"/>
      <point x="119" y="104" type="curve" smooth="yes"/>
      <point x="89" y="-67" type="line" smooth="yes"/>
      <point x="87" y="-79"/>
      <point x="86" y="-89"/>
      <point x="86" y="-103" type="curve" smooth="yes"/>
      <point x="86" y="-158"/>
      <point x="112" y="-196"/>
      <point x="150" y="-196" type="curve" smooth="yes"/>
      <point x="205" y="-196" type="line"/>
      <point x="216" y="-131" type="line"/>
      <point x="180" y="-131" type="line" smooth="yes"/>
      <point x="163" y="-131"/>
      <point x="153" y="-116"/>
      <point x="153" y="-88" type="curve" smooth="yes"/>
      <point x="153" y="-77"/>
      <point x="154" y="-64"/>
      <point x="157" y="-49" type="curve" smooth="yes"/>
      <point x="186" y="120" type="line" smooth="yes"/>
      <point x="188" y="131"/>
      <point x="189" y="141"/>
      <point x="189" y="155" type="curve" smooth="yes"/>
      <point x="189" y="209"/>
      <point x="171" y="246"/>
      <point x="137" y="264" type="curve"/>
      <point x="179" y="277"/>
      <point x="226" y="344"/>
      <point x="236" y="405" type="curve" smooth="yes"/>
      <point x="266" y="575" type="line" smooth="yes"/>
      <point x="275" y="629"/>
      <point x="293" y="657"/>
      <point x="318" y="657" type="curve" smooth="yes"/>
      <point x="354" y="657" type="line"/>
      <point x="365" y="722" type="line"/>
      <point x="310" y="722" type="line" smooth="yes"/>
      <point x="262" y="722"/>
      <point x="217" y="667"/>
      <point x="204" y="593" type="curve" smooth="yes"/>
      <point x="174" y="421" type="line" smooth="yes"/>
      <point x="161" y="347"/>
      <point x="124" y="295"/>
      <point x="85" y="294" type="curve"/>
    </contour>
  </outline>
</glyph>
<glyph name="bar" format="1">
  <advance width="213"/>
  <unicode hex="007C"/>
  <outline>
    <contour>
      <point x="74" y="-19" type="line"/>
      <point x="134" y="-19" type="line"/>
      <point x="265" y="737" type="line"/>
      <point x="205" y="737" type="line"/>
    </contour>
  </outline>
</glyph>
<glyph name="braceright" format="1">
  <advance width="274"/>
  <unicode hex="007D"/>
  <outline>
    <contour>
      <point x="291" y="294" type="line"/>
      <point x="278" y="296"/>
      <point x="272" y="298"/>
      <point x="266" y="303" type="curve"/>
      <point x="253" y="315"/>
      <point x="243" y="347"/>
      <point x="243" y="378" type="curve" smooth="yes"/>
      <point x="243" y="393"/>
      <point x="244" y="407"/>
      <point x="247" y="421" type="curve" smooth="yes"/>
      <point x="277" y="593" type="line" smooth="yes"/>
      <point x="279" y="605"/>
      <point x="280" y="618"/>
      <point x="280" y="629" type="curve" smooth="yes"/>
      <point x="280" y="684"/>
      <point x="254" y="722"/>
      <point x="215" y="722" type="curve" smooth="yes"/>
      <point x="160" y="722" type="line"/>
      <point x="149" y="657" type="line"/>
      <point x="185" y="657" type="line" smooth="yes"/>
      <point x="203" y="657"/>
      <point x="213" y="642"/>
      <point x="213" y="615" type="curve" smooth="yes"/>
      <point x="213" y="606"/>
      <point x="211" y="591"/>
      <point x="209" y="575" type="curve"/>
      <point x="179" y="405" type="line" smooth="yes"/>
      <point x="177" y="394"/>
      <point x="176" y="383"/>
      <point x="176" y="373" type="curve" smooth="yes"/>
      <point x="176" y="320"/>
      <point x="196" y="279"/>
      <point x="229" y="264" type="curve"/>
      <point x="184" y="248"/>
      <point x="140" y="185"/>
      <point x="129" y="120" type="curve" smooth="yes"/>
      <point x="100" y="-49" type="line" smooth="yes"/>
      <point x="90" y="-102"/>
      <point x="72" y="-131"/>
      <point x="48" y="-131" type="curve" smooth="yes"/>
      <point x="11" y="-131" type="line"/>
      <point x="0" y="-196" type="line"/>
      <point x="55" y="-196" type="line" smooth="yes"/>
      <point x="103" y="-196"/>
      <point x="149" y="-140"/>
      <point x="161" y="-67" type="curve" smooth="yes"/>
      <point x="191" y="104" type="line" smooth="yes"/>
      <point x="206" y="180"/>
      <point x="242" y="233"/>
      <point x="281" y="234" type="curve"/>
    </contour>
  </outline>
</glyph>
<glyph name="asciitilde" format="1">
  <advance width="479"/>
  <unicode hex="007E"/>
  <outline>
    <contour>
      <point x="441" y="305" type="line"/>
      <point x="412" y="268"/>
      <point x="394" y="254"/>
      <point x="373" y="254" type="curve" smooth="yes"/>
      <point x="361" y="254"/>
      <point x="340" y="263"/>
      <point x="315" y="277" type="curve" smooth="yes"/>
      <point x="254" y="314"/>
      <point x="235" y="322"/>
      <point x="208" y="322" type="curve" smooth="yes"/>
      <point x="164" y="322"/>
      <point x="129" y="296"/>
      <point x="91" y="236" type="curve"/>
      <point x="124" y="200" type="line"/>
      <point x="149" y="236"/>
      <point x="168" y="249"/>
      <point x="194" y="249" type="curve" smooth="yes"/>
      <point x="222" y="249"/>
      <point x="246" y="239"/>
      <point x="280" y="214" type="curve" smooth="yes"/>
      <point x="313" y="190"/>
      <point x="333" y="181"/>
      <point x="357" y="181" type="curve" smooth="yes"/>
      <point x="398" y="181"/>
      <point x="431" y="205"/>
      <point x="476" y="267" type="curve"/>
    </contour>
  </outline>
</glyph>
<glyph name="exclamdown" format="1">
  <advance width="273"/>
  <unicode hex="00A1"/>
  <outline>
    <contour>
      <point x="170" y="421" type="line"/>
      <point x="249" y="421" type="line"/>
      <point x="267" y="523" type="line"/>
      <point x="188" y="523" type="line"/>
    </contour>
    <contour>
      <point x="178" y="352" type="line"/>
      <point x="104" y="42" type="line"/>
      <point x="63" y="-195" type="line"/>
      <point x="142" y="-195" type="line"/>
      <point x="183" y="42" type="line"/>
      <point x="218" y="352" type="line"/>
    </contour>
  </outline>
</glyph>
<glyph name="cent" format="1">
  <advance width="456"/>
  <unicode hex="00A2"/>
  <outline>
    <contour>
      <point x="478" y="345" type="line"/>
      <point x="479" y="359"/>
      <point x="479" y="370"/>
      <point x="479" y="379" type="curve" smooth="yes"/>
      <point x="479" y="450"/>
      <point x="453" y="499"/>
      <point x="403" y="523" type="curve"/>
      <point x="441" y="623" type="line"/>
      <point x="409" y="623" type="line"/>
      <point x="372" y="532" type="line"/>
      <point x="363" y="536"/>
      <point x="353" y="538"/>
      <point x="337" y="538" type="curve" smooth="yes"/>
      <point x="268" y="538"/>
      <point x="210" y="507"/>
      <point x="163" y="447" type="curve" smooth="yes"/>
      <point x="113" y="381"/>
      <point x="78" y="267"/>
      <point x="78" y="169" type="curve" smooth="yes"/>
      <point x="78" y="120"/>
      <point x="92" y="69"/>
      <point x="114" y="37" type="curve" smooth="yes"/>
      <point x="123" y="25"/>
      <point x="134" y="15"/>
      <point x="155" y="-1" type="curve"/>
      <point x="107" y="-115" type="line"/>
      <point x="141" y="-115" type="line"/>
      <point x="184" y="-12" type="line"/>
      <point x="214" y="-18"/>
      <point x="222" y="-19"/>
      <point x="234" y="-19" type="curve" smooth="yes"/>
      <point x="334" y="-19"/>
      <point x="411" y="52"/>
      <point x="453" y="183" type="curve"/>
      <point x="383" y="183" type="line"/>
      <point x="346" y="90"/>
      <point x="309" y="57"/>
      <point x="242" y="57" type="curve" smooth="yes"/>
      <point x="229" y="57"/>
      <point x="224" y="58"/>
      <point x="215" y="61" type="curve"/>
      <point x="373" y="447" type="line"/>
      <point x="399" y="432"/>
      <point x="409" y="405"/>
      <point x="411" y="345" type="curve"/>
    </contour>
    <contour>
      <point x="187" y="78" type="line"/>
      <point x="163" y="103"/>
      <point x="152" y="139"/>
      <point x="152" y="190" type="curve" smooth="yes"/>
      <point x="152" y="254"/>
      <point x="178" y="345"/>
      <point x="209" y="393" type="curve" smooth="yes"/>
      <point x="240" y="440"/>
      <point x="277" y="462"/>
      <point x="324" y="462" type="curve" smooth="yes"/>
      <point x="332" y="462"/>
      <point x="337" y="461"/>
      <point x="343" y="459" type="curve"/>
    </contour>
  </outline>
</glyph>
<glyph name="sterling" format="1">
  <advance width="456"/>
  <unicode hex="00A3"/>
  <outline>
    <contour>
      <point x="233" y="380" type="line"/>
      <point x="219" y="436"/>
      <point x="214" y="462"/>
      <point x="214" y="490" type="curve" smooth="yes"/>
      <point x="214" y="572"/>
      <point x="278" y="642"/>
      <point x="353" y="642" type="curve" smooth="yes"/>
      <point x="410" y="642"/>
      <point x="445" y="601"/>
      <point x="445" y="535" type="curve" smooth="yes"/>
      <point x="445" y="519"/>
      <point x="444" y="511"/>
      <point x="442" y="499" type="curve"/>
      <point x="441" y="490" type="line"/>
      <point x="513" y="490" type="line"/>
      <point x="516" y="505" type="line" smooth="yes"/>
      <point x="519" y="521"/>
      <point x="520" y="538"/>
      <point x="520" y="555" type="curve" smooth="yes"/>
      <point x="520" y="660"/>
      <point x="467" y="718"/>
      <point x="371" y="718" type="curve" smooth="yes"/>
      <point x="241" y="718"/>
      <point x="135" y="610"/>
      <point x="135" y="477" type="curve" smooth="yes"/>
      <point x="135" y="452"/>
      <point x="138" y="431"/>
      <point x="150" y="380" type="curve"/>
      <point x="93" y="380" type="line"/>
      <point x="82" y="317" type="line"/>
      <point x="170" y="317" type="line"/>
      <point x="174" y="294"/>
      <point x="175" y="282"/>
      <point x="175" y="269" type="curve" smooth="yes"/>
      <point x="175" y="237"/>
      <point x="165" y="205"/>
      <point x="142" y="167" type="curve" smooth="yes"/>
      <point x="117" y="124"/>
      <point x="93" y="98"/>
      <point x="40" y="58" type="curve"/>
      <point x="68" y="-11" type="line"/>
      <point x="112" y="17"/>
      <point x="143" y="29"/>
      <point x="172" y="29" type="curve" smooth="yes"/>
      <point x="194" y="29"/>
      <point x="221" y="22"/>
      <point x="262" y="5" type="curve" smooth="yes"/>
      <point x="298" y="-10"/>
      <point x="318" y="-16"/>
      <point x="337" y="-16" type="curve" smooth="yes"/>
      <point x="372" y="-16"/>
      <point x="403" y="-3"/>
      <point x="448" y="32" type="curve"/>
      <point x="426" y="98" type="line"/>
      <point x="403" y="78"/>
      <point x="378" y="67"/>
      <point x="357" y="67" type="curve" smooth="yes"/>
      <point x="347" y="67"/>
      <point x="330" y="72"/>
      <point x="304" y="82" type="curve" smooth="yes"/>
      <point x="269" y="96"/>
      <point x="246" y="102"/>
      <point x="225" y="102" type="curve" smooth="yes"/>
      <point x="188" y="102"/>
      <point x="154" y="90"/>
      <point x="105" y="61" type="curve"/>
      <point x="180" y="119"/>
      <point x="219" y="168"/>
      <point x="237" y="229" type="curve" smooth="yes"/>
      <point x="243" y="250"/>
      <point x="247" y="276"/>
      <point x="247" y="300" type="curve" smooth="yes"/>
      <point x="247" y="303"/>
      <point x="247" y="310"/>
      <point x="246" y="317" type="curve"/>
      <point x="360" y="317" type="line"/>
      <point x="371" y="380" type="line"/>
    </contour>
  </outline>
</glyph>
<glyph name="currency" format="1">
  <advance width="456"/>
  <unicode hex="00A4"/>
  <outline>
    <contour>
      <point x="499" y="603" type="line"/>
      <point x="443" y="547" type="line"/>
      <point x="411" y="582"/>
      <point x="377" y="598"/>
      <point x="332" y="598" type="curve" smooth="yes"/>
      <point x="287" y="598"/>
      <point x="247" y="582"/>
      <point x="205" y="547" type="curve"/>
      <point x="168" y="603" type="line"/>
      <point x="120" y="555" type="line"/>
      <point x="156" y="501" type="line"/>
      <point x="108" y="443"/>
      <point x="83" y="371"/>
      <point x="83" y="295" type="curve" smooth="yes"/>
      <point x="83" y="259"/>
      <point x="88" y="235"/>
      <point x="103" y="200" type="curve"/>
      <point x="49" y="144" type="line"/>
      <point x="78" y="99" type="line"/>
      <point x="133" y="157" type="line"/>
      <point x="164" y="118"/>
      <point x="198" y="102"/>
      <point x="246" y="102" type="curve" smooth="yes"/>
      <point x="294" y="102"/>
      <point x="333" y="119"/>
      <point x="378" y="157" type="curve"/>
      <point x="413" y="99" type="line"/>
      <point x="458" y="144" type="line"/>
      <point x="423" y="200" type="line"/>
      <point x="471" y="263"/>
      <point x="495" y="331"/>
      <point x="495" y="408" type="curve" smooth="yes"/>
      <point x="495" y="445"/>
      <point x="490" y="467"/>
      <point x="475" y="501" type="curve"/>
      <point x="530" y="555" type="line"/>
    </contour>
    <contour>
      <point x="320" y="528" type="curve" smooth="yes"/>
      <point x="385" y="528"/>
      <point x="433" y="468"/>
      <point x="433" y="387" type="curve" smooth="yes"/>
      <point x="433" y="278"/>
      <point x="346" y="172"/>
      <point x="258" y="172" type="curve" smooth="yes"/>
      <point x="192" y="172"/>
      <point x="145" y="231"/>
      <point x="145" y="313" type="curve" smooth="yes"/>
      <point x="145" y="423"/>
      <point x="231" y="528"/>
    </contour>
  </outline>
</glyph>
<glyph name="yen" format="1">
  <advance width="456"/>
  <unicode hex="00A5"/>
  <outline>
    <contour>
      <point x="92" y="327" type="line"/>
      <point x="249" y="327" type="line"/>
      <point x="234" y="242" type="line"/>
      <point x="77" y="242" type="line"/>
      <point x="67" y="185" type="line"/>
      <point x="224" y="185" type="line"/>
      <point x="192" y="0" type="line"/>
      <point x="264" y="0" type="line"/>
      <point x="296" y="185" type="line"/>
      <point x="454" y="185" type="line"/>
      <point x="464" y="242" type="line"/>
      <point x="306" y="242" type="line"/>
      <point x="321" y="327" type="line"/>
      <point x="479" y="327" type="line"/>
      <point x="489" y="384" type="line"/>
      <point x="362" y="384" type="line"/>
      <point x="573" y="688" type="line"/>
      <point x="491" y="688" type="line"/>
      <point x="296" y="393" type="line"/>
      <point x="204" y="688" type="line"/>
      <point x="123" y="688" type="line"/>
      <point x="228" y="384" type="line"/>
      <point x="102" y="384" type="line"/>
    </contour>
  </outline>
</glyph>
<glyph name="brokenbar" format="1">
  <advance width="213"/>
  <unicode hex="00A6"/>
  <outline>
    <contour>
      <point x="74" y="-19" type="line"/>
      <point x="134" y="-19" type="line"/>
      <point x="185" y="275" type="line"/>
      <point x="125" y="275" type="line"/>
    </contour>
    <contour>
      <point x="157" y="460" type="line"/>
      <point x="217" y="460" type="line"/>
      <point x="265" y="737" type="line"/>
      <point x="205" y="737" type="line"/>
    </contour>
  </outline>
</glyph>
<glyph name="section" format="1">
  <advance width="456"/>
  <unicode hex="00A7"/>
  <outline>
    <contour>
      <point x="474" y="554" type="line"/>
      <point x="477" y="577"/>
      <point x="479" y="598"/>
      <point x="479" y="612" type="curve" smooth="yes"/>
      <point x="479" y="689"/>
      <point x="431" y="737"/>
      <point x="355" y="737" type="curve" smooth="yes"/>
      <point x="302" y="737"/>
      <point x="255" y="713"/>
      <point x="222" y="668" type="curve" smooth="yes"/>
      <point x="194" y="632"/>
      <point x="175" y="580"/>
      <point x="175" y="540" type="curve" smooth="yes"/>
      <point x="175" y="516"/>
      <point x="181" y="499"/>
      <point x="199" y="467" type="curve"/>
      <point x="159" y="440"/>
      <point x="142" y="425"/>
      <point x="124" y="399" type="curve" smooth="yes"/>
      <point x="102" y="366"/>
      <point x="87" y="318"/>
      <point x="87" y="279" type="curve" smooth="yes"/>
      <point x="87" y="241"/>
      <point x="100" y="208"/>
      <point x="122" y="187" type="curve" smooth="yes"/>
      <point x="269" y="47" type="line" smooth="yes"/>
      <point x="292" y="25"/>
      <point x="302" y="6"/>
      <point x="302" y="-17" type="curve" smooth="yes"/>
      <point x="302" y="-73"/>
      <point x="259" y="-115"/>
      <point x="201" y="-115" type="curve" smooth="yes"/>
      <point x="160" y="-115"/>
      <point x="136" y="-89"/>
      <point x="136" y="-43" type="curve" smooth="yes"/>
      <point x="136" y="-33"/>
      <point x="137" y="-19"/>
      <point x="140" y="-3" type="curve"/>
      <point x="68" y="-3" type="line"/>
      <point x="65" y="-26"/>
      <point x="63" y="-47"/>
      <point x="63" y="-61" type="curve" smooth="yes"/>
      <point x="63" y="-140"/>
      <point x="113" y="-191"/>
      <point x="191" y="-191" type="curve" smooth="yes"/>
      <point x="290" y="-191"/>
      <point x="376" y="-102"/>
      <point x="376" y="1" type="curve" smooth="yes"/>
      <point x="376" y="30"/>
      <point x="370" y="50"/>
      <point x="350" y="84" type="curve"/>
      <point x="392" y="113"/>
      <point x="410" y="131"/>
      <point x="429" y="159" type="curve" smooth="yes"/>
      <point x="452" y="193"/>
      <point x="466" y="239"/>
      <point x="466" y="281" type="curve" smooth="yes"/>
      <point x="466" y="330"/>
      <point x="447" y="366"/>
      <point x="401" y="404" type="curve" smooth="yes"/>
      <point x="296" y="490" type="line" smooth="yes"/>
      <point x="265" y="516"/>
      <point x="251" y="539"/>
      <point x="251" y="566" type="curve" smooth="yes"/>
      <point x="251" y="618"/>
      <point x="293" y="661"/>
      <point x="344" y="661" type="curve" smooth="yes"/>
      <point x="383" y="661"/>
      <point x="407" y="635"/>
      <point x="407" y="592" type="curve" smooth="yes"/>
      <point x="407" y="582"/>
      <point x="406" y="569"/>
      <point x="404" y="554" type="curve"/>
    </contour>
    <contour>
      <point x="184" y="246" type="line" smooth="yes"/>
      <point x="167" y="261"/>
      <point x="159" y="281"/>
      <point x="159" y="307" type="curve" smooth="yes"/>
      <point x="159" y="359"/>
      <point x="182" y="397"/>
      <point x="233" y="428" type="curve"/>
      <point x="357" y="321" type="line" smooth="yes"/>
      <point x="381" y="301"/>
      <point x="393" y="274"/>
      <point x="393" y="245" type="curve" smooth="yes"/>
      <point x="393" y="197"/>
      <point x="372" y="163"/>
      <point x="317" y="124" type="curve"/>
    </contour>
  </outline>
</glyph>
<glyph name="dieresis" format="1">
  <advance width="273"/>
  <unicode hex="00A8"/>
  <outline>
    <contour>
      <point x="230" y="706" type="line"/>
      <point x="156" y="706" type="line"/>
      <point x="138" y="604" type="line"/>
      <point x="213" y="604" type="line"/>
    </contour>
    <contour>
      <point x="363" y="706" type="line"/>
      <point x="288" y="706" type="line"/>
      <point x="271" y="604" type="line"/>
      <point x="345" y="604" type="line"/>
    </contour>
  </outline>
</glyph>
<glyph name="copyright" format="1">
  <advance width="604"/>
  <unicode hex="00A9"/>
  <outline>
    <contour>
      <point x="462" y="289" type="line"/>
      <point x="441" y="228"/>
      <point x="400" y="194"/>
      <point x="348" y="194" type="curve" smooth="yes"/>
      <point x="290" y="194"/>
      <point x="253" y="243"/>
      <point x="253" y="318" type="curve" smooth="yes"/>
      <point x="253" y="433"/>
      <point x="320" y="526"/>
      <point x="403" y="526" type="curve" smooth="yes"/>
      <point x="456" y="526"/>
      <point x="484" y="496"/>
      <point x="487" y="435" type="curve"/>
      <point x="542" y="435" type="line"/>
      <point x="542" y="477"/>
      <point x="541" y="481"/>
      <point x="536" y="501" type="curve" smooth="yes"/>
      <point x="520" y="559"/>
      <point x="476" y="592"/>
      <point x="413" y="592" type="curve" smooth="yes"/>
      <point x="290" y="592"/>
      <point x="189" y="462"/>
      <point x="189" y="303" type="curve" smooth="yes"/>
      <point x="189" y="197"/>
      <point x="246" y="128"/>
      <point x="334" y="128" type="curve" smooth="yes"/>
      <point x="415" y="128"/>
      <point x="478" y="184"/>
      <point x="517" y="289" type="curve"/>
    </contour>
    <contour>
      <point x="433" y="737" type="curve" smooth="yes"/>
      <point x="229" y="737"/>
      <point x="44" y="519"/>
      <point x="44" y="279" type="curve" smooth="yes"/>
      <point x="44" y="106"/>
      <point x="150" y="-19"/>
      <point x="297" y="-19" type="curve" smooth="yes"/>
      <point x="502" y="-19"/>
      <point x="687" y="199"/>
      <point x="687" y="439" type="curve" smooth="yes"/>
      <point x="687" y="613"/>
      <point x="581" y="737"/>
    </contour>
    <contour>
      <point x="420" y="674" type="curve" smooth="yes"/>
      <point x="541" y="674"/>
      <point x="624" y="575"/>
      <point x="624" y="430" type="curve" smooth="yes"/>
      <point x="624" y="227"/>
      <point x="476" y="44"/>
      <point x="310" y="44" type="curve" smooth="yes"/>
      <point x="190" y="44"/>
      <point x="107" y="143"/>
      <point x="107" y="286" type="curve" smooth="yes"/>
      <point x="107" y="492"/>
      <point x="254" y="674"/>
    </contour>
  </outline>
</glyph>
<glyph name="ordfeminine" format="1">
  <advance width="303"/>
  <unicode hex="00AA"/>
  <outline>
    <contour>
      <point x="363" y="454" type="line"/>
      <point x="355" y="453"/>
      <point x="350" y="452"/>
      <point x="347" y="452" type="curve" smooth="yes"/>
      <point x="339" y="452"/>
      <point x="335" y="456"/>
      <point x="335" y="464" type="curve" smooth="yes"/>
      <point x="335" y="471" type="line"/>
      <point x="366" y="649" type="line" smooth="yes"/>
      <point x="367" y="655"/>
      <point x="368" y="661"/>
      <point x="368" y="666" type="curve" smooth="yes"/>
      <point x="368" y="711"/>
      <point x="333" y="737"/>
      <point x="274" y="737" type="curve" smooth="yes"/>
      <point x="202" y="737"/>
      <point x="161" y="704"/>
      <point x="144" y="632" type="curve"/>
      <point x="188" y="632" type="line"/>
      <point x="199" y="670"/>
      <point x="221" y="685"/>
      <point x="262" y="685" type="curve" smooth="yes"/>
      <point x="296" y="685"/>
      <point x="316" y="673"/>
      <point x="316" y="652" type="curve" smooth="yes"/>
      <point x="316" y="629"/>
      <point x="305" y="610"/>
      <point x="290" y="608" type="curve" smooth="yes"/>
      <point x="216" y="598" type="line" smooth="yes"/>
      <point x="148" y="589"/>
      <point x="105" y="542"/>
      <point x="105" y="477" type="curve" smooth="yes"/>
      <point x="105" y="433"/>
      <point x="134" y="405"/>
      <point x="180" y="405" type="curve" smooth="yes"/>
      <point x="219" y="405"/>
      <point x="251" y="420"/>
      <point x="288" y="456" type="curve"/>
      <point x="287" y="450"/>
      <point x="287" y="445"/>
      <point x="287" y="439" type="curve" smooth="yes"/>
      <point x="287" y="417"/>
      <point x="301" y="405"/>
      <point x="327" y="405" type="curve" smooth="yes"/>
      <point x="334" y="405"/>
      <point x="339" y="406"/>
      <point x="349" y="408" type="curve"/>
      <point x="355" y="410" type="line"/>
    </contour>
    <contour>
      <point x="296" y="531" type="line" smooth="yes"/>
      <point x="289" y="489"/>
      <point x="247" y="457"/>
      <point x="199" y="457" type="curve" smooth="yes"/>
      <point x="173" y="457"/>
      <point x="159" y="469"/>
      <point x="159" y="492" type="curve" smooth="yes"/>
      <point x="159" y="527"/>
      <point x="176" y="543"/>
      <point x="224" y="550" type="curve" smooth="yes"/>
      <point x="279" y="558"/>
      <point x="295" y="563"/>
      <point x="303" y="570" type="curve"/>
    </contour>
    <contour>
      <point x="90" y="352" type="line"/>
      <point x="82" y="304" type="line"/>
      <point x="324" y="304" type="line"/>
      <point x="333" y="352" type="line"/>
    </contour>
  </outline>
</glyph>
<glyph name="guillemotleft" format="1">
  <advance width="456"/>
  <unicode hex="00AB"/>
  <outline>
    <contour>
      <point x="243" y="196" type="line"/>
      <point x="171" y="277" type="line"/>
      <point x="271" y="358" type="line"/>
      <point x="286" y="446" type="line"/>
      <point x="136" y="323" type="line"/>
      <point x="120" y="231" type="line"/>
      <point x="227" y="108" type="line"/>
    </contour>
    <contour>
      <point x="410" y="196" type="line"/>
      <point x="339" y="277" type="line"/>
      <point x="439" y="358" type="line"/>
      <point x="454" y="446" type="line"/>
      <point x="304" y="323" type="line"/>
      <point x="288" y="231" type="line"/>
      <point x="395" y="108" type="line"/>
    </contour>
  </outline>
</glyph>
<glyph name="logicalnot" format="1">
  <advance width="479"/>
  <unicode hex="00AC"/>
  <outline>
    <contour>
      <point x="406" y="108" type="line"/>
      <point x="466" y="108" type="line"/>
      <point x="515" y="390" type="line"/>
      <point x="100" y="390" type="line"/>
      <point x="87" y="317" type="line"/>
      <point x="442" y="317" type="line"/>
    </contour>
  </outline>
</glyph>
<glyph name="registered" format="1">
  <advance width="604"/>
  <unicode hex="00AE"/>
  <outline>
    <contour>
      <point x="296" y="330" type="line"/>
      <point x="358" y="330" type="line"/>
      <point x="419" y="141" type="line"/>
      <point x="480" y="141" type="line"/>
      <point x="412" y="333" type="line"/>
      <point x="450" y="340"/>
      <point x="470" y="351"/>
      <point x="490" y="373" type="curve" smooth="yes"/>
      <point x="514" y="399"/>
      <point x="529" y="444"/>
      <point x="529" y="488" type="curve" smooth="yes"/>
      <point x="529" y="548"/>
      <point x="494" y="577"/>
      <point x="421" y="577" type="curve" smooth="yes"/>
      <point x="284" y="577" type="line"/>
      <point x="208" y="141" type="line"/>
      <point x="263" y="141" type="line"/>
    </contour>
    <contour>
      <point x="305" y="386" type="line"/>
      <point x="329" y="521" type="line"/>
      <point x="403" y="521" type="line" smooth="yes"/>
      <point x="449" y="521"/>
      <point x="471" y="505"/>
      <point x="471" y="473" type="curve" smooth="yes"/>
      <point x="471" y="448"/>
      <point x="461" y="421"/>
      <point x="447" y="407" type="curve" smooth="yes"/>
      <point x="432" y="392"/>
      <point x="411" y="386"/>
      <point x="370" y="386" type="curve" smooth="yes"/>
    </contour>
    <contour>
      <point x="433" y="737" type="curve" smooth="yes"/>
      <point x="229" y="737"/>
      <point x="44" y="519"/>
      <point x="44" y="279" type="curve" smooth="yes"/>
      <point x="44" y="106"/>
      <point x="150" y="-19"/>
      <point x="297" y="-19" type="curve" smooth="yes"/>
      <point x="502" y="-19"/>
      <point x="687" y="199"/>
      <point x="687" y="439" type="curve" smooth="yes"/>
      <point x="687" y="613"/>
      <point x="581" y="737"/>
    </contour>
    <contour>
      <point x="420" y="674" type="curve" smooth="yes"/>
      <point x="541" y="674"/>
      <point x="624" y="575"/>
      <point x="624" y="430" type="curve" smooth="yes"/>
      <point x="624" y="227"/>
      <point x="476" y="44"/>
      <point x="310" y="44" type="curve" smooth="yes"/>
      <point x="190" y="44"/>
      <point x="107" y="143"/>
      <point x="107" y="286" type="curve" smooth="yes"/>
      <point x="107" y="492"/>
      <point x="254" y="674"/>
    </contour>
  </outline>
</glyph>
<glyph name="macron" format="1">
  <advance width="273"/>
  <unicode hex="00AF"/>
  <outline>
    <contour>
      <point x="384" y="684" type="line"/>
      <point x="127" y="684" type="line"/>
      <point x="117" y="627" type="line"/>
      <point x="374" y="627" type="line"/>
    </contour>
  </outline>
</glyph>
<glyph name="degree" format="1">
  <advance width="328"/>
  <unicode hex="00B0"/>
  <outline>
    <contour>
      <point x="287" y="703" type="curve" smooth="yes"/>
      <point x="208" y="703"/>
      <point x="138" y="619"/>
      <point x="138" y="525" type="curve" smooth="yes"/>
      <point x="138" y="457"/>
      <point x="178" y="411"/>
      <point x="236" y="411" type="curve" smooth="yes"/>
      <point x="314" y="411"/>
      <point x="384" y="495"/>
      <point x="384" y="589" type="curve" smooth="yes"/>
      <point x="384" y="657"/>
      <point x="344" y="703"/>
    </contour>
    <contour>
      <point x="279" y="660" type="curve" smooth="yes"/>
      <point x="315" y="660"/>
      <point x="343" y="623"/>
      <point x="343" y="577" type="curve" smooth="yes"/>
      <point x="343" y="517"/>
      <point x="292" y="454"/>
      <point x="243" y="454" type="curve" smooth="yes"/>
      <point x="207" y="454"/>
      <point x="179" y="490"/>
      <point x="179" y="537" type="curve" smooth="yes"/>
      <point x="179" y="597"/>
      <point x="230" y="660"/>
    </contour>
  </outline>
</glyph>
<glyph name="plusminus" format="1">
  <advance width="479"/>
  <unicode hex="00B1"/>
  <outline>
    <contour>
      <point x="270" y="345" type="line"/>
      <point x="92" y="345" type="line"/>
      <point x="79" y="272" type="line"/>
      <point x="257" y="272" type="line"/>
      <point x="229" y="111" type="line"/>
      <point x="289" y="111" type="line"/>
      <point x="317" y="272" type="line"/>
      <point x="494" y="272" type="line"/>
      <point x="507" y="345" type="line"/>
      <point x="330" y="345" type="line"/>
      <point x="368" y="561" type="line"/>
      <point x="308" y="561" type="line"/>
    </contour>
    <contour>
      <point x="32" y="0" type="line"/>
      <point x="447" y="0" type="line"/>
      <point x="460" y="73" type="line"/>
      <point x="45" y="73" type="line"/>
    </contour>
  </outline>
</glyph>
<glyph name="acute" format="1">
  <advance width="273"/>
  <unicode hex="00B4"/>
  <outline>
    <contour>
      <point x="390" y="734" type="line"/>
      <point x="301" y="734" type="line"/>
      <point x="203" y="593" type="line"/>
      <point x="258" y="593" type="line"/>
    </contour>
  </outline>
</glyph>
<glyph name="paragraph" format="1">
  <advance width="440"/>
  <unicode hex="00B6"/>
  <outline>
    <contour>
      <point x="160" y="-173" type="line"/>
      <point x="219" y="-173" type="line"/>
      <point x="365" y="658" type="line"/>
      <point x="462" y="658" type="line"/>
      <point x="317" y="-173" type="line"/>
      <point x="377" y="-173" type="line"/>
      <point x="533" y="718" type="line"/>
      <point x="329" y="718" type="line" smooth="yes"/>
      <point x="252" y="718"/>
      <point x="191" y="691"/>
      <point x="152" y="640" type="curve" smooth="yes"/>
      <point x="122" y="601"/>
      <point x="103" y="543"/>
      <point x="103" y="490" type="curve" smooth="yes"/>
      <point x="103" y="433"/>
      <point x="127" y="388"/>
      <point x="171" y="363" type="curve" smooth="yes"/>
      <point x="193" y="350"/>
      <point x="211" y="346"/>
      <point x="250" y="344" type="curve"/>
    </contour>
  </outline>
</glyph>
<glyph name="periodcentered" format="1">
  <advance width="228"/>
  <unicode hex="00B7"/>
  <outline>
    <contour>
      <point x="170" y="315" type="curve" smooth="yes"/>
      <point x="137" y="315"/>
      <point x="106" y="278"/>
      <point x="106" y="239" type="curve" smooth="yes"/>
      <point x="106" y="211"/>
      <point x="124" y="190"/>
      <point x="147" y="190" type="curve" smooth="yes"/>
      <point x="179" y="190"/>
      <point x="211" y="227"/>
      <point x="211" y="264" type="curve" smooth="yes"/>
      <point x="211" y="293"/>
      <point x="193" y="315"/>
    </contour>
  </outline>
</glyph>
<glyph name="cedilla" format="1">
  <advance width="273"/>
  <unicode hex="00B8"/>
  <outline>
    <contour>
      <point x="50" y="-86" type="line"/>
      <point x="61" y="-105" type="line"/>
      <point x="78" y="-99"/>
      <point x="87" y="-97"/>
      <point x="94" y="-97" type="curve" smooth="yes"/>
      <point x="113" y="-97"/>
      <point x="127" y="-110"/>
      <point x="127" y="-128" type="curve" smooth="yes"/>
      <point x="127" y="-158"/>
      <point x="105" y="-178"/>
      <point x="72" y="-178" type="curve" smooth="yes"/>
      <point x="56" y="-178"/>
      <point x="44" y="-174"/>
      <point x="23" y="-163" type="curve"/>
      <point x="2" y="-203" type="line"/>
      <point x="31" y="-219"/>
      <point x="52" y="-225"/>
      <point x="77" y="-225" type="curve" smooth="yes"/>
      <point x="141" y="-225"/>
      <point x="191" y="-177"/>
      <point x="191" y="-116" type="curve" smooth="yes"/>
      <point x="191" y="-80"/>
      <point x="170" y="-58"/>
      <point x="135" y="-58" type="curve" smooth="yes"/>
      <point x="127" y="-58"/>
      <point x="121" y="-59"/>
      <point x="108" y="-62" type="curve"/>
      <point x="156" y="0" type="line"/>
      <point x="118" y="0" type="line"/>
    </contour>
  </outline>
</glyph>
<glyph name="ordmasculine" format="1">
  <advance width="299"/>
  <unicode hex="00BA"/>
  <outline>
    <contour>
      <point x="279" y="737" type="curve" smooth="yes"/>
      <point x="184" y="737"/>
      <point x="116" y="647"/>
      <point x="116" y="520" type="curve" smooth="yes"/>
      <point x="116" y="447"/>
      <point x="154" y="405"/>
      <point x="221" y="405" type="curve" smooth="yes"/>
      <point x="267" y="405"/>
      <point x="308" y="426"/>
      <point x="337" y="463" type="curve" smooth="yes"/>
      <point x="364" y="499"/>
      <point x="384" y="565"/>
      <point x="384" y="621" type="curve" smooth="yes"/>
      <point x="384" y="695"/>
      <point x="346" y="737"/>
    </contour>
    <contour>
      <point x="270" y="685" type="curve" smooth="yes"/>
      <point x="308" y="685"/>
      <point x="328" y="659"/>
      <point x="328" y="609" type="curve" smooth="yes"/>
      <point x="328" y="577"/>
      <point x="319" y="537"/>
      <point x="304" y="509" type="curve" smooth="yes"/>
      <point x="287" y="475"/>
      <point x="262" y="457"/>
      <point x="230" y="457" type="curve" smooth="yes"/>
      <point x="192" y="457"/>
      <point x="172" y="483"/>
      <point x="172" y="533" type="curve" smooth="yes"/>
      <point x="172" y="565"/>
      <point x="181" y="606"/>
      <point x="196" y="633" type="curve" smooth="yes"/>
      <point x="213" y="667"/>
      <point x="238" y="685"/>
    </contour>
    <contour>
      <point x="90" y="352" type="line"/>
      <point x="82" y="304" type="line"/>
      <point x="325" y="304" type="line"/>
      <point x="333" y="352" type="line"/>
    </contour>
  </outline>
</glyph>
<glyph name="guillemotright" format="1">
  <advance width="456"/>
  <unicode hex="00BB"/>
  <outline>
    <contour>
      <point x="248" y="231" type="line"/>
      <point x="265" y="323" type="line"/>
      <point x="157" y="446" type="line"/>
      <point x="142" y="358" type="line"/>
      <point x="214" y="277" type="line"/>
      <point x="113" y="196" type="line"/>
      <point x="98" y="108" type="line"/>
    </contour>
    <contour>
      <point x="417" y="231" type="line"/>
      <point x="433" y="323" type="line"/>
      <point x="325" y="446" type="line"/>
      <point x="310" y="358" type="line"/>
      <point x="382" y="277" type="line"/>
      <point x="282" y="196" type="line"/>
      <point x="266" y="108" type="line"/>
    </contour>
  </outline>
</glyph>
<glyph name="onequarter" format="1">
  <advance width="684"/>
  <unicode hex="00BC"/>
  <outline>
    <contour>
      <point x="360" y="94" type="line"/>
      <point x="529" y="94" type="line"/>
      <point x="513" y="0" type="line"/>
      <point x="565" y="0" type="line"/>
      <point x="581" y="94" type="line"/>
      <point x="636" y="94" type="line"/>
      <point x="646" y="152" type="line"/>
      <point x="591" y="152" type="line"/>
      <point x="639" y="422" type="line"/>
      <point x="586" y="422" type="line"/>
      <point x="370" y="154" type="line"/>
    </contour>
    <contour>
      <point x="539" y="152" type="line"/>
      <point x="421" y="152" type="line"/>
      <point x="572" y="342" type="line"/>
    </contour>
    <contour>
      <point x="658" y="703" type="line"/>
      <point x="611" y="703" type="line"/>
      <point x="123" y="-19" type="line"/>
      <point x="170" y="-19" type="line"/>
    </contour>
    <contour>
      <point x="250" y="580" type="line"/>
      <point x="197" y="281" type="line"/>
      <point x="253" y="281" type="line"/>
      <point x="327" y="703" type="line"/>
      <point x="283" y="703" type="line"/>
      <point x="258" y="641"/>
      <point x="239" y="628"/>
      <point x="168" y="623" type="curve"/>
      <point x="161" y="580" type="line"/>
    </contour>
  </outline>
</glyph>
<glyph name="onehalf" format="1">
  <advance width="684"/>
  <unicode hex="00BD"/>
  <outline>
    <contour>
      <point x="629" y="703" type="line"/>
      <point x="582" y="703" type="line"/>
      <point x="93" y="-19" type="line"/>
      <point x="140" y="-19" type="line"/>
    </contour>
    <contour>
      <point x="224" y="577" type="line"/>
      <point x="172" y="281" type="line"/>
      <point x="231" y="281" type="line"/>
      <point x="304" y="703" type="line"/>
      <point x="258" y="703" type="line"/>
      <point x="233" y="641"/>
      <point x="215" y="628"/>
      <point x="143" y="623" type="curve"/>
      <point x="135" y="577" type="line"/>
    </contour>
    <contour>
      <point x="481" y="271" type="line"/>
      <point x="497" y="343"/>
      <point x="525" y="375"/>
      <point x="572" y="375" type="curve" smooth="yes"/>
      <point x="608" y="375"/>
      <point x="631" y="353"/>
      <point x="631" y="319" type="curve" smooth="yes"/>
      <point x="631" y="299"/>
      <point x="624" y="271"/>
      <point x="614" y="256" type="curve" smooth="yes"/>
      <point x="603" y="239"/>
      <point x="592" y="230"/>
      <point x="542" y="200" type="curve" smooth="yes"/>
      <point x="487" y="167" type="line" smooth="yes"/>
      <point x="424" y="129"/>
      <point x="389" y="78"/>
      <point x="372" y="0" type="curve"/>
      <point x="634" y="0" type="line"/>
      <point x="645" y="61" type="line"/>
      <point x="444" y="61" type="line"/>
      <point x="463" y="90"/>
      <point x="487" y="110"/>
      <point x="522" y="131" type="curve" smooth="yes"/>
      <point x="563" y="154" type="line" smooth="yes"/>
      <point x="615" y="183"/>
      <point x="638" y="201"/>
      <point x="657" y="227" type="curve" smooth="yes"/>
      <point x="677" y="254"/>
      <point x="688" y="289"/>
      <point x="688" y="324" type="curve" smooth="yes"/>
      <point x="688" y="390"/>
      <point x="649" y="433"/>
      <point x="588" y="433" type="curve" smooth="yes"/>
      <point x="548" y="433"/>
      <point x="510" y="417"/>
      <point x="483" y="388" type="curve" smooth="yes"/>
      <point x="457" y="360"/>
      <point x="444" y="330"/>
      <point x="432" y="271" type="curve"/>
    </contour>
  </outline>
</glyph>
<glyph name="threequarters" format="1">
  <advance width="684"/>
  <unicode hex="00BE"/>
  <outline>
    <contour>
      <point x="404" y="94" type="line"/>
      <point x="573" y="94" type="line"/>
      <point x="556" y="0" type="line"/>
      <point x="609" y="0" type="line"/>
      <point x="625" y="94" type="line"/>
      <point x="680" y="94" type="line"/>
      <point x="690" y="152" type="line"/>
      <point x="635" y="152" type="line"/>
      <point x="682" y="422" type="line"/>
      <point x="630" y="422" type="line"/>
      <point x="414" y="154" type="line"/>
    </contour>
    <contour>
      <point x="616" y="342" type="line"/>
      <point x="583" y="152" type="line"/>
      <point x="465" y="152" type="line"/>
    </contour>
    <contour>
      <point x="706" y="703" type="line"/>
      <point x="659" y="703" type="line"/>
      <point x="171" y="-19" type="line"/>
      <point x="218" y="-19" type="line"/>
    </contour>
    <contour>
      <point x="108" y="421" type="line"/>
      <point x="107" y="406"/>
      <point x="106" y="392"/>
      <point x="106" y="383" type="curve" smooth="yes"/>
      <point x="106" y="312"/>
      <point x="144" y="270"/>
      <point x="210" y="270" type="curve" smooth="yes"/>
      <point x="301" y="270"/>
      <point x="372" y="346"/>
      <point x="372" y="443" type="curve" smooth="yes"/>
      <point x="372" y="480"/>
      <point x="359" y="500"/>
      <point x="322" y="515" type="curve"/>
      <point x="365" y="532"/>
      <point x="390" y="573"/>
      <point x="390" y="625" type="curve" smooth="yes"/>
      <point x="390" y="681"/>
      <point x="352" y="714"/>
      <point x="290" y="714" type="curve" smooth="yes"/>
      <point x="213" y="714"/>
      <point x="164" y="668"/>
      <point x="144" y="576" type="curve"/>
      <point x="194" y="576" type="line"/>
      <point x="208" y="633"/>
      <point x="232" y="656"/>
      <point x="275" y="656" type="curve" smooth="yes"/>
      <point x="311" y="656"/>
      <point x="331" y="640"/>
      <point x="331" y="612" type="curve" smooth="yes"/>
      <point x="331" y="564"/>
      <point x="300" y="533"/>
      <point x="251" y="533" type="curve" smooth="yes"/>
      <point x="229" y="533" type="line"/>
      <point x="220" y="482" type="line"/>
      <point x="239" y="482" type="line" smooth="yes"/>
      <point x="292" y="482"/>
      <point x="313" y="467"/>
      <point x="313" y="429" type="curve" smooth="yes"/>
      <point x="313" y="368"/>
      <point x="277" y="328"/>
      <point x="221" y="328" type="curve" smooth="yes"/>
      <point x="182" y="328"/>
      <point x="162" y="350"/>
      <point x="162" y="393" type="curve" smooth="yes"/>
      <point x="162" y="400"/>
      <point x="163" y="410"/>
      <point x="164" y="421" type="curve"/>
    </contour>
  </outline>
</glyph>
<glyph name="questiondown" format="1">
  <advance width="501"/>
  <unicode hex="00BF"/>
  <outline>
    <contour>
      <point x="366" y="33" type="line"/>
      <point x="345" y="-75"/>
      <point x="302" y="-125"/>
      <point x="230" y="-125" type="curve" smooth="yes"/>
      <point x="178" y="-125"/>
      <point x="148" y="-93"/>
      <point x="148" y="-38" type="curve" smooth="yes"/>
      <point x="148" y="-8"/>
      <point x="156" y="24"/>
      <point x="169" y="46" type="curve" smooth="yes"/>
      <point x="178" y="63"/>
      <point x="194" y="81"/>
      <point x="240" y="128" type="curve" smooth="yes"/>
      <point x="320" y="210"/>
      <point x="336" y="238"/>
      <point x="355" y="343" type="curve"/>
      <point x="283" y="343" type="line"/>
      <point x="268" y="255"/>
      <point x="255" y="232"/>
      <point x="180" y="160" type="curve" smooth="yes"/>
      <point x="138" y="120"/>
      <point x="118" y="96"/>
      <point x="103" y="74" type="curve" smooth="yes"/>
      <point x="82" y="40"/>
      <point x="70" y="-5"/>
      <point x="70" y="-50" type="curve" smooth="yes"/>
      <point x="70" y="-142"/>
      <point x="127" y="-201"/>
      <point x="213" y="-201" type="curve" smooth="yes"/>
      <point x="269" y="-201"/>
      <point x="323" y="-176"/>
      <point x="366" y="-132" type="curve" smooth="yes"/>
      <point x="403" y="-92"/>
      <point x="419" y="-56"/>
      <point x="438" y="33" type="curve"/>
    </contour>
    <contour>
      <point x="291" y="423" type="line"/>
      <point x="371" y="423" type="line"/>
      <point x="388" y="525" type="line"/>
      <point x="309" y="525" type="line"/>
    </contour>
  </outline>
</glyph>
<glyph name="Atilde" format="1">
  <advance width="547"/>
  <unicode hex="00C3"/>
  <outline>
    <contour>
      <point x="427" y="209" type="line"/>
      <point x="449" y="0" type="line"/>
      <point x="536" y="0" type="line"/>
      <point x="448" y="718" type="line"/>
      <point x="358" y="718" type="line"/>
      <point x="11" y="0" type="line"/>
      <point x="93" y="0" type="line"/>
      <point x="191" y="209" type="line"/>
    </contour>
    <contour>
      <point x="231" y="295" type="line"/>
      <point x="381" y="614" type="line"/>
      <point x="414" y="295" type="line"/>
    </contour>
    <contour>
      <point x="532" y="917" type="line"/>
      <point x="520" y="884"/>
      <point x="507" y="871"/>
      <point x="485" y="871" type="curve" smooth="yes"/>
      <point x="476" y="871"/>
      <point x="462" y="876"/>
      <point x="447" y="884" type="curve" smooth="yes"/>
      <point x="430" y="893" type="line" smooth="yes"/>
      <point x="412" y="903"/>
      <point x="393" y="908"/>
      <point x="377" y="908" type="curve" smooth="yes"/>
      <point x="328" y="908"/>
      <point x="296" y="875"/>
      <point x="273" y="801" type="curve"/>
      <point x="312" y="801" type="line"/>
      <point x="326" y="833"/>
      <point x="339" y="845"/>
      <point x="359" y="845" type="curve" smooth="yes"/>
      <point x="369" y="845"/>
      <point x="383" y="841"/>
      <point x="406" y="830" type="curve" smooth="yes"/>
      <point x="426" y="821" type="line" smooth="yes"/>
      <point x="446" y="812"/>
      <point x="459" y="808"/>
      <point x="471" y="808" type="curve" smooth="yes"/>
      <point x="516" y="808"/>
      <point x="551" y="846"/>
      <point x="573" y="917" type="curve"/>
    </contour>
  </outline>
</glyph>
<glyph name="Adieresis" format="1">
  <advance width="547"/>
  <unicode hex="00C4"/>
  <outline>
    <contour>
      <point x="427" y="209" type="line"/>
      <point x="449" y="0" type="line"/>
      <point x="536" y="0" type="line"/>
      <point x="448" y="718" type="line"/>
      <point x="358" y="718" type="line"/>
      <point x="11" y="0" type="line"/>
      <point x="93" y="0" type="line"/>
      <point x="191" y="209" type="line"/>
    </contour>
    <contour>
      <point x="231" y="295" type="line"/>
      <point x="381" y="614" type="line"/>
      <point x="414" y="295" type="line"/>
    </contour>
    <contour>
      <point x="401" y="901" type="line"/>
      <point x="327" y="901" type="line"/>
      <point x="309" y="799" type="line"/>
      <point x="384" y="799" type="line"/>
    </contour>
    <contour>
      <point x="534" y="901" type="line"/>
      <point x="459" y="901" type="line"/>
      <point x="442" y="799" type="line"/>
      <point x="516" y="799" type="line"/>
    </contour>
  </outline>
</glyph>
<glyph name="Aring" format="1">
  <advance width="547"/>
  <unicode hex="00C5"/>
  <outline>
    <contour>
      <point x="427" y="209" type="line"/>
      <point x="449" y="0" type="line"/>
      <point x="536" y="0" type="line"/>
      <point x="448" y="718" type="line"/>
      <point x="358" y="718" type="line"/>
      <point x="11" y="0" type="line"/>
      <point x="93" y="0" type="line"/>
      <point x="191" y="209" type="line"/>
    </contour>
    <contour>
      <point x="231" y="295" type="line"/>
      <point x="381" y="614" type="line"/>
      <point x="414" y="295" type="line"/>
    </contour>
    <contour>
      <point x="439" y="944" type="curve" smooth="yes"/>
      <point x="388" y="944"/>
      <point x="345" y="892"/>
      <point x="345" y="831" type="curve" smooth="yes"/>
      <point x="345" y="788"/>
      <point x="370" y="760"/>
      <point x="406" y="760" type="curve" smooth="yes"/>
      <point x="456" y="760"/>
      <point x="500" y="812"/>
      <point x="500" y="873" type="curve" smooth="yes"/>
      <point x="500" y="915"/>
      <point x="475" y="944"/>
    </contour>
    <contour>
      <point x="432" y="904" type="curve" smooth="yes"/>
      <point x="451" y="904"/>
      <point x="466" y="887"/>
      <point x="466" y="863" type="curve" smooth="yes"/>
      <point x="466" y="831"/>
      <point x="440" y="800"/>
      <point x="413" y="800" type="curve" smooth="yes"/>
      <point x="393" y="800"/>
      <point x="379" y="817"/>
      <point x="379" y="841" type="curve" smooth="yes"/>
      <point x="379" y="874"/>
      <point x="404" y="904"/>
    </contour>
  </outline>
</glyph>
<glyph name="AE" format="1">
  <advance width="820"/>
  <unicode hex="00C6"/>
  <outline>
    <contour>
      <point x="194" y="209" type="line"/>
      <point x="411" y="209" type="line"/>
      <point x="375" y="0" type="line"/>
      <point x="780" y="0" type="line"/>
      <point x="795" y="86" type="line"/>
      <point x="469" y="86" type="line"/>
      <point x="511" y="326" type="line"/>
      <point x="803" y="326" type="line"/>
      <point x="818" y="412" type="line"/>
      <point x="526" y="412" type="line"/>
      <point x="564" y="632" type="line"/>
      <point x="884" y="632" type="line"/>
      <point x="899" y="718" type="line"/>
      <point x="371" y="718" type="line"/>
      <point x="7" y="0" type="line"/>
      <point x="93" y="0" type="line"/>
    </contour>
    <contour>
      <point x="426" y="295" type="line"/>
      <point x="238" y="295" type="line"/>
      <point x="406" y="632" type="line"/>
      <point x="485" y="632" type="line"/>
    </contour>
  </outline>
</glyph>
<glyph name="Ccedilla" format="1">
  <advance width="592"/>
  <unicode hex="00C7"/>
  <outline>
    <contour>
      <point x="300" y="-19" type="line"/>
      <point x="347" y="-18"/>
      <point x="393" y="-5"/>
      <point x="434" y="19" type="curve" smooth="yes"/>
      <point x="518" y="73"/>
      <point x="552" y="122"/>
      <point x="604" y="264" type="curve"/>
      <point x="527" y="264" type="line"/>
      <point x="503" y="201"/>
      <point x="488" y="172"/>
      <point x="462" y="140" type="curve" smooth="yes"/>
      <point x="421" y="91"/>
      <point x="374" y="67"/>
      <point x="319" y="67" type="curve" smooth="yes"/>
      <point x="223" y="67"/>
      <point x="171" y="133"/>
      <point x="171" y="255" type="curve" smooth="yes"/>
      <point x="171" y="360"/>
      <point x="201" y="475"/>
      <point x="247" y="543" type="curve" smooth="yes"/>
      <point x="293" y="613"/>
      <point x="356" y="651"/>
      <point x="425" y="651" type="curve" smooth="yes"/>
      <point x="467" y="651"/>
      <point x="503" y="637"/>
      <point x="526" y="612" type="curve" smooth="yes"/>
      <point x="551" y="586"/>
      <point x="560" y="559"/>
      <point x="562" y="502" type="curve"/>
      <point x="639" y="502" type="line"/>
      <point x="640" y="513"/>
      <point x="640" y="521"/>
      <point x="640" y="527" type="curve" smooth="yes"/>
      <point x="640" y="656"/>
      <point x="562" y="737"/>
      <point x="439" y="737" type="curve" smooth="yes"/>
      <point x="346" y="737"/>
      <point x="262" y="692"/>
      <point x="198" y="607" type="curve" smooth="yes"/>
      <point x="130" y="518"/>
      <point x="88" y="377"/>
      <point x="88" y="243" type="curve" smooth="yes"/>
      <point x="88" y="93"/>
      <point x="151" y="0"/>
      <point x="264" y="-17" type="curve"/>
      <point x="209" y="-86" type="line"/>
      <point x="220" y="-105" type="line"/>
      <point x="237" y="-99"/>
      <point x="246" y="-97"/>
      <point x="253" y="-97" type="curve" smooth="yes"/>
      <point x="272" y="-97"/>
      <point x="286" y="-110"/>
      <point x="286" y="-128" type="curve" smooth="yes"/>
      <point x="286" y="-158"/>
      <point x="264" y="-178"/>
      <point x="231" y="-178" type="curve" smooth="yes"/>
      <point x="215" y="-178"/>
      <point x="204" y="-175"/>
      <point x="182" y="-163" type="curve"/>
      <point x="161" y="-203" type="line"/>
      <point x="190" y="-219"/>
      <point x="211" y="-225"/>
      <point x="236" y="-225" type="curve" smooth="yes"/>
      <point x="300" y="-225"/>
      <point x="350" y="-177"/>
      <point x="350" y="-116" type="curve" smooth="yes"/>
      <point x="350" y="-80"/>
      <point x="329" y="-58"/>
      <point x="294" y="-58" type="curve" smooth="yes"/>
      <point x="286" y="-58"/>
      <point x="280" y="-59"/>
      <point x="267" y="-62" type="curve"/>
    </contour>
  </outline>
</glyph>
<glyph name="Egrave" format="1">
  <advance width="547"/>
  <unicode hex="00C8"/>
  <outline>
    <contour>
      <point x="521" y="86" type="line"/>
      <point x="166" y="86" type="line"/>
      <point x="207" y="326" type="line"/>
      <point x="530" y="326" type="line"/>
      <point x="545" y="412" type="line"/>
      <point x="222" y="412" type="line"/>
      <point x="261" y="632" type="line"/>
      <point x="610" y="632" type="line"/>
      <point x="625" y="718" type="line"/>
      <point x="196" y="718" type="line"/>
      <point x="71" y="0" type="line"/>
      <point x="506" y="0" type="line"/>
    </contour>
    <contour>
      <point x="393" y="788" type="line"/>
      <point x="448" y="788" type="line"/>
      <point x="400" y="929" type="line"/>
      <point x="311" y="929" type="line"/>
    </contour>
  </outline>
</glyph>
<glyph name="Eacute" format="1">
  <advance width="547"/>
  <unicode hex="00C9"/>
  <outline>
    <contour>
      <point x="521" y="86" type="line"/>
      <point x="166" y="86" type="line"/>
      <point x="207" y="326" type="line"/>
      <point x="530" y="326" type="line"/>
      <point x="545" y="412" type="line"/>
      <point x="222" y="412" type="line"/>
      <point x="261" y="632" type="line"/>
      <point x="610" y="632" type="line"/>
      <point x="625" y="718" type="line"/>
      <point x="196" y="718" type="line"/>
      <point x="71" y="0" type="line"/>
      <point x="506" y="0" type="line"/>
    </contour>
    <contour>
      <point x="562" y="929" type="line"/>
      <point x="473" y="929" type="line"/>
      <point x="375" y="788" type="line"/>
      <point x="430" y="788" type="line"/>
    </contour>
  </outline>
</glyph>
<glyph name="Iacute" format="1">
  <advance width="228"/>
  <unicode hex="00CD"/>
  <outline>
    <contour>
      <point x="279" y="718" type="line"/>
      <point x="200" y="718" type="line"/>
      <point x="75" y="0" type="line"/>
      <point x="154" y="0" type="line"/>
    </contour>
    <contour>
      <point x="401" y="929" type="line"/>
      <point x="312" y="929" type="line"/>
      <point x="214" y="788" type="line"/>
      <point x="269" y="788" type="line"/>
    </contour>
  </outline>
</glyph>
<glyph name="Icircumflex" format="1">
  <advance width="228"/>
  <unicode hex="00CE"/>
  <outline>
    <contour>
      <point x="279" y="718" type="line"/>
      <point x="200" y="718" type="line"/>
      <point x="75" y="0" type="line"/>
      <point x="154" y="0" type="line"/>
    </contour>
    <contour>
      <point x="267" y="881" type="line"/>
      <point x="305" y="788" type="line"/>
      <point x="370" y="788" type="line"/>
      <point x="314" y="929" type="line"/>
      <point x="238" y="929" type="line"/>
      <point x="132" y="788" type="line"/>
      <point x="197" y="788" type="line"/>
    </contour>
  </outline>
</glyph>
<glyph name="Idieresis" format="1">
  <advance width="228"/>
  <unicode hex="00CF"/>
  <outline>
    <contour>
      <point x="279" y="718" type="line"/>
      <point x="200" y="718" type="line"/>
      <point x="75" y="0" type="line"/>
      <point x="154" y="0" type="line"/>
    </contour>
    <contour>
      <point x="242" y="901" type="line"/>
      <point x="168" y="901" type="line"/>
      <point x="150" y="799" type="line"/>
      <point x="225" y="799" type="line"/>
    </contour>
    <contour>
      <point x="375" y="901" type="line"/>
      <point x="301" y="901" type="line"/>
      <point x="283" y="799" type="line"/>
      <point x="357" y="799" type="line"/>
    </contour>
  </outline>
</glyph>
<glyph name="Eth" format="1">
  <advance width="592"/>
  <unicode hex="00D0"/>
  <outline>
    <contour>
      <point x="57" y="326" type="line"/>
      <point x="123" y="326" type="line"/>
      <point x="67" y="0" type="line"/>
      <point x="302" y="0" type="line" smooth="yes"/>
      <point x="407" y="0"/>
      <point x="494" y="61"/>
      <point x="553" y="178" type="curve" smooth="yes"/>
      <point x="599" y="267"/>
      <point x="626" y="375"/>
      <point x="626" y="470" type="curve" smooth="yes"/>
      <point x="626" y="625"/>
      <point x="553" y="718"/>
      <point x="430" y="718" type="curve" smooth="yes"/>
      <point x="192" y="718" type="line"/>
      <point x="138" y="412" type="line"/>
      <point x="72" y="412" type="line"/>
    </contour>
    <contour>
      <point x="375" y="412" type="line"/>
      <point x="218" y="412" type="line"/>
      <point x="257" y="635" type="line"/>
      <point x="405" y="635" type="line" smooth="yes"/>
      <point x="494" y="635"/>
      <point x="542" y="573"/>
      <point x="542" y="461" type="curve" smooth="yes"/>
      <point x="542" y="361"/>
      <point x="511" y="245"/>
      <point x="468" y="178" type="curve" smooth="yes"/>
      <point x="427" y="116"/>
      <point x="374" y="83"/>
      <point x="315" y="83" type="curve" smooth="yes"/>
      <point x="161" y="83" type="line"/>
      <point x="203" y="326" type="line"/>
      <point x="360" y="326" type="line"/>
    </contour>
  </outline>
</glyph>
<glyph name="Ntilde" format="1">
  <advance width="592"/>
  <unicode hex="00D1"/>
  <outline>
    <contour>
      <point x="476" y="135" type="line"/>
      <point x="282" y="718" type="line"/>
      <point x="187" y="718" type="line"/>
      <point x="62" y="0" type="line"/>
      <point x="139" y="0" type="line"/>
      <point x="241" y="583" type="line"/>
      <point x="440" y="0" type="line"/>
      <point x="530" y="0" type="line"/>
      <point x="655" y="718" type="line"/>
      <point x="578" y="718" type="line"/>
    </contour>
    <contour>
      <point x="555" y="917" type="line"/>
      <point x="543" y="884"/>
      <point x="530" y="871"/>
      <point x="508" y="871" type="curve" smooth="yes"/>
      <point x="499" y="871"/>
      <point x="485" y="876"/>
      <point x="470" y="884" type="curve" smooth="yes"/>
      <point x="453" y="893" type="line" smooth="yes"/>
      <point x="435" y="903"/>
      <point x="416" y="908"/>
      <point x="400" y="908" type="curve" smooth="yes"/>
      <point x="351" y="908"/>
      <point x="319" y="875"/>
      <point x="296" y="801" type="curve"/>
      <point x="335" y="801" type="line"/>
      <point x="349" y="833"/>
      <point x="362" y="845"/>
      <point x="382" y="845" type="curve" smooth="yes"/>
      <point x="392" y="845"/>
      <point x="406" y="841"/>
      <point x="429" y="830" type="curve" smooth="yes"/>
      <point x="449" y="821" type="line" smooth="yes"/>
      <point x="469" y="812"/>
      <point x="482" y="808"/>
      <point x="494" y="808" type="curve" smooth="yes"/>
      <point x="539" y="808"/>
      <point x="574" y="846"/>
      <point x="596" y="917" type="curve"/>
    </contour>
  </outline>
</glyph>
<glyph name="Otilde" format="1">
  <advance width="638"/>
  <unicode hex="00D5"/>
  <outline>
    <contour>
      <point x="447" y="737" type="curve" smooth="yes"/>
      <point x="349" y="737"/>
      <point x="263" y="691"/>
      <point x="196" y="603" type="curve" smooth="yes"/>
      <point x="128" y="512"/>
      <point x="86" y="383"/>
      <point x="86" y="261" type="curve" smooth="yes"/>
      <point x="86" y="173"/>
      <point x="114" y="86"/>
      <point x="156" y="42" type="curve" smooth="yes"/>
      <point x="193" y="3"/>
      <point x="251" y="-19"/>
      <point x="316" y="-19" type="curve" smooth="yes"/>
      <point x="415" y="-19"/>
      <point x="499" y="26"/>
      <point x="566" y="115" type="curve" smooth="yes"/>
      <point x="635" y="207"/>
      <point x="677" y="335"/>
      <point x="677" y="456" type="curve" smooth="yes"/>
      <point x="677" y="634"/>
      <point x="593" y="737"/>
    </contour>
    <contour>
      <point x="432" y="651" type="curve" smooth="yes"/>
      <point x="533" y="651"/>
      <point x="594" y="573"/>
      <point x="594" y="445" type="curve" smooth="yes"/>
      <point x="594" y="366"/>
      <point x="574" y="283"/>
      <point x="540" y="216" type="curve" smooth="yes"/>
      <point x="491" y="121"/>
      <point x="415" y="67"/>
      <point x="330" y="67" type="curve" smooth="yes"/>
      <point x="230" y="67"/>
      <point x="169" y="145"/>
      <point x="169" y="274" type="curve" smooth="yes"/>
      <point x="169" y="482"/>
      <point x="287" y="651"/>
    </contour>
    <contour>
      <point x="578" y="917" type="line"/>
      <point x="566" y="884"/>
      <point x="553" y="871"/>
      <point x="531" y="871" type="curve" smooth="yes"/>
      <point x="522" y="871"/>
      <point x="508" y="876"/>
      <point x="493" y="884" type="curve" smooth="yes"/>
      <point x="476" y="893" type="line" smooth="yes"/>
      <point x="458" y="903"/>
      <point x="439" y="908"/>
      <point x="423" y="908" type="curve" smooth="yes"/>
      <point x="374" y="908"/>
      <point x="342" y="875"/>
      <point x="319" y="801" type="curve"/>
      <point x="358" y="801" type="line"/>
      <point x="372" y="833"/>
      <point x="385" y="845"/>
      <point x="405" y="845" type="curve" smooth="yes"/>
      <point x="415" y="845"/>
      <point x="429" y="841"/>
      <point x="452" y="830" type="curve" smooth="yes"/>
      <point x="472" y="821" type="line" smooth="yes"/>
      <point x="492" y="812"/>
      <point x="505" y="808"/>
      <point x="517" y="808" type="curve" smooth="yes"/>
      <point x="562" y="808"/>
      <point x="597" y="846"/>
      <point x="619" y="917" type="curve"/>
    </contour>
  </outline>
</glyph>
<glyph name="multiply" format="1">
  <advance width="479"/>
  <unicode hex="00D7"/>
  <outline>
    <contour>
      <point x="242" y="253" type="line"/>
      <point x="41" y="51" type="line"/>
      <point x="74" y="0" type="line"/>
      <point x="274" y="201" type="line"/>
      <point x="405" y="0" type="line"/>
      <point x="456" y="51" type="line"/>
      <point x="326" y="253" type="line"/>
      <point x="526" y="455" type="line"/>
      <point x="493" y="506" type="line"/>
      <point x="293" y="305" type="line"/>
      <point x="163" y="506" type="line"/>
      <point x="111" y="455" type="line"/>
    </contour>
  </outline>
</glyph>
<glyph name="Oslash" format="1">
  <advance width="638"/>
  <unicode hex="00D8"/>
  <outline>
    <contour>
      <point x="730" y="707" type="line"/>
      <point x="710" y="737" type="line"/>
      <point x="628" y="648" type="line"/>
      <point x="582" y="711"/>
      <point x="529" y="737"/>
      <point x="449" y="737" type="curve" smooth="yes"/>
      <point x="348" y="737"/>
      <point x="264" y="692"/>
      <point x="197" y="603" type="curve" smooth="yes"/>
      <point x="128" y="512"/>
      <point x="86" y="382"/>
      <point x="86" y="263" type="curve" smooth="yes"/>
      <point x="86" y="199"/>
      <point x="94" y="159"/>
      <point x="119" y="99" type="curve"/>
      <point x="35" y="9" type="line"/>
      <point x="56" y="-19" type="line"/>
      <point x="137" y="68" type="line"/>
      <point x="183" y="6"/>
      <point x="236" y="-19"/>
      <point x="315" y="-19" type="curve" smooth="yes"/>
      <point x="415" y="-19"/>
      <point x="499" y="26"/>
      <point x="566" y="115" type="curve" smooth="yes"/>
      <point x="635" y="207"/>
      <point x="677" y="335"/>
      <point x="677" y="455" type="curve" smooth="yes"/>
      <point x="677" y="518"/>
      <point x="670" y="556"/>
      <point x="646" y="616" type="curve"/>
    </contour>
    <contour>
      <point x="578" y="543" type="line"/>
      <point x="590" y="505"/>
      <point x="594" y="481"/>
      <point x="594" y="443" type="curve" smooth="yes"/>
      <point x="594" y="352"/>
      <point x="565" y="250"/>
      <point x="519" y="181" type="curve" smooth="yes"/>
      <point x="469" y="107"/>
      <point x="403" y="67"/>
      <point x="330" y="67" type="curve" smooth="yes"/>
      <point x="273" y="67"/>
      <point x="235" y="88"/>
      <point x="202" y="138" type="curve"/>
    </contour>
    <contour>
      <point x="185" y="171" type="line"/>
      <point x="173" y="211"/>
      <point x="169" y="237"/>
      <point x="169" y="276" type="curve" smooth="yes"/>
      <point x="169" y="366"/>
      <point x="199" y="469"/>
      <point x="244" y="537" type="curve" smooth="yes"/>
      <point x="293" y="611"/>
      <point x="360" y="651"/>
      <point x="433" y="651" type="curve" smooth="yes"/>
      <point x="491" y="651"/>
      <point x="530" y="629"/>
      <point x="563" y="578" type="curve"/>
    </contour>
  </outline>
</glyph>
<glyph name="Udieresis" format="1">
  <advance width="592"/>
  <unicode hex="00DC"/>
  <outline>
    <contour>
      <point x="574" y="718" type="line"/>
      <point x="494" y="264" type="line" smooth="yes"/>
      <point x="473" y="139"/>
      <point x="404" y="67"/>
      <point x="307" y="67" type="curve" smooth="yes"/>
      <point x="228" y="67"/>
      <point x="185" y="115"/>
      <point x="185" y="202" type="curve" smooth="yes"/>
      <point x="185" y="223"/>
      <point x="187" y="245"/>
      <point x="191" y="266" type="curve" smooth="yes"/>
      <point x="269" y="718" type="line"/>
      <point x="190" y="718" type="line"/>
      <point x="106" y="239" type="line" smooth="yes"/>
      <point x="103" y="218"/>
      <point x="101" y="197"/>
      <point x="101" y="176" type="curve" smooth="yes"/>
      <point x="101" y="52"/>
      <point x="169" y="-19"/>
      <point x="289" y="-19" type="curve" smooth="yes"/>
      <point x="433" y="-19"/>
      <point x="543" y="87"/>
      <point x="572" y="252" type="curve" smooth="yes"/>
      <point x="653" y="718" type="line"/>
    </contour>
    <contour>
      <point x="424" y="901" type="line"/>
      <point x="350" y="901" type="line"/>
      <point x="332" y="799" type="line"/>
      <point x="407" y="799" type="line"/>
    </contour>
    <contour>
      <point x="557" y="901" type="line"/>
      <point x="482" y="901" type="line"/>
      <point x="465" y="799" type="line"/>
      <point x="539" y="799" type="line"/>
    </contour>
  </outline>
</glyph>
<glyph name="Yacute" format="1">
  <advance width="547"/>
  <unicode hex="00DD"/>
  <outline>
    <contour>
      <point x="364" y="289" type="line"/>
      <point x="661" y="718" type="line"/>
      <point x="568" y="718" type="line"/>
      <point x="338" y="373" type="line"/>
      <point x="230" y="718" type="line"/>
      <point x="137" y="718" type="line"/>
      <point x="284" y="289" type="line"/>
      <point x="234" y="0" type="line"/>
      <point x="314" y="0" type="line"/>
    </contour>
    <contour>
      <point x="562" y="929" type="line"/>
      <point x="473" y="929" type="line"/>
      <point x="375" y="788" type="line"/>
      <point x="430" y="788" type="line"/>
    </contour>
  </outline>
</glyph>
<glyph name="Thorn" format="1">
  <advance width="547"/>
  <unicode hex="00DE"/>
  <outline>
    <contour>
      <point x="71" y="0" type="line"/>
      <point x="151" y="0" type="line"/>
      <point x="183" y="184" type="line"/>
      <point x="368" y="184" type="line" smooth="yes"/>
      <point x="431" y="184"/>
      <point x="484" y="211"/>
      <point x="524" y="264" type="curve" smooth="yes"/>
      <point x="561" y="313"/>
      <point x="584" y="382"/>
      <point x="584" y="445" type="curve" smooth="yes"/>
      <point x="584" y="540"/>
      <point x="529" y="599"/>
      <point x="440" y="599" type="curve" smooth="yes"/>
      <point x="255" y="599" type="line"/>
      <point x="276" y="718" type="line"/>
      <point x="196" y="718" type="line"/>
    </contour>
    <contour>
      <point x="241" y="516" type="line"/>
      <point x="402" y="516" type="line" smooth="yes"/>
      <point x="467" y="516"/>
      <point x="501" y="487"/>
      <point x="501" y="430" type="curve" smooth="yes"/>
      <point x="501" y="392"/>
      <point x="489" y="348"/>
      <point x="471" y="321" type="curve" smooth="yes"/>
      <point x="446" y="285"/>
      <point x="408" y="267"/>
      <point x="355" y="267" type="curve" smooth="yes"/>
      <point x="197" y="267" type="line"/>
    </contour>
  </outline>
</glyph>
<glyph name="germandbls" format="1">
  <advance width="501"/>
  <unicode hex="00DF"/>
  <outline>
    <contour>
      <point x="216" y="-8" type="line"/>
      <point x="219" y="-9" type="line" smooth="yes"/>
      <point x="235" y="-14"/>
      <point x="244" y="-15"/>
      <point x="259" y="-15" type="curve" smooth="yes"/>
      <point x="335" y="-15"/>
      <point x="401" y="17"/>
      <point x="445" y="77" type="curve" smooth="yes"/>
      <point x="486" y="132"/>
      <point x="512" y="207"/>
      <point x="512" y="270" type="curve" smooth="yes"/>
      <point x="512" y="312"/>
      <point x="497" y="357"/>
      <point x="475" y="380" type="curve"/>
      <point x="467" y="387"/>
      <point x="459" y="393"/>
      <point x="443" y="400" type="curve"/>
      <point x="506" y="444"/>
      <point x="539" y="507"/>
      <point x="539" y="584" type="curve" smooth="yes"/>
      <point x="539" y="674"/>
      <point x="476" y="728"/>
      <point x="371" y="728" type="curve" smooth="yes"/>
      <point x="254" y="728"/>
      <point x="169" y="653"/>
      <point x="148" y="532" type="curve" smooth="yes"/>
      <point x="55" y="0" type="line"/>
      <point x="127" y="0" type="line"/>
      <point x="216" y="510" type="line" smooth="yes"/>
      <point x="234" y="609"/>
      <point x="276" y="652"/>
      <point x="356" y="652" type="curve" smooth="yes"/>
      <point x="425" y="652"/>
      <point x="464" y="620"/>
      <point x="464" y="563" type="curve" smooth="yes"/>
      <point x="464" y="482"/>
      <point x="406" y="427"/>
      <point x="319" y="427" type="curve" smooth="yes"/>
      <point x="313" y="427"/>
      <point x="302" y="428"/>
      <point x="297" y="429" type="curve"/>
      <point x="283" y="350" type="line"/>
      <point x="293" y="353"/>
      <point x="303" y="354"/>
      <point x="315" y="354" type="curve" smooth="yes"/>
      <point x="396" y="354"/>
      <point x="435" y="321"/>
      <point x="435" y="254" type="curve" smooth="yes"/>
      <point x="435" y="211"/>
      <point x="421" y="161"/>
      <point x="400" y="130" type="curve" smooth="yes"/>
      <point x="371" y="86"/>
      <point x="325" y="64"/>
      <point x="266" y="64" type="curve" smooth="yes"/>
      <point x="254" y="64"/>
      <point x="242" y="65"/>
      <point x="230" y="67" type="curve"/>
    </contour>
  </outline>
</glyph>
<glyph name="atilde" format="1">
  <advance width="456"/>
  <unicode hex="00E3"/>
  <outline>
    <contour>
      <point x="180" y="364" type="line"/>
      <point x="203" y="438"/>
      <point x="235" y="465"/>
      <point x="298" y="465" type="curve" smooth="yes"/>
      <point x="354" y="465"/>
      <point x="384" y="442"/>
      <point x="384" y="400" type="curve" smooth="yes"/>
      <point x="384" y="353"/>
      <point x="366" y="323"/>
      <point x="334" y="318" type="curve" smooth="yes"/>
      <point x="212" y="300" type="line" smooth="yes"/>
      <point x="115" y="286"/>
      <point x="50" y="206"/>
      <point x="50" y="101" type="curve" smooth="yes"/>
      <point x="50" y="29"/>
      <point x="93" y="-15"/>
      <point x="164" y="-15" type="curve" smooth="yes"/>
      <point x="225" y="-15"/>
      <point x="274" y="10"/>
      <point x="331" y="70" type="curve"/>
      <point x="330" y="61"/>
      <point x="329" y="51"/>
      <point x="329" y="46" type="curve" smooth="yes"/>
      <point x="329" y="10"/>
      <point x="351" y="-10"/>
      <point x="391" y="-10" type="curve" smooth="yes"/>
      <point x="402" y="-10"/>
      <point x="409" y="-9"/>
      <point x="425" y="-3" type="curve" smooth="yes"/>
      <point x="434" y="0" type="line"/>
      <point x="446" y="64" type="line"/>
      <point x="433" y="61"/>
      <point x="426" y="60"/>
      <point x="420" y="60" type="curve" smooth="yes"/>
      <point x="408" y="60"/>
      <point x="400" y="69"/>
      <point x="401" y="80" type="curve"/>
      <point x="401" y="81"/>
      <point x="402" y="85"/>
      <point x="403" y="91" type="curve" smooth="yes"/>
      <point x="455" y="392" type="line" smooth="yes"/>
      <point x="457" y="402"/>
      <point x="458" y="413"/>
      <point x="458" y="423" type="curve" smooth="yes"/>
      <point x="458" y="495"/>
      <point x="405" y="538"/>
      <point x="316" y="538" type="curve" smooth="yes"/>
      <point x="250" y="538"/>
      <point x="193" y="513"/>
      <point x="159" y="469" type="curve" smooth="yes"/>
      <point x="137" y="441"/>
      <point x="126" y="416"/>
      <point x="114" y="364" type="curve"/>
    </contour>
    <contour>
      <point x="346" y="181" type="line" smooth="yes"/>
      <point x="335" y="114"/>
      <point x="263" y="58"/>
      <point x="190" y="58" type="curve" smooth="yes"/>
      <point x="149" y="58"/>
      <point x="127" y="80"/>
      <point x="127" y="121" type="curve" smooth="yes"/>
      <point x="127" y="187"/>
      <point x="160" y="221"/>
      <point x="236" y="234" type="curve" smooth="yes"/>
      <point x="322" y="248"/>
      <point x="344" y="253"/>
      <point x="361" y="267" type="curve"/>
    </contour>
    <contour>
      <point x="445" y="722" type="line"/>
      <point x="433" y="689"/>
      <point x="420" y="676"/>
      <point x="398" y="676" type="curve" smooth="yes"/>
      <point x="389" y="676"/>
      <point x="375" y="681"/>
      <point x="360" y="689" type="curve" smooth="yes"/>
      <point x="343" y="698" type="line" smooth="yes"/>
      <point x="325" y="708"/>
      <point x="306" y="713"/>
      <point x="290" y="713" type="curve" smooth="yes"/>
      <point x="241" y="713"/>
      <point x="209" y="680"/>
      <point x="186" y="606" type="curve"/>
      <point x="225" y="606" type="line"/>
      <point x="239" y="638"/>
      <point x="252" y="650"/>
      <point x="272" y="650" type="curve" smooth="yes"/>
      <point x="282" y="650"/>
      <point x="296" y="646"/>
      <point x="319" y="635" type="curve" smooth="yes"/>
      <point x="339" y="626" type="line" smooth="yes"/>
      <point x="359" y="617"/>
      <point x="372" y="613"/>
      <point x="384" y="613" type="curve" smooth="yes"/>
      <point x="429" y="613"/>
      <point x="464" y="651"/>
      <point x="486" y="722" type="curve"/>
    </contour>
  </outline>
</glyph>
<glyph name="ae" format="1">
  <advance width="729"/>
  <unicode hex="00E6"/>
  <outline>
    <contour>
      <point x="645" y="164" type="line"/>
      <point x="627" y="104"/>
      <point x="572" y="61"/>
      <point x="513" y="61" type="curve" smooth="yes"/>
      <point x="453" y="61"/>
      <point x="416" y="103"/>
      <point x="416" y="171" type="curve" smooth="yes"/>
      <point x="416" y="186"/>
      <point x="418" y="208"/>
      <point x="422" y="233" type="curve"/>
      <point x="735" y="233" type="line"/>
      <point x="742" y="282"/>
      <point x="746" y="323"/>
      <point x="746" y="354" type="curve" smooth="yes"/>
      <point x="746" y="399"/>
      <point x="733" y="449"/>
      <point x="714" y="482" type="curve" smooth="yes"/>
      <point x="692" y="518"/>
      <point x="652" y="538"/>
      <point x="601" y="538" type="curve" smooth="yes"/>
      <point x="541" y="538"/>
      <point x="504" y="520"/>
      <point x="448" y="464" type="curve"/>
      <point x="414" y="521"/>
      <point x="385" y="538"/>
      <point x="322" y="538" type="curve" smooth="yes"/>
      <point x="250" y="538"/>
      <point x="195" y="515"/>
      <point x="159" y="469" type="curve" smooth="yes"/>
      <point x="137" y="441"/>
      <point x="126" y="416"/>
      <point x="114" y="364" type="curve"/>
      <point x="180" y="364" type="line"/>
      <point x="203" y="437"/>
      <point x="235" y="465"/>
      <point x="298" y="465" type="curve" smooth="yes"/>
      <point x="354" y="465"/>
      <point x="384" y="442"/>
      <point x="384" y="400" type="curve" smooth="yes"/>
      <point x="384" y="353"/>
      <point x="366" y="323"/>
      <point x="334" y="318" type="curve" smooth="yes"/>
      <point x="212" y="300" type="line" smooth="yes"/>
      <point x="115" y="286"/>
      <point x="50" y="206"/>
      <point x="50" y="101" type="curve" smooth="yes"/>
      <point x="50" y="28"/>
      <point x="94" y="-15"/>
      <point x="167" y="-15" type="curve" smooth="yes"/>
      <point x="241" y="-15"/>
      <point x="295" y="16"/>
      <point x="355" y="94" type="curve"/>
      <point x="378" y="16"/>
      <point x="419" y="-15"/>
      <point x="497" y="-15" type="curve" smooth="yes"/>
      <point x="598" y="-15"/>
      <point x="679" y="51"/>
      <point x="717" y="164" type="curve"/>
    </contour>
    <contour>
      <point x="434" y="303" type="line"/>
      <point x="454" y="396"/>
      <point x="515" y="459"/>
      <point x="584" y="459" type="curve" smooth="yes"/>
      <point x="640" y="459"/>
      <point x="675" y="417"/>
      <point x="675" y="350" type="curve" smooth="yes"/>
      <point x="675" y="337"/>
      <point x="674" y="321"/>
      <point x="673" y="303" type="curve"/>
    </contour>
    <contour>
      <point x="346" y="181" type="line" smooth="yes"/>
      <point x="334" y="114"/>
      <point x="263" y="58"/>
      <point x="190" y="58" type="curve" smooth="yes"/>
      <point x="149" y="58"/>
      <point x="127" y="80"/>
      <point x="127" y="122" type="curve" smooth="yes"/>
      <point x="127" y="187"/>
      <point x="160" y="221"/>
      <point x="236" y="234" type="curve" smooth="yes"/>
      <point x="322" y="247"/>
      <point x="344" y="253"/>
      <point x="361" y="267" type="curve"/>
    </contour>
  </outline>
</glyph>
<glyph name="ccedilla" format="1">
  <advance width="410"/>
  <unicode hex="00E7"/>
  <outline>
    <contour>
      <point x="213" y="-15" type="line"/>
      <point x="311" y="-16"/>
      <point x="388" y="58"/>
      <point x="424" y="185" type="curve"/>
      <point x="354" y="185" type="line"/>
      <point x="324" y="102"/>
      <point x="282" y="61"/>
      <point x="227" y="61" type="curve" smooth="yes"/>
      <point x="170" y="61"/>
      <point x="139" y="103"/>
      <point x="139" y="180" type="curve" smooth="yes"/>
      <point x="139" y="245"/>
      <point x="156" y="321"/>
      <point x="182" y="372" type="curve" smooth="yes"/>
      <point x="211" y="429"/>
      <point x="252" y="459"/>
      <point x="300" y="459" type="curve" smooth="yes"/>
      <point x="340" y="459"/>
      <point x="366" y="440"/>
      <point x="377" y="403" type="curve" smooth="yes"/>
      <point x="381" y="387"/>
      <point x="381" y="384"/>
      <point x="382" y="347" type="curve"/>
      <point x="452" y="347" type="line"/>
      <point x="453" y="364"/>
      <point x="454" y="379"/>
      <point x="454" y="390" type="curve" smooth="yes"/>
      <point x="454" y="482"/>
      <point x="404" y="538"/>
      <point x="323" y="538" type="curve" smooth="yes"/>
      <point x="253" y="538"/>
      <point x="192" y="505"/>
      <point x="145" y="443" type="curve" smooth="yes"/>
      <point x="94" y="375"/>
      <point x="61" y="269"/>
      <point x="61" y="172" type="curve" smooth="yes"/>
      <point x="61" y="72"/>
      <point x="103" y="5"/>
      <point x="177" y="-11" type="curve"/>
      <point x="118" y="-86" type="line"/>
      <point x="129" y="-105" type="line"/>
      <point x="146" y="-99"/>
      <point x="155" y="-97"/>
      <point x="162" y="-97" type="curve" smooth="yes"/>
      <point x="182" y="-97"/>
      <point x="196" y="-110"/>
      <point x="196" y="-128" type="curve" smooth="yes"/>
      <point x="196" y="-158"/>
      <point x="174" y="-178"/>
      <point x="141" y="-178" type="curve" smooth="yes"/>
      <point x="124" y="-178"/>
      <point x="113" y="-175"/>
      <point x="91" y="-163" type="curve"/>
      <point x="70" y="-203" type="line"/>
      <point x="99" y="-219"/>
      <point x="120" y="-225"/>
      <point x="145" y="-225" type="curve" smooth="yes"/>
      <point x="209" y="-225"/>
      <point x="260" y="-177"/>
      <point x="260" y="-116" type="curve" smooth="yes"/>
      <point x="260" y="-79"/>
      <point x="239" y="-58"/>
      <point x="203" y="-58" type="curve" smooth="yes"/>
      <point x="195" y="-58"/>
      <point x="192" y="-58"/>
      <point x="176" y="-62" type="curve"/>
    </contour>
  </outline>
</glyph>
<glyph name="igrave" format="1">
  <advance width="228"/>
  <unicode hex="00EC"/>
  <outline>
    <contour>
      <point x="241" y="523" type="line"/>
      <point x="169" y="523" type="line"/>
      <point x="78" y="0" type="line"/>
      <point x="150" y="0" type="line"/>
    </contour>
    <contour>
      <point x="199" y="593" type="line"/>
      <point x="254" y="593" type="line"/>
      <point x="206" y="734" type="line"/>
      <point x="117" y="734" type="line"/>
    </contour>
  </outline>
</glyph>
<glyph name="eth" format="1">
  <advance width="456"/>
  <unicode hex="00F0"/>
  <outline>
    <contour>
      <point x="506" y="697" type="line"/>
      <point x="474" y="737" type="line"/>
      <point x="379" y="686" type="line"/>
      <point x="358" y="709"/>
      <point x="342" y="721"/>
      <point x="313" y="737" type="curve"/>
      <point x="246" y="701" type="line"/>
      <point x="271" y="687"/>
      <point x="290" y="671"/>
      <point x="310" y="649" type="curve"/>
      <point x="203" y="592" type="line"/>
      <point x="230" y="550" type="line"/>
      <point x="343" y="612" type="line"/>
      <point x="381" y="565"/>
      <point x="401" y="521"/>
      <point x="410" y="463" type="curve"/>
      <point x="382" y="507"/>
      <point x="356" y="523"/>
      <point x="310" y="523" type="curve" smooth="yes"/>
      <point x="249" y="523"/>
      <point x="194" y="492"/>
      <point x="148" y="431" type="curve" smooth="yes"/>
      <point x="97" y="364"/>
      <point x="67" y="272"/>
      <point x="67" y="184" type="curve" smooth="yes"/>
      <point x="67" y="62"/>
      <point x="129" y="-15"/>
      <point x="228" y="-15" type="curve" smooth="yes"/>
      <point x="291" y="-15"/>
      <point x="348" y="17"/>
      <point x="395" y="79" type="curve" smooth="yes"/>
      <point x="450" y="151"/>
      <point x="488" y="278"/>
      <point x="488" y="389" type="curve" smooth="yes"/>
      <point x="488" y="487"/>
      <point x="467" y="556"/>
      <point x="409" y="646" type="curve"/>
    </contour>
    <contour>
      <point x="306" y="447" type="curve" smooth="yes"/>
      <point x="368" y="447"/>
      <point x="402" y="398"/>
      <point x="402" y="308" type="curve" smooth="yes"/>
      <point x="402" y="257"/>
      <point x="389" y="204"/>
      <point x="364" y="155" type="curve" smooth="yes"/>
      <point x="333" y="94"/>
      <point x="289" y="61"/>
      <point x="239" y="61" type="curve" smooth="yes"/>
      <point x="177" y="61"/>
      <point x="143" y="110"/>
      <point x="143" y="200" type="curve" smooth="yes"/>
      <point x="143" y="251"/>
      <point x="156" y="304"/>
      <point x="181" y="353" type="curve" smooth="yes"/>
      <point x="212" y="414"/>
      <point x="256" y="447"/>
    </contour>
  </outline>
</glyph>
<glyph name="ntilde" format="1">
  <advance width="456"/>
  <unicode hex="00F1"/>
  <outline>
    <contour>
      <point x="212" y="523" type="line"/>
      <point x="144" y="523" type="line"/>
      <point x="53" y="0" type="line"/>
      <point x="125" y="0" type="line"/>
      <point x="175" y="285" type="line" smooth="yes"/>
      <point x="194" y="393"/>
      <point x="250" y="459"/>
      <point x="323" y="459" type="curve" smooth="yes"/>
      <point x="369" y="459"/>
      <point x="392" y="433"/>
      <point x="392" y="382" type="curve" smooth="yes"/>
      <point x="392" y="362"/>
      <point x="390" y="342"/>
      <point x="387" y="322" type="curve" smooth="yes"/>
      <point x="331" y="0" type="line"/>
      <point x="403" y="0" type="line"/>
      <point x="465" y="356" type="line" smooth="yes"/>
      <point x="468" y="375"/>
      <point x="470" y="393"/>
      <point x="470" y="410" type="curve" smooth="yes"/>
      <point x="470" y="490"/>
      <point x="426" y="538"/>
      <point x="352" y="538" type="curve" smooth="yes"/>
      <point x="293" y="538"/>
      <point x="249" y="511"/>
      <point x="199" y="446" type="curve"/>
    </contour>
    <contour>
      <point x="445" y="722" type="line"/>
      <point x="433" y="689"/>
      <point x="420" y="676"/>
      <point x="398" y="676" type="curve" smooth="yes"/>
      <point x="389" y="676"/>
      <point x="375" y="681"/>
      <point x="360" y="689" type="curve" smooth="yes"/>
      <point x="343" y="698" type="line" smooth="yes"/>
      <point x="325" y="708"/>
      <point x="306" y="713"/>
      <point x="290" y="713" type="curve" smooth="yes"/>
      <point x="241" y="713"/>
      <point x="209" y="680"/>
      <point x="186" y="606" type="curve"/>
      <point x="225" y="606" type="line"/>
      <point x="239" y="638"/>
      <point x="252" y="650"/>
      <point x="272" y="650" type="curve" smooth="yes"/>
      <point x="282" y="650"/>
      <point x="296" y="646"/>
      <point x="319" y="635" type="curve" smooth="yes"/>
      <point x="339" y="626" type="line" smooth="yes"/>
      <point x="359" y="617"/>
      <point x="372" y="613"/>
      <point x="384" y="613" type="curve" smooth="yes"/>
      <point x="429" y="613"/>
      <point x="464" y="651"/>
      <point x="486" y="722" type="curve"/>
    </contour>
  </outline>
</glyph>
<glyph name="oacute" format="1">
  <advance width="456"/>
  <unicode hex="00F3"/>
  <outline>
    <contour>
      <point x="322" y="538" type="curve" smooth="yes"/>
      <point x="256" y="538"/>
      <point x="197" y="505"/>
      <point x="150" y="443" type="curve" smooth="yes"/>
      <point x="100" y="377"/>
      <point x="68" y="278"/>
      <point x="68" y="189" type="curve" smooth="yes"/>
      <point x="68" y="62"/>
      <point x="127" y="-14"/>
      <point x="225" y="-14" type="curve" smooth="yes"/>
      <point x="292" y="-14"/>
      <point x="350" y="18"/>
      <point x="397" y="81" type="curve" smooth="yes"/>
      <point x="448" y="149"/>
      <point x="479" y="244"/>
      <point x="479" y="336" type="curve" smooth="yes"/>
      <point x="479" y="462"/>
      <point x="420" y="538"/>
    </contour>
    <contour>
      <point x="308" y="462" type="curve" smooth="yes"/>
      <point x="370" y="462"/>
      <point x="404" y="413"/>
      <point x="404" y="325" type="curve" smooth="yes"/>
      <point x="404" y="268"/>
      <point x="389" y="204"/>
      <point x="363" y="154" type="curve" smooth="yes"/>
      <point x="332" y="94"/>
      <point x="289" y="62"/>
      <point x="239" y="62" type="curve" smooth="yes"/>
      <point x="177" y="62"/>
      <point x="143" y="110"/>
      <point x="143" y="198" type="curve" smooth="yes"/>
      <point x="143" y="256"/>
      <point x="158" y="320"/>
      <point x="184" y="370" type="curve" smooth="yes"/>
      <point x="215" y="430"/>
      <point x="258" y="462"/>
    </contour>
    <contour>
      <point x="482" y="734" type="line"/>
      <point x="393" y="734" type="line"/>
      <point x="295" y="593" type="line"/>
      <point x="350" y="593" type="line"/>
    </contour>
  </outline>
</glyph>
<glyph name="otilde" format="1">
  <advance width="456"/>
  <unicode hex="00F5"/>
  <outline>
    <contour>
      <point x="322" y="538" type="curve" smooth="yes"/>
      <point x="256" y="538"/>
      <point x="197" y="505"/>
      <point x="150" y="443" type="curve" smooth="yes"/>
      <point x="100" y="377"/>
      <point x="68" y="278"/>
      <point x="68" y="189" type="curve" smooth="yes"/>
      <point x="68" y="62"/>
      <point x="127" y="-14"/>
      <point x="225" y="-14" type="curve" smooth="yes"/>
      <point x="292" y="-14"/>
      <point x="350" y="18"/>
      <point x="397" y="81" type="curve" smooth="yes"/>
      <point x="448" y="149"/>
      <point x="479" y="244"/>
      <point x="479" y="336" type="curve" smooth="yes"/>
      <point x="479" y="462"/>
      <point x="420" y="538"/>
    </contour>
    <contour>
      <point x="308" y="462" type="curve" smooth="yes"/>
      <point x="370" y="462"/>
      <point x="404" y="413"/>
      <point x="404" y="325" type="curve" smooth="yes"/>
      <point x="404" y="268"/>
      <point x="389" y="204"/>
      <point x="363" y="154" type="curve" smooth="yes"/>
      <point x="332" y="94"/>
      <point x="289" y="62"/>
      <point x="239" y="62" type="curve" smooth="yes"/>
      <point x="177" y="62"/>
      <point x="143" y="110"/>
      <point x="143" y="198" type="curve" smooth="yes"/>
      <point x="143" y="256"/>
      <point x="158" y="320"/>
      <point x="184" y="370" type="curve" smooth="yes"/>
      <point x="215" y="430"/>
      <point x="258" y="462"/>
    </contour>
    <contour>
      <point x="453" y="722" type="line"/>
      <point x="441" y="689"/>
      <point x="428" y="676"/>
      <point x="406" y="676" type="curve" smooth="yes"/>
      <point x="397" y="676"/>
      <point x="383" y="681"/>
      <point x="368" y="689" type="curve" smooth="yes"/>
      <point x="351" y="698" type="line" smooth="yes"/>
      <point x="333" y="708"/>
      <point x="314" y="713"/>
      <point x="298" y="713" type="curve" smooth="yes"/>
      <point x="249" y="713"/>
      <point x="217" y="680"/>
      <point x="194" y="606" type="curve"/>
      <point x="233" y="606" type="line"/>
      <point x="247" y="638"/>
      <point x="260" y="650"/>
      <point x="280" y="650" type="curve" smooth="yes"/>
      <point x="290" y="650"/>
      <point x="304" y="646"/>
      <point x="327" y="635" type="curve" smooth="yes"/>
      <point x="347" y="626" type="line" smooth="yes"/>
      <point x="367" y="617"/>
      <point x="380" y="613"/>
      <point x="392" y="613" type="curve" smooth="yes"/>
      <point x="437" y="613"/>
      <point x="472" y="651"/>
      <point x="494" y="722" type="curve"/>
    </contour>
  </outline>
</glyph>
<glyph name="divide" format="1">
  <advance width="479"/>
  <unicode hex="00F7"/>
  <outline>
    <contour>
      <point x="484" y="216" type="line"/>
      <point x="497" y="289" type="line"/>
      <point x="83" y="289" type="line"/>
      <point x="70" y="216" type="line"/>
    </contour>
    <contour>
      <point x="331" y="524" type="curve" smooth="yes"/>
      <point x="296" y="524"/>
      <point x="262" y="484"/>
      <point x="262" y="442" type="curve" smooth="yes"/>
      <point x="262" y="412"/>
      <point x="282" y="388"/>
      <point x="307" y="388" type="curve" smooth="yes"/>
      <point x="341" y="388"/>
      <point x="376" y="429"/>
      <point x="376" y="469" type="curve" smooth="yes"/>
      <point x="376" y="500"/>
      <point x="357" y="524"/>
    </contour>
    <contour>
      <point x="260" y="117" type="curve" smooth="yes"/>
      <point x="225" y="117"/>
      <point x="191" y="77"/>
      <point x="191" y="36" type="curve" smooth="yes"/>
      <point x="191" y="5"/>
      <point x="211" y="-19"/>
      <point x="236" y="-19" type="curve" smooth="yes"/>
      <point x="270" y="-19"/>
      <point x="305" y="22"/>
      <point x="305" y="63" type="curve" smooth="yes"/>
      <point x="305" y="94"/>
      <point x="286" y="117"/>
    </contour>
  </outline>
</glyph>
<glyph name="oslash" format="1">
  <advance width="501"/>
  <unicode hex="00F8"/>
  <outline>
    <contour>
      <point x="531" y="519" type="line"/>
      <point x="510" y="545" type="line"/>
      <point x="445" y="473" type="line"/>
      <point x="413" y="519"/>
      <point x="377" y="538"/>
      <point x="323" y="538" type="curve" smooth="yes"/>
      <point x="256" y="538"/>
      <point x="198" y="506"/>
      <point x="150" y="443" type="curve" smooth="yes"/>
      <point x="100" y="376"/>
      <point x="68" y="278"/>
      <point x="68" y="189" type="curve" smooth="yes"/>
      <point x="68" y="145"/>
      <point x="73" y="118"/>
      <point x="89" y="76" type="curve"/>
      <point x="24" y="4" type="line"/>
      <point x="45" y="-22" type="line"/>
      <point x="106" y="46" type="line"/>
      <point x="137" y="4"/>
      <point x="173" y="-14"/>
      <point x="225" y="-14" type="curve" smooth="yes"/>
      <point x="292" y="-14"/>
      <point x="350" y="18"/>
      <point x="398" y="81" type="curve" smooth="yes"/>
      <point x="449" y="148"/>
      <point x="480" y="245"/>
      <point x="480" y="335" type="curve" smooth="yes"/>
      <point x="480" y="376"/>
      <point x="475" y="401"/>
      <point x="461" y="441" type="curve"/>
    </contour>
    <contour>
      <point x="149" y="143" type="line"/>
      <point x="145" y="167"/>
      <point x="144" y="178"/>
      <point x="144" y="197" type="curve" smooth="yes"/>
      <point x="144" y="246"/>
      <point x="154" y="296"/>
      <point x="173" y="343" type="curve" smooth="yes"/>
      <point x="204" y="421"/>
      <point x="251" y="462"/>
      <point x="309" y="462" type="curve" smooth="yes"/>
      <point x="346" y="462"/>
      <point x="370" y="447"/>
      <point x="389" y="410" type="curve"/>
    </contour>
    <contour>
      <point x="400" y="373" type="line"/>
      <point x="404" y="351"/>
      <point x="405" y="341"/>
      <point x="405" y="326" type="curve" smooth="yes"/>
      <point x="405" y="279"/>
      <point x="395" y="227"/>
      <point x="376" y="181" type="curve" smooth="yes"/>
      <point x="344" y="103"/>
      <point x="297" y="62"/>
      <point x="239" y="62" type="curve" smooth="yes"/>
      <point x="203" y="62"/>
      <point x="179" y="76"/>
      <point x="162" y="108" type="curve"/>
    </contour>
  </outline>
</glyph>
<glyph name="udieresis" format="1">
  <advance width="456"/>
  <unicode hex="00FC"/>
  <outline>
    <contour>
      <point x="401" y="0" type="line"/>
      <point x="492" y="523" type="line"/>
      <point x="420" y="523" type="line"/>
      <point x="370" y="235" type="line" smooth="yes"/>
      <point x="351" y="128"/>
      <point x="294" y="61"/>
      <point x="222" y="61" type="curve" smooth="yes"/>
      <point x="178" y="61"/>
      <point x="155" y="87"/>
      <point x="155" y="136" type="curve" smooth="yes"/>
      <point x="155" y="153"/>
      <point x="156" y="163"/>
      <point x="158" y="176" type="curve" smooth="yes"/>
      <point x="219" y="523" type="line"/>
      <point x="146" y="523" type="line"/>
      <point x="81" y="147" type="line" smooth="yes"/>
      <point x="78" y="132"/>
      <point x="77" y="118"/>
      <point x="77" y="103" type="curve" smooth="yes"/>
      <point x="77" y="28"/>
      <point x="120" y="-15"/>
      <point x="195" y="-15" type="curve" smooth="yes"/>
      <point x="258" y="-15"/>
      <point x="296" y="9"/>
      <point x="347" y="81" type="curve"/>
      <point x="333" y="0" type="line"/>
    </contour>
    <contour>
      <point x="321" y="706" type="line"/>
      <point x="247" y="706" type="line"/>
      <point x="229" y="604" type="line"/>
      <point x="304" y="604" type="line"/>
    </contour>
    <contour>
      <point x="454" y="706" type="line"/>
      <point x="379" y="706" type="line"/>
      <point x="362" y="604" type="line"/>
      <point x="436" y="604" type="line"/>
    </contour>
  </outline>
</glyph>
<glyph name="yacute" format="1">
  <advance width="410"/>
  <unicode hex="00FD"/>
  <outline>
    <contour>
      <point x="222" y="94" type="line"/>
      <point x="182" y="523" type="line"/>
      <point x="100" y="523" type="line"/>
      <point x="165" y="-14" type="line"/>
      <point x="138" y="-68" type="line" smooth="yes"/>
      <point x="113" y="-121"/>
      <point x="98" y="-135"/>
      <point x="68" y="-135" type="curve" smooth="yes"/>
      <point x="53" y="-135"/>
      <point x="40" y="-132"/>
      <point x="26" y="-126" type="curve"/>
      <point x="12" y="-206" type="line"/>
      <point x="15" y="-207" type="line"/>
      <point x="18" y="-208" type="line" smooth="yes"/>
      <point x="31" y="-213"/>
      <point x="35" y="-214"/>
      <point x="47" y="-214" type="curve" smooth="yes"/>
      <point x="131" y="-214"/>
      <point x="148" y="-195"/>
      <point x="248" y="10" type="curve" smooth="yes"/>
      <point x="492" y="523" type="line"/>
      <point x="412" y="523" type="line"/>
    </contour>
    <contour>
      <point x="459" y="734" type="line"/>
      <point x="370" y="734" type="line"/>
      <point x="272" y="593" type="line"/>
      <point x="327" y="593" type="line"/>
    </contour>
  </outline>
</glyph>
<glyph name="Amacron" format="1">
  <advance width="547"/>
  <unicode hex="0100"/>
  <outline>
    <contour>
      <point x="427" y="209" type="line"/>
      <point x="449" y="0" type="line"/>
      <point x="536" y="0" type="line"/>
      <point x="448" y="718" type="line"/>
      <point x="358" y="718" type="line"/>
      <point x="11" y="0" type="line"/>
      <point x="93" y="0" type="line"/>
      <point x="191" y="209" type="line"/>
    </contour>
    <contour>
      <point x="231" y="295" type="line"/>
      <point x="381" y="614" type="line"/>
      <point x="414" y="295" type="line"/>
    </contour>
    <contour>
      <point x="555" y="879" type="line"/>
      <point x="298" y="879" type="line"/>
      <point x="288" y="822" type="line"/>
      <point x="545" y="822" type="line"/>
    </contour>
  </outline>
</glyph>
<glyph name="Abreve" format="1">
  <advance width="547"/>
  <unicode hex="0102"/>
  <outline>
    <contour>
      <point x="427" y="209" type="line"/>
      <point x="449" y="0" type="line"/>
      <point x="536" y="0" type="line"/>
      <point x="448" y="718" type="line"/>
      <point x="358" y="718" type="line"/>
      <point x="11" y="0" type="line"/>
      <point x="93" y="0" type="line"/>
      <point x="191" y="209" type="line"/>
    </contour>
    <contour>
      <point x="231" y="295" type="line"/>
      <point x="381" y="614" type="line"/>
      <point x="414" y="295" type="line"/>
    </contour>
    <contour>
      <point x="523" y="926" type="line"/>
      <point x="498" y="868"/>
      <point x="473" y="847"/>
      <point x="424" y="847" type="curve" smooth="yes"/>
      <point x="390" y="847"/>
      <point x="366" y="861"/>
      <point x="356" y="888" type="curve" smooth="yes"/>
      <point x="352" y="898"/>
      <point x="351" y="904"/>
      <point x="349" y="926" type="curve"/>
      <point x="309" y="926" type="line"/>
      <point x="308" y="897" type="line"/>
      <point x="308" y="827"/>
      <point x="343" y="790"/>
      <point x="409" y="790" type="curve" smooth="yes"/>
      <point x="454" y="790"/>
      <point x="493" y="807"/>
      <point x="520" y="839" type="curve" smooth="yes"/>
      <point x="539" y="862"/>
      <point x="549" y="882"/>
      <point x="562" y="926" type="curve"/>
    </contour>
  </outline>
</glyph>
<glyph name="Aogonek" format="1">
  <advance width="547"/>
  <unicode hex="0104"/>
  <outline>
    <contour>
      <point x="448" y="718" type="line"/>
      <point x="358" y="718" type="line"/>
      <point x="11" y="0" type="line"/>
      <point x="93" y="0" type="line"/>
      <point x="191" y="209" type="line"/>
      <point x="427" y="209" type="line"/>
      <point x="449" y="0" type="line"/>
      <point x="481" y="0" type="line"/>
      <point x="443" y="-15"/>
      <point x="429" y="-24"/>
      <point x="409" y="-48" type="curve" smooth="yes"/>
      <point x="384" y="-77"/>
      <point x="367" y="-119"/>
      <point x="367" y="-152" type="curve" smooth="yes"/>
      <point x="367" y="-196"/>
      <point x="399" y="-225"/>
      <point x="447" y="-225" type="curve" smooth="yes"/>
      <point x="473" y="-225"/>
      <point x="499" y="-218"/>
      <point x="532" y="-203" type="curve"/>
      <point x="525" y="-163" type="line"/>
      <point x="499" y="-175"/>
      <point x="487" y="-178"/>
      <point x="470" y="-178" type="curve" smooth="yes"/>
      <point x="445" y="-178"/>
      <point x="431" y="-166"/>
      <point x="431" y="-143" type="curve" smooth="yes"/>
      <point x="431" y="-122"/>
      <point x="439" y="-94"/>
      <point x="451" y="-76" type="curve" smooth="yes"/>
      <point x="466" y="-52"/>
      <point x="486" y="-34"/>
      <point x="536" y="0" type="curve"/>
    </contour>
    <contour>
      <point x="231" y="295" type="line"/>
      <point x="381" y="614" type="line"/>
      <point x="414" y="295" type="line"/>
    </contour>
  </outline>
</glyph>
<glyph name="aogonek" format="1">
  <advance width="456"/>
  <unicode hex="0105"/>
  <outline>
    <contour>
      <point x="446" y="64" type="line"/>
      <point x="433" y="61"/>
      <point x="426" y="60"/>
      <point x="420" y="60" type="curve" smooth="yes"/>
      <point x="408" y="60"/>
      <point x="400" y="69"/>
      <point x="401" y="80" type="curve"/>
      <point x="401" y="81"/>
      <point x="402" y="85"/>
      <point x="403" y="91" type="curve" smooth="yes"/>
      <point x="455" y="392" type="line" smooth="yes"/>
      <point x="457" y="402"/>
      <point x="458" y="413"/>
      <point x="458" y="423" type="curve" smooth="yes"/>
      <point x="458" y="495"/>
      <point x="405" y="538"/>
      <point x="316" y="538" type="curve" smooth="yes"/>
      <point x="250" y="538"/>
      <point x="193" y="513"/>
      <point x="159" y="469" type="curve" smooth="yes"/>
      <point x="137" y="441"/>
      <point x="126" y="416"/>
      <point x="114" y="364" type="curve"/>
      <point x="180" y="364" type="line"/>
      <point x="203" y="438"/>
      <point x="235" y="465"/>
      <point x="298" y="465" type="curve" smooth="yes"/>
      <point x="354" y="465"/>
      <point x="384" y="442"/>
      <point x="384" y="400" type="curve" smooth="yes"/>
      <point x="384" y="353"/>
      <point x="366" y="323"/>
      <point x="334" y="318" type="curve" smooth="yes"/>
      <point x="212" y="300" type="line" smooth="yes"/>
      <point x="115" y="286"/>
      <point x="50" y="206"/>
      <point x="50" y="101" type="curve" smooth="yes"/>
      <point x="50" y="29"/>
      <point x="93" y="-15"/>
      <point x="164" y="-15" type="curve" smooth="yes"/>
      <point x="225" y="-15"/>
      <point x="274" y="10"/>
      <point x="331" y="70" type="curve"/>
      <point x="330" y="60"/>
      <point x="329" y="51"/>
      <point x="329" y="46" type="curve" smooth="yes"/>
      <point x="329" y="18"/>
      <point x="340" y="2"/>
      <point x="364" y="-6" type="curve"/>
      <point x="307" y="-31"/>
      <point x="265" y="-93"/>
      <point x="265" y="-152" type="curve" smooth="yes"/>
      <point x="265" y="-196"/>
      <point x="297" y="-225"/>
      <point x="345" y="-225" type="curve" smooth="yes"/>
      <point x="371" y="-225"/>
      <point x="397" y="-218"/>
      <point x="430" y="-203" type="curve"/>
      <point x="423" y="-163" type="line"/>
      <point x="397" y="-175"/>
      <point x="385" y="-178"/>
      <point x="369" y="-178" type="curve" smooth="yes"/>
      <point x="343" y="-178"/>
      <point x="329" y="-166"/>
      <point x="329" y="-143" type="curve" smooth="yes"/>
      <point x="329" y="-122"/>
      <point x="337" y="-94"/>
      <point x="349" y="-75" type="curve" smooth="yes"/>
      <point x="364" y="-52"/>
      <point x="384" y="-34"/>
      <point x="434" y="0" type="curve"/>
    </contour>
    <contour>
      <point x="346" y="181" type="line" smooth="yes"/>
      <point x="335" y="114"/>
      <point x="263" y="58"/>
      <point x="190" y="58" type="curve" smooth="yes"/>
      <point x="149" y="58"/>
      <point x="127" y="80"/>
      <point x="127" y="121" type="curve" smooth="yes"/>
      <point x="127" y="187"/>
      <point x="160" y="221"/>
      <point x="236" y="234" type="curve" smooth="yes"/>
      <point x="322" y="248"/>
      <point x="344" y="253"/>
      <point x="361" y="267" type="curve"/>
    </contour>
  </outline>
</glyph>
<glyph name="Dcaron" format="1">
  <advance width="592"/>
  <unicode hex="010E"/>
  <outline>
    <contour>
      <point x="66" y="0" type="line"/>
      <point x="302" y="0" type="line" smooth="yes"/>
      <point x="386" y="0"/>
      <point x="457" y="38"/>
      <point x="515" y="116" type="curve" smooth="yes"/>
      <point x="583" y="206"/>
      <point x="626" y="345"/>
      <point x="626" y="472" type="curve" smooth="yes"/>
      <point x="626" y="626"/>
      <point x="553" y="718"/>
      <point x="430" y="718" type="curve" smooth="yes"/>
      <point x="191" y="718" type="line"/>
    </contour>
    <contour>
      <point x="256" y="635" type="line"/>
      <point x="405" y="635" type="line" smooth="yes"/>
      <point x="494" y="635"/>
      <point x="543" y="573"/>
      <point x="543" y="461" type="curve" smooth="yes"/>
      <point x="543" y="361"/>
      <point x="512" y="245"/>
      <point x="468" y="178" type="curve" smooth="yes"/>
      <point x="427" y="116"/>
      <point x="374" y="83"/>
      <point x="314" y="83" type="curve" smooth="yes"/>
      <point x="160" y="83" type="line"/>
    </contour>
    <contour>
      <point x="403" y="929" type="line"/>
      <point x="338" y="929" type="line"/>
      <point x="395" y="788" type="line"/>
      <point x="471" y="788" type="line"/>
      <point x="577" y="929" type="line"/>
      <point x="511" y="929" type="line"/>
      <point x="441" y="836" type="line"/>
    </contour>
  </outline>
</glyph>
<glyph name="dcaron" format="1">
  <advance width="503"/>
  <unicode hex="010F"/>
  <outline>
    <contour>
      <point x="534" y="718" type="line"/>
      <point x="462" y="718" type="line"/>
      <point x="414" y="444" type="line"/>
      <point x="392" y="511"/>
      <point x="358" y="538"/>
      <point x="300" y="538" type="curve" smooth="yes"/>
      <point x="171" y="538"/>
      <point x="69" y="381"/>
      <point x="69" y="185" type="curve" smooth="yes"/>
      <point x="69" y="57"/>
      <point x="121" y="-15"/>
      <point x="214" y="-15" type="curve" smooth="yes"/>
      <point x="272" y="-15"/>
      <point x="311" y="10"/>
      <point x="354" y="75" type="curve"/>
      <point x="341" y="0" type="line"/>
      <point x="409" y="0" type="line"/>
    </contour>
    <contour>
      <point x="299" y="459" type="curve" smooth="yes"/>
      <point x="358" y="459"/>
      <point x="387" y="417"/>
      <point x="387" y="334" type="curve" smooth="yes"/>
      <point x="387" y="257"/>
      <point x="366" y="170"/>
      <point x="337" y="128" type="curve" smooth="yes"/>
      <point x="309" y="85"/>
      <point x="269" y="61"/>
      <point x="228" y="61" type="curve" smooth="yes"/>
      <point x="174" y="61"/>
      <point x="143" y="107"/>
      <point x="143" y="186" type="curve" smooth="yes"/>
      <point x="143" y="253"/>
      <point x="159" y="328"/>
      <point x="185" y="380" type="curve" smooth="yes"/>
      <point x="209" y="430"/>
      <point x="251" y="459"/>
    </contour>
    <contour>
      <point x="566" y="718" type="line"/>
      <point x="548" y="617" type="line"/>
      <point x="588" y="617" type="line"/>
      <point x="580" y="563"/>
      <point x="562" y="534"/>
      <point x="534" y="531" type="curve"/>
      <point x="527" y="492" type="line"/>
      <point x="576" y="496"/>
      <point x="613" y="544"/>
      <point x="627" y="624" type="curve" smooth="yes"/>
      <point x="643" y="718" type="line"/>
    </contour>
  </outline>
</glyph>
<glyph name="dcroat" format="1">
  <advance width="456"/>
  <unicode hex="0111"/>
  <outline>
    <contour>
      <point x="523" y="653" type="line"/>
      <point x="534" y="718" type="line"/>
      <point x="462" y="718" type="line"/>
      <point x="451" y="653" type="line"/>
      <point x="317" y="653" type="line"/>
      <point x="308" y="600" type="line"/>
      <point x="441" y="600" type="line"/>
      <point x="414" y="444" type="line"/>
      <point x="392" y="511"/>
      <point x="358" y="538"/>
      <point x="300" y="538" type="curve" smooth="yes"/>
      <point x="171" y="538"/>
      <point x="69" y="381"/>
      <point x="69" y="185" type="curve" smooth="yes"/>
      <point x="69" y="57"/>
      <point x="121" y="-15"/>
      <point x="214" y="-15" type="curve" smooth="yes"/>
      <point x="272" y="-15"/>
      <point x="311" y="10"/>
      <point x="354" y="75" type="curve"/>
      <point x="341" y="0" type="line"/>
      <point x="409" y="0" type="line"/>
      <point x="513" y="600" type="line"/>
      <point x="564" y="600" type="line"/>
      <point x="573" y="653" type="line"/>
    </contour>
    <contour>
      <point x="299" y="459" type="curve" smooth="yes"/>
      <point x="358" y="459"/>
      <point x="387" y="417"/>
      <point x="387" y="334" type="curve" smooth="yes"/>
      <point x="387" y="257"/>
      <point x="366" y="170"/>
      <point x="337" y="128" type="curve" smooth="yes"/>
      <point x="309" y="85"/>
      <point x="269" y="61"/>
      <point x="228" y="61" type="curve" smooth="yes"/>
      <point x="174" y="61"/>
      <point x="143" y="107"/>
      <point x="143" y="186" type="curve" smooth="yes"/>
      <point x="143" y="253"/>
      <point x="159" y="328"/>
      <point x="185" y="380" type="curve" smooth="yes"/>
      <point x="209" y="430"/>
      <point x="251" y="459"/>
    </contour>
  </outline>
</glyph>
<glyph name="Emacron" format="1">
  <advance width="547"/>
  <unicode hex="0112"/>
  <outline>
    <contour>
      <point x="521" y="86" type="line"/>
      <point x="166" y="86" type="line"/>
      <point x="207" y="326" type="line"/>
      <point x="530" y="326" type="line"/>
      <point x="545" y="412" type="line"/>
      <point x="222" y="412" type="line"/>
      <point x="261" y="632" type="line"/>
      <point x="610" y="632" type="line"/>
      <point x="625" y="718" type="line"/>
      <point x="196" y="718" type="line"/>
      <point x="71" y="0" type="line"/>
      <point x="506" y="0" type="line"/>
    </contour>
    <contour>
      <point x="555" y="879" type="line"/>
      <point x="298" y="879" type="line"/>
      <point x="288" y="822" type="line"/>
      <point x="545" y="822" type="line"/>
    </contour>
  </outline>
</glyph>
<glyph name="Eogonek" format="1">
  <advance width="547"/>
  <unicode hex="0118"/>
  <outline>
    <contour>
      <point x="625" y="718" type="line"/>
      <point x="196" y="718" type="line"/>
      <point x="71" y="0" type="line"/>
      <point x="451" y="0" type="line"/>
      <point x="413" y="-15"/>
      <point x="398" y="-24"/>
      <point x="378" y="-48" type="curve" smooth="yes"/>
      <point x="354" y="-77"/>
      <point x="337" y="-119"/>
      <point x="337" y="-152" type="curve" smooth="yes"/>
      <point x="337" y="-196"/>
      <point x="369" y="-225"/>
      <point x="417" y="-225" type="curve" smooth="yes"/>
      <point x="442" y="-225"/>
      <point x="468" y="-218"/>
      <point x="501" y="-203" type="curve"/>
      <point x="494" y="-163" type="line"/>
      <point x="469" y="-175"/>
      <point x="456" y="-178"/>
      <point x="440" y="-178" type="curve" smooth="yes"/>
      <point x="415" y="-178"/>
      <point x="401" y="-166"/>
      <point x="401" y="-143" type="curve" smooth="yes"/>
      <point x="401" y="-122"/>
      <point x="409" y="-94"/>
      <point x="421" y="-76" type="curve" smooth="yes"/>
      <point x="436" y="-52"/>
      <point x="456" y="-34"/>
      <point x="506" y="0" type="curve"/>
      <point x="521" y="86" type="line"/>
      <point x="166" y="86" type="line"/>
      <point x="207" y="326" type="line"/>
      <point x="530" y="326" type="line"/>
      <point x="545" y="412" type="line"/>
      <point x="222" y="412" type="line"/>
      <point x="261" y="632" type="line"/>
      <point x="610" y="632" type="line"/>
    </contour>
  </outline>
</glyph>
